STARTFONT 2.1
COMMENT
COMMENT Converted from OpenType font "texgyreadventor-regular.otf" by "otf2bdf 3.0".
COMMENT
FONT -FreeType-TeX Gyre Adventor-Medium-R-Normal--27-270-72-72-P-151-ISO10646-1
SIZE 27 72 72
FONTBOUNDINGBOX 64 47 -22 -14
STARTPROPERTIES 19
FOUNDRY "FreeType"
FAMILY_NAME "TeX Gyre Adventor"
WEIGHT_NAME "Medium"
SLANT "R"
SETWIDTH_NAME "Normal"
ADD_STYLE_NAME ""
PIXEL_SIZE 27
POINT_SIZE 270
RESOLUTION_X 72
RESOLUTION_Y 72
SPACING "P"
AVERAGE_WIDTH 151
CHARSET_REGISTRY "ISO10646"
CHARSET_ENCODING "1"
FONT_ASCENT 19
FONT_DESCENT 5
COPYRIGHT "Copyright 2007-2018 for TeX Gyre extensions by B. Jackowski, J.M. Nowacki, et al. (on behalf of TeX USERS GROUPS). Vietnamese characters were added by Han The Thanh."
_OTF_FONTFILE "texgyreadventor-regular.otf"
_OTF_PSNAME "TeXGyreAdventor-Regular"
ENDPROPERTIES
CHARS 1199
STARTCHAR 0020
ENCODING 32
SWIDTH 259 0
DWIDTH 7 0
BBX 0 0 0 0
BITMAP
ENDCHAR
STARTCHAR 0021
ENCODING 33
SWIDTH 296 0
DWIDTH 8 0
BBX 2 20 3 0
BITMAP
C0
C0
C0
C0
C0
C0
C0
C0
C0
C0
C0
C0
C0
C0
C0
00
00
C0
C0
C0
ENDCHAR
STARTCHAR 0022
ENCODING 34
SWIDTH 296 0
DWIDTH 8 0
BBX 4 6 2 14
BITMAP
90
90
90
90
90
90
ENDCHAR
STARTCHAR 0023
ENCODING 35
SWIDTH 555 0
DWIDTH 15 0
BBX 15 20 0 0
BITMAP
0618
0618
0618
0418
0C10
0C30
7FFE
7FFE
0C30
0830
1820
1860
FFFC
FFFC
1060
3040
30C0
30C0
30C0
20C0
ENDCHAR
STARTCHAR 0024
ENCODING 36
SWIDTH 555 0
DWIDTH 15 0
BBX 11 23 2 -1
BITMAP
0400
0400
0E00
3F80
70C0
6060
6060
6000
6000
7000
3E00
0F80
01C0
00E0
0060
0060
C060
C060
60C0
7F80
1F00
0400
0400
ENDCHAR
STARTCHAR 0025
ENCODING 37
SWIDTH 777 0
DWIDTH 21 0
BBX 20 20 0 0
BITMAP
1E0300
3F8600
618600
C0CC00
C0CC00
C0D800
619800
3F9000
1E3000
003000
006000
0063C0
00CFE0
00DC70
019830
019830
031830
031C30
030FE0
0607C0
ENDCHAR
STARTCHAR 0026
ENCODING 38
SWIDTH 740 0
DWIDTH 20 0
BBX 18 20 2 0
BITMAP
078000
1FC000
386000
306000
302000
306000
18E000
1FC300
0F0700
3F0600
738E00
E1CC00
C0FC00
C03800
C03800
C03E00
C06700
60E380
3FC1C0
1F0080
ENDCHAR
STARTCHAR 0027
ENCODING 39
SWIDTH 185 0
DWIDTH 5 0
BBX 1 6 2 14
BITMAP
80
80
80
80
80
80
ENDCHAR
STARTCHAR 0028
ENCODING 40
SWIDTH 370 0
DWIDTH 10 0
BBX 7 25 2 -5
BITMAP
06
0E
1C
18
30
70
60
60
60
C0
C0
C0
C0
C0
C0
E0
60
60
60
30
30
18
0C
0E
02
ENDCHAR
STARTCHAR 0029
ENCODING 41
SWIDTH 370 0
DWIDTH 10 0
BBX 7 25 1 -5
BITMAP
C0
E0
70
30
18
1C
0C
0C
0C
0E
06
06
06
06
06
0E
0C
0C
0C
18
18
30
60
C0
80
ENDCHAR
STARTCHAR 002A
ENCODING 42
SWIDTH 444 0
DWIDTH 12 0
BBX 10 10 1 10
BITMAP
0C00
0C00
CD80
FFC0
3F00
3E00
FF80
ED80
0C00
0C00
ENDCHAR
STARTCHAR 002B
ENCODING 43
SWIDTH 703 0
DWIDTH 19 0
BBX 15 16 2 -1
BITMAP
0180
0180
0180
0180
0180
0180
0180
FFFE
FFFE
0180
0180
0180
0180
0180
0180
0180
ENDCHAR
STARTCHAR 002C
ENCODING 44
SWIDTH 259 0
DWIDTH 7 0
BBX 4 5 3 -2
BITMAP
70
60
60
C0
C0
ENDCHAR
STARTCHAR 002D
ENCODING 45
SWIDTH 333 0
DWIDTH 9 0
BBX 7 2 1 6
BITMAP
FE
FE
ENDCHAR
STARTCHAR 002E
ENCODING 46
SWIDTH 259 0
DWIDTH 7 0
BBX 2 3 3 0
BITMAP
C0
C0
C0
ENDCHAR
STARTCHAR 002F
ENCODING 47
SWIDTH 518 0
DWIDTH 14 0
BBX 10 22 2 -4
BITMAP
00C0
0180
0180
0180
0300
0300
0300
0600
0600
0E00
0C00
0C00
1C00
1800
1800
3800
3000
3000
6000
6000
6000
C000
ENDCHAR
STARTCHAR 0030
ENCODING 48
SWIDTH 555 0
DWIDTH 15 0
BBX 13 20 1 0
BITMAP
0F80
3FE0
7070
6038
C018
C018
C018
C018
C018
C018
C018
C018
C018
C018
C018
C018
6038
7070
3FE0
0FC0
ENDCHAR
STARTCHAR 0031
ENCODING 49
SWIDTH 555 0
DWIDTH 15 0
BBX 6 20 4 0
BITMAP
FC
FC
0C
0C
0C
0C
0C
0C
0C
0C
0C
0C
0C
0C
0C
0C
0C
0C
0C
0C
ENDCHAR
STARTCHAR 0032
ENCODING 50
SWIDTH 555 0
DWIDTH 15 0
BBX 13 20 1 0
BITMAP
0F80
3FE0
7070
6030
C038
C018
C018
0030
0030
0060
00E0
01C0
0380
0700
0E00
1800
3000
6000
FFF8
FFF8
ENDCHAR
STARTCHAR 0033
ENCODING 51
SWIDTH 555 0
DWIDTH 15 0
BBX 13 20 1 0
BITMAP
0F80
1FC0
30E0
6060
6060
0060
0060
00E0
07C0
07C0
0060
0030
0030
0018
C018
C030
E030
7060
3FC0
0F80
ENDCHAR
STARTCHAR 0034
ENCODING 52
SWIDTH 555 0
DWIDTH 15 0
BBX 14 20 0 0
BITMAP
0030
0070
00F0
00F0
01B0
03B0
0330
0630
0C30
0C30
1830
3030
7030
6030
FFFC
FFFC
0030
0030
0030
0030
ENDCHAR
STARTCHAR 0035
ENCODING 53
SWIDTH 555 0
DWIDTH 15 0
BBX 13 20 1 0
BITMAP
3FF0
3FF0
3000
3000
3000
2000
6780
7FE0
7070
6030
0018
0018
0018
C018
C018
C018
6030
7070
3FE0
0F80
ENDCHAR
STARTCHAR 0036
ENCODING 54
SWIDTH 555 0
DWIDTH 15 0
BBX 13 20 1 0
BITMAP
0180
0300
0700
0600
0C00
1800
1F80
3FE0
7070
6030
C018
C018
C018
C018
C018
C018
E030
7070
3FE0
0F80
ENDCHAR
STARTCHAR 0037
ENCODING 55
SWIDTH 555 0
DWIDTH 15 0
BBX 11 20 2 0
BITMAP
FFE0
FFE0
0060
00C0
00C0
00C0
0180
0180
0300
0300
0600
0600
0C00
0C00
1C00
1800
1800
3000
3000
6000
ENDCHAR
STARTCHAR 0038
ENCODING 56
SWIDTH 555 0
DWIDTH 15 0
BBX 13 20 1 0
BITMAP
0F80
1FC0
3060
6070
6030
6030
7070
38E0
1FC0
3FE0
7070
6030
C018
C018
C018
C018
6030
7070
3FE0
0F80
ENDCHAR
STARTCHAR 0039
ENCODING 57
SWIDTH 555 0
DWIDTH 15 0
BBX 13 20 1 0
BITMAP
0F80
3FE0
7070
6038
C018
C018
C018
C018
C018
C018
6030
7070
3FE0
0FC0
01C0
0180
0300
0700
0600
0C00
ENDCHAR
STARTCHAR 003A
ENCODING 58
SWIDTH 259 0
DWIDTH 7 0
BBX 2 13 3 0
BITMAP
C0
C0
C0
00
00
00
00
00
00
00
C0
C0
C0
ENDCHAR
STARTCHAR 003B
ENCODING 59
SWIDTH 259 0
DWIDTH 7 0
BBX 4 15 1 -2
BITMAP
30
30
30
00
00
00
00
00
00
00
30
30
60
60
C0
ENDCHAR
STARTCHAR 003C
ENCODING 60
SWIDTH 740 0
DWIDTH 20 0
BBX 16 19 2 -3
BITMAP
0003
000F
003E
0078
01E0
0780
1E00
3C00
F000
E000
7800
3C00
0F00
03C0
00F0
003C
001E
0007
0001
ENDCHAR
STARTCHAR 003D
ENCODING 61
SWIDTH 703 0
DWIDTH 19 0
BBX 15 8 2 3
BITMAP
FFFE
FFFE
0000
0000
0000
0000
FFFE
FFFE
ENDCHAR
STARTCHAR 003E
ENCODING 62
SWIDTH 740 0
DWIDTH 20 0
BBX 16 19 2 -3
BITMAP
C000
E000
7800
1E00
0780
03E0
00F0
003C
000F
0007
001E
0078
01F0
03C0
0F00
3C00
F000
E000
8000
ENDCHAR
STARTCHAR 003F
ENCODING 63
SWIDTH 592 0
DWIDTH 16 0
BBX 12 20 2 0
BITMAP
1F80
3FC0
60E0
C030
C030
C030
C030
0030
0060
00E0
0180
0300
0300
0600
0600
0000
0000
0600
0600
0600
ENDCHAR
STARTCHAR 0040
ENCODING 64
SWIDTH 851 0
DWIDTH 23 0
BBX 20 20 2 0
BITMAP
01F800
079F00
1C0180
3000C0
20F860
61DA20
430E20
C60620
860C30
8C0C20
8C0C20
8C1860
CC1840
4C38C0
67FB80
23DE00
300080
1C0180
078F00
01F800
ENDCHAR
STARTCHAR 0041
ENCODING 65
SWIDTH 740 0
DWIDTH 20 0
BBX 18 20 1 0
BITMAP
00C000
01E000
01E000
033000
033000
073000
061800
061800
0C0C00
0C0C00
180E00
1FFE00
3FFE00
300300
300300
600180
600180
C001C0
C000C0
C000C0
ENDCHAR
STARTCHAR 0042
ENCODING 66
SWIDTH 592 0
DWIDTH 16 0
BBX 13 20 2 0
BITMAP
FF00
FFC0
C0E0
C060
C070
C030
C060
C060
C0E0
FFC0
FFE0
C070
C030
C018
C018
C018
C030
C070
FFE0
FF80
ENDCHAR
STARTCHAR 0043
ENCODING 67
SWIDTH 814 0
DWIDTH 22 0
BBX 20 20 1 0
BITMAP
01FC00
07FF00
1E03C0
3800E0
300060
600000
600000
E00000
C00000
C00000
C00000
C00000
600000
600000
700030
380060
1C00C0
0E0380
07FF00
01FC00
ENDCHAR
STARTCHAR 0044
ENCODING 68
SWIDTH 740 0
DWIDTH 20 0
BBX 17 20 2 0
BITMAP
FFC000
FFF000
C03C00
C00E00
C00600
C00300
C00300
C00180
C00180
C00180
C00180
C00180
C00180
C00300
C00300
C00600
C00E00
C03C00
FFF000
FFC000
ENDCHAR
STARTCHAR 0045
ENCODING 69
SWIDTH 518 0
DWIDTH 14 0
BBX 11 20 2 0
BITMAP
FFE0
FFE0
C000
C000
C000
C000
C000
C000
C000
FFE0
FFE0
C000
C000
C000
C000
C000
C000
C000
FFE0
FFE0
ENDCHAR
STARTCHAR 0046
ENCODING 70
SWIDTH 481 0
DWIDTH 13 0
BBX 10 20 2 0
BITMAP
FFC0
FFC0
C000
C000
C000
C000
C000
C000
C000
FFC0
FFC0
C000
C000
C000
C000
C000
C000
C000
C000
C000
ENDCHAR
STARTCHAR 0047
ENCODING 71
SWIDTH 888 0
DWIDTH 24 0
BBX 21 20 1 0
BITMAP
00FC00
07FF80
0E03C0
1C00E0
300070
700030
600000
600000
C00000
C00000
C00000
C0FFF8
E0FFF8
600018
700030
300030
1C00E0
0E01C0
07FF80
00FC00
ENDCHAR
STARTCHAR 0048
ENCODING 72
SWIDTH 666 0
DWIDTH 18 0
BBX 14 20 2 0
BITMAP
C00C
C00C
C00C
C00C
C00C
C00C
C00C
C00C
C00C
FFFC
FFFC
C00C
C00C
C00C
C00C
C00C
C00C
C00C
C00C
C00C
ENDCHAR
STARTCHAR 0049
ENCODING 73
SWIDTH 222 0
DWIDTH 6 0
BBX 2 20 2 0
BITMAP
C0
C0
C0
C0
C0
C0
C0
C0
C0
C0
C0
C0
C0
C0
C0
C0
C0
C0
C0
C0
ENDCHAR
STARTCHAR 004A
ENCODING 74
SWIDTH 481 0
DWIDTH 13 0
BBX 11 20 0 0
BITMAP
0060
0060
0060
0060
0060
0060
0060
0060
0060
0060
0060
0060
0060
0060
0060
C060
60E0
70C0
3F80
1F00
ENDCHAR
STARTCHAR 004B
ENCODING 75
SWIDTH 592 0
DWIDTH 16 0
BBX 13 20 2 0
BITMAP
C018
C038
C070
C0E0
C0C0
C180
C380
C700
CE00
CC00
DC00
F600
F300
E380
C1C0
C0C0
C060
C070
C038
C018
ENDCHAR
STARTCHAR 004C
ENCODING 76
SWIDTH 444 0
DWIDTH 12 0
BBX 10 20 2 0
BITMAP
C000
C000
C000
C000
C000
C000
C000
C000
C000
C000
C000
C000
C000
C000
C000
C000
C000
C000
FFC0
FFC0
ENDCHAR
STARTCHAR 004D
ENCODING 77
SWIDTH 925 0
DWIDTH 25 0
BBX 21 20 2 0
BITMAP
E00078
F00078
F00078
D800D8
D800D8
D80198
CC0198
CC0398
C60318
C60318
C30618
C30618
C30C18
C18C18
C19C18
C0D818
C0D818
C0F018
C07018
C06018
ENDCHAR
STARTCHAR 004E
ENCODING 78
SWIDTH 740 0
DWIDTH 20 0
BBX 16 20 2 0
BITMAP
E003
F003
F003
D803
DC03
CC03
C603
C703
C303
C183
C1C3
C0E3
C063
C033
C03B
C01B
C00F
C00F
C007
C003
ENDCHAR
STARTCHAR 004F
ENCODING 79
SWIDTH 851 0
DWIDTH 23 0
BBX 21 20 1 0
BITMAP
00FC00
07FF00
0E03C0
1C00E0
300070
700030
600038
600018
C00018
C00018
C00018
C00018
600018
600038
700030
380070
1C00E0
0E03C0
07FF00
01FC00
ENDCHAR
STARTCHAR 0050
ENCODING 80
SWIDTH 592 0
DWIDTH 16 0
BBX 13 20 2 0
BITMAP
FFC0
FFF0
C030
C018
C018
C018
C018
C018
C018
C070
FFE0
FF80
C000
C000
C000
C000
C000
C000
C000
C000
ENDCHAR
STARTCHAR 0051
ENCODING 81
SWIDTH 888 0
DWIDTH 24 0
BBX 22 20 1 0
BITMAP
00FE00
07FF80
0E03C0
1C00E0
380070
700038
600018
600018
C0001C
C0000C
C0000C
C0000C
DFE018
7FF818
601E38
300730
1C03E0
0F01E0
07FFF8
01FC18
ENDCHAR
STARTCHAR 0052
ENCODING 82
SWIDTH 592 0
DWIDTH 16 0
BBX 14 20 2 0
BITMAP
FF80
FFE0
C070
C018
C018
C01C
C00C
C01C
C018
C018
C070
CFE0
C700
C300
C180
C1C0
C0E0
C060
C030
C038
ENDCHAR
STARTCHAR 0053
ENCODING 83
SWIDTH 481 0
DWIDTH 13 0
BBX 12 20 1 0
BITMAP
1F00
3FC0
70E0
6060
C060
C000
E000
7000
3C00
1F80
03C0
00E0
0070
0030
C030
C030
E060
70E0
3FC0
1F00
ENDCHAR
STARTCHAR 0054
ENCODING 84
SWIDTH 444 0
DWIDTH 12 0
BBX 11 20 0 0
BITMAP
FFE0
FFE0
0600
0600
0600
0600
0600
0600
0600
0600
0600
0600
0600
0600
0600
0600
0600
0600
0600
0600
ENDCHAR
STARTCHAR 0055
ENCODING 85
SWIDTH 666 0
DWIDTH 18 0
BBX 14 20 2 0
BITMAP
C00C
C00C
C00C
C00C
C00C
C00C
C00C
C00C
C00C
C00C
C00C
C00C
C00C
C00C
C018
E018
6018
7030
3FE0
0FC0
ENDCHAR
STARTCHAR 0056
ENCODING 86
SWIDTH 703 0
DWIDTH 19 0
BBX 18 20 0 0
BITMAP
E000C0
6000C0
6000C0
300180
300180
180300
180300
180700
0C0600
0C0600
060C00
060C00
061C00
031800
031800
01B000
01B000
01E000
00E000
00E000
ENDCHAR
STARTCHAR 0057
ENCODING 87
SWIDTH 962 0
DWIDTH 26 0
BBX 25 20 0 0
BITMAP
C00C0180
600C0180
601E0180
601E0180
301E0300
30360300
30330300
30330600
18330600
18638600
18618600
0C618C00
0C618C00
0CC0CC00
0CC0D800
06C0D800
0780D800
07807800
03807000
03807000
ENDCHAR
STARTCHAR 0058
ENCODING 88
SWIDTH 592 0
DWIDTH 16 0
BBX 15 20 1 0
BITMAP
C00C
601C
7018
3038
1830
1C60
0CE0
0EC0
0780
0380
0780
07C0
0EC0
0C60
1870
3830
3018
601C
E00C
C006
ENDCHAR
STARTCHAR 0059
ENCODING 89
SWIDTH 592 0
DWIDTH 16 0
BBX 16 20 0 0
BITMAP
E007
6006
700E
300C
381C
1818
1C38
0C30
0E60
0660
07C0
03C0
0180
0180
0180
0180
0180
0180
0180
0180
ENDCHAR
STARTCHAR 005A
ENCODING 90
SWIDTH 481 0
DWIDTH 13 0
BBX 13 20 0 0
BITMAP
7FF0
7FF0
0030
0060
0060
00C0
01C0
0180
0380
0300
0600
0E00
0C00
1C00
1800
3000
7000
6000
FFF8
FFF8
ENDCHAR
STARTCHAR 005B
ENCODING 91
SWIDTH 333 0
DWIDTH 9 0
BBX 6 26 2 -6
BITMAP
FC
FC
C0
C0
C0
C0
C0
C0
C0
C0
C0
C0
C0
C0
C0
C0
C0
C0
C0
C0
C0
C0
C0
C0
FC
FC
ENDCHAR
STARTCHAR 005C
ENCODING 92
SWIDTH 518 0
DWIDTH 14 0
BBX 10 22 2 -4
BITMAP
C000
E000
6000
6000
3000
3000
3000
1800
1800
1800
0C00
0C00
0C00
0600
0600
0600
0300
0300
0300
0180
0180
01C0
ENDCHAR
STARTCHAR 005D
ENCODING 93
SWIDTH 333 0
DWIDTH 9 0
BBX 6 26 1 -6
BITMAP
FC
FC
0C
0C
0C
0C
0C
0C
0C
0C
0C
0C
0C
0C
0C
0C
0C
0C
0C
0C
0C
0C
0C
0C
FC
FC
ENDCHAR
STARTCHAR 005E
ENCODING 94
SWIDTH 592 0
DWIDTH 16 0
BBX 15 15 1 5
BITMAP
0380
0780
0780
06C0
0CC0
0C60
1860
1870
3030
3030
7018
6018
600C
C00C
C00E
ENDCHAR
STARTCHAR 005F
ENCODING 95
SWIDTH 518 0
DWIDTH 14 0
BBX 13 2 0 -4
BITMAP
FFF8
FFF8
ENDCHAR
STARTCHAR 0060
ENCODING 96
SWIDTH 370 0
DWIDTH 10 0
BBX 6 4 1 17
BITMAP
E0
70
1C
08
ENDCHAR
STARTCHAR 0061
ENCODING 97
SWIDTH 666 0
DWIDTH 18 0
BBX 16 15 1 0
BITMAP
07E3
1FFB
381F
700F
6007
E007
C003
C003
C003
E007
6007
700F
381B
1FF3
07E3
ENDCHAR
STARTCHAR 0062
ENCODING 98
SWIDTH 666 0
DWIDTH 18 0
BBX 15 20 2 0
BITMAP
C000
C000
C000
C000
C000
C7C0
DFF0
F838
E00C
C00E
C006
C006
C006
C006
C006
E00E
E00C
F838
DFF0
C7C0
ENDCHAR
STARTCHAR 0063
ENCODING 99
SWIDTH 629 0
DWIDTH 17 0
BBX 15 15 1 0
BITMAP
07E0
1FF8
381C
700E
6006
E000
C000
C000
C000
E000
6006
700E
381C
1FF8
07E0
ENDCHAR
STARTCHAR 0064
ENCODING 100
SWIDTH 703 0
DWIDTH 19 0
BBX 16 20 1 0
BITMAP
0003
0003
0003
0003
0003
07E3
1FFB
381F
700F
6007
E007
C003
C003
C003
E003
6007
700F
381B
1FF3
07E3
ENDCHAR
STARTCHAR 0065
ENCODING 101
SWIDTH 666 0
DWIDTH 18 0
BBX 15 15 1 0
BITMAP
07E0
1FF8
381C
700C
6006
C006
FFFE
FFFE
C000
C000
6006
700C
3818
1FF0
07C0
ENDCHAR
STARTCHAR 0066
ENCODING 102
SWIDTH 296 0
DWIDTH 8 0
BBX 8 20 0 0
BITMAP
03
0F
1C
18
18
FF
FF
18
18
18
18
18
18
18
18
18
18
18
18
18
ENDCHAR
STARTCHAR 0067
ENCODING 103
SWIDTH 666 0
DWIDTH 18 0
BBX 15 21 1 -6
BITMAP
07E6
1FF6
383E
700E
6006
C006
C006
C006
C006
E006
6006
700E
381E
1FF6
07C6
6006
6006
300C
3C1C
1FF8
03E0
ENDCHAR
STARTCHAR 0068
ENCODING 104
SWIDTH 592 0
DWIDTH 16 0
BBX 13 20 2 0
BITMAP
C000
C000
C000
C000
C000
CF80
FFE0
F070
E030
C030
C018
C018
C018
C018
C018
C018
C018
C018
C018
C018
ENDCHAR
STARTCHAR 0069
ENCODING 105
SWIDTH 185 0
DWIDTH 5 0
BBX 2 20 2 0
BITMAP
C0
C0
C0
00
00
C0
C0
C0
C0
C0
C0
C0
C0
C0
C0
C0
C0
C0
C0
C0
ENDCHAR
STARTCHAR 006A
ENCODING 106
SWIDTH 185 0
DWIDTH 5 0
BBX 5 25 -1 -5
BITMAP
18
18
18
00
00
18
18
18
18
18
18
18
18
18
18
18
18
18
18
18
18
30
30
E0
C0
ENDCHAR
STARTCHAR 006B
ENCODING 107
SWIDTH 518 0
DWIDTH 14 0
BBX 11 20 2 0
BITMAP
C000
C000
C000
C000
C000
C0E0
C1C0
C180
C300
C700
CE00
CC00
D800
FC00
FE00
E700
C380
C180
C0C0
C0E0
ENDCHAR
STARTCHAR 006C
ENCODING 108
SWIDTH 185 0
DWIDTH 5 0
BBX 2 20 2 0
BITMAP
C0
C0
C0
C0
C0
C0
C0
C0
C0
C0
C0
C0
C0
C0
C0
C0
C0
C0
C0
C0
ENDCHAR
STARTCHAR 006D
ENCODING 109
SWIDTH 925 0
DWIDTH 25 0
BBX 22 15 2 0
BITMAP
DF07C0
FFCFF0
E0F838
C07018
C07018
C0300C
C0300C
C0300C
C0300C
C0300C
C0300C
C0300C
C0300C
C0300C
C0300C
ENDCHAR
STARTCHAR 006E
ENCODING 110
SWIDTH 592 0
DWIDTH 16 0
BBX 13 15 2 0
BITMAP
CF80
FFE0
F070
E030
C030
C018
C018
C018
C018
C018
C018
C018
C018
C018
C018
ENDCHAR
STARTCHAR 006F
ENCODING 111
SWIDTH 666 0
DWIDTH 18 0
BBX 16 15 1 0
BITMAP
07E0
1FF8
381C
700E
6006
E006
C007
C003
C006
E006
6006
700C
381C
1FF8
07E0
ENDCHAR
STARTCHAR 0070
ENCODING 112
SWIDTH 666 0
DWIDTH 18 0
BBX 15 20 2 -5
BITMAP
C7C0
DFF0
F838
E00C
C00E
C006
C006
C006
C006
C006
C00E
E00C
F838
DFF0
C7C0
C000
C000
C000
C000
C000
ENDCHAR
STARTCHAR 0071
ENCODING 113
SWIDTH 666 0
DWIDTH 18 0
BBX 16 20 1 -5
BITMAP
07E3
1FFB
381F
700F
6007
E007
C003
C003
C003
E003
6007
700F
381B
1FF3
07E3
0003
0003
0003
0003
0003
ENDCHAR
STARTCHAR 0072
ENCODING 114
SWIDTH 296 0
DWIDTH 8 0
BBX 6 15 2 0
BITMAP
CC
FC
F0
E0
C0
C0
C0
C0
C0
C0
C0
C0
C0
C0
C0
ENDCHAR
STARTCHAR 0073
ENCODING 115
SWIDTH 370 0
DWIDTH 10 0
BBX 10 15 0 0
BITMAP
1E00
3F80
7180
6180
6000
7000
3C00
0F00
0380
01C0
C0C0
60C0
6180
3F80
1E00
ENDCHAR
STARTCHAR 0074
ENCODING 116
SWIDTH 333 0
DWIDTH 9 0
BBX 9 20 0 0
BITMAP
1C00
1C00
1C00
1C00
1C00
FF80
FF80
1C00
1C00
1C00
1C00
1C00
1C00
1C00
1C00
1C00
1C00
1C00
1C00
1C00
ENDCHAR
STARTCHAR 0075
ENCODING 117
SWIDTH 592 0
DWIDTH 16 0
BBX 13 15 2 0
BITMAP
C018
C018
C018
C018
C018
C018
C018
C018
C018
C018
C038
E038
7078
3FD8
1F18
ENDCHAR
STARTCHAR 0076
ENCODING 118
SWIDTH 555 0
DWIDTH 15 0
BBX 15 15 0 0
BITMAP
C00E
600C
600C
3018
3018
3830
1830
1830
0C60
0C60
06C0
06C0
07C0
0380
0380
ENDCHAR
STARTCHAR 0077
ENCODING 119
SWIDTH 814 0
DWIDTH 22 0
BBX 22 15 0 0
BITMAP
C0000C
60000C
603018
703818
307818
307830
186C30
184C60
18CC60
0CC660
0C86C0
0F86C0
078280
070380
030380
ENDCHAR
STARTCHAR 0078
ENCODING 120
SWIDTH 481 0
DWIDTH 13 0
BBX 11 15 1 0
BITMAP
C060
E0E0
60C0
3180
3B80
1B00
0E00
0E00
0E00
1B00
3380
3180
60C0
C0E0
C060
ENDCHAR
STARTCHAR 0079
ENCODING 121
SWIDTH 518 0
DWIDTH 14 0
BBX 14 20 0 -5
BITMAP
E00C
601C
6018
3018
3030
3830
1860
1860
0CE0
0CC0
0EC0
0780
0780
0300
0300
0700
0600
0600
0C00
0C00
ENDCHAR
STARTCHAR 007A
ENCODING 122
SWIDTH 407 0
DWIDTH 11 0
BBX 11 15 0 0
BITMAP
7FE0
7FE0
00C0
0180
0380
0300
0600
0E00
0C00
1800
3800
7000
6000
FFE0
FFE0
ENDCHAR
STARTCHAR 007B
ENCODING 123
SWIDTH 370 0
DWIDTH 10 0
BBX 8 26 1 -6
BITMAP
03
0F
1C
18
18
18
18
18
18
18
18
38
F0
F0
38
18
18
18
18
18
18
18
18
1C
0F
07
ENDCHAR
STARTCHAR 007C
ENCODING 124
SWIDTH 222 0
DWIDTH 6 0
BBX 2 22 2 -4
BITMAP
C0
C0
C0
C0
C0
C0
C0
C0
C0
C0
C0
C0
C0
C0
C0
C0
C0
C0
C0
C0
C0
C0
ENDCHAR
STARTCHAR 007D
ENCODING 125
SWIDTH 370 0
DWIDTH 10 0
BBX 8 26 1 -6
BITMAP
C0
F0
38
18
18
18
18
18
18
18
18
1C
0F
0F
1C
18
18
18
18
18
18
18
18
38
F0
C0
ENDCHAR
STARTCHAR 007E
ENCODING 126
SWIDTH 592 0
DWIDTH 16 0
BBX 13 4 2 6
BITMAP
3818
FF38
C7F0
81E0
ENDCHAR
STARTCHAR 00A0
ENCODING 160
SWIDTH 259 0
DWIDTH 7 0
BBX 0 0 0 0
BITMAP
ENDCHAR
STARTCHAR 00A1
ENCODING 161
SWIDTH 296 0
DWIDTH 8 0
BBX 2 20 3 -5
BITMAP
C0
C0
C0
00
00
C0
C0
C0
C0
C0
C0
C0
C0
C0
C0
C0
C0
C0
C0
C0
ENDCHAR
STARTCHAR 00A2
ENCODING 162
SWIDTH 555 0
DWIDTH 15 0
BBX 12 17 1 2
BITMAP
0300
0300
0780
1FE0
3870
6030
6000
C000
C000
C000
E000
6030
7070
3FE0
0F80
0300
0300
ENDCHAR
STARTCHAR 00A3
ENCODING 163
SWIDTH 555 0
DWIDTH 15 0
BBX 16 20 0 0
BITMAP
03E0
0FF8
1C1C
180C
3006
3006
3000
3000
3000
FFF0
FFF0
0600
0300
0303
0303
0303
0307
030E
3FFC
3FF0
ENDCHAR
STARTCHAR 00A4
ENCODING 164
SWIDTH 555 0
DWIDTH 15 0
BBX 13 14 1 1
BITMAP
4F90
FFF8
7070
6030
C018
C018
C018
C018
C018
C018
6030
7070
FFF8
4F90
ENDCHAR
STARTCHAR 00A5
ENCODING 165
SWIDTH 555 0
DWIDTH 15 0
BBX 16 20 0 0
BITMAP
C003
6006
6006
300C
3008
1818
0C30
7C3E
7E7E
0660
03C0
03C0
7FFE
7FFE
0180
0180
0180
0180
0180
0180
ENDCHAR
STARTCHAR 00A6
ENCODING 166
SWIDTH 592 0
DWIDTH 16 0
BBX 2 23 7 -3
BITMAP
C0
C0
C0
C0
C0
C0
C0
C0
C0
00
00
00
00
00
C0
C0
C0
C0
C0
C0
C0
C0
C0
ENDCHAR
STARTCHAR 00A7
ENCODING 167
SWIDTH 629 0
DWIDTH 17 0
BBX 12 24 2 -4
BITMAP
0F80
1FC0
30E0
3060
3000
3000
3800
3E00
6780
41E0
C070
C030
6030
3830
1F30
07E0
01E0
0060
6030
6030
6060
38E0
1FC0
0700
ENDCHAR
STARTCHAR 00A8
ENCODING 168
SWIDTH 370 0
DWIDTH 10 0
BBX 6 3 2 17
BITMAP
CC
CC
CC
ENDCHAR
STARTCHAR 00A9
ENCODING 169
SWIDTH 740 0
DWIDTH 20 0
BBX 19 19 1 0
BITMAP
03F000
0C0C00
100200
200100
41F080
47BC40
8C0640
980040
980020
980020
980020
980040
8C0640
C60C40
43F880
200180
100300
0C0C00
03F000
ENDCHAR
STARTCHAR 00AA
ENCODING 170
SWIDTH 370 0
DWIDTH 10 0
BBX 8 11 1 9
BITMAP
3D
67
C3
81
81
C3
67
7D
00
00
FF
ENDCHAR
STARTCHAR 00AB
ENCODING 171
SWIDTH 407 0
DWIDTH 11 0
BBX 9 10 1 3
BITMAP
1980
3180
7300
6700
C600
E600
6300
3300
3180
1980
ENDCHAR
STARTCHAR 00AC
ENCODING 172
SWIDTH 740 0
DWIDTH 20 0
BBX 16 8 2 0
BITMAP
FFFF
FFFF
0003
0003
0003
0003
0003
0003
ENDCHAR
STARTCHAR 00AD
ENCODING 173
SWIDTH 333 0
DWIDTH 9 0
BBX 7 2 1 6
BITMAP
FE
FE
ENDCHAR
STARTCHAR 00AE
ENCODING 174
SWIDTH 740 0
DWIDTH 20 0
BBX 19 19 1 0
BITMAP
03F000
0C0C00
100300
200100
47E080
447840
841840
840840
840820
843820
84F020
84C040
846040
C43040
441880
200180
100300
0C0C00
03F000
ENDCHAR
STARTCHAR 00AF
ENCODING 175
SWIDTH 481 0
DWIDTH 13 0
BBX 9 2 2 17
BITMAP
FF80
FF80
ENDCHAR
STARTCHAR 00B0
ENCODING 176
SWIDTH 407 0
DWIDTH 11 0
BBX 8 9 1 11
BITMAP
1C
7F
43
C1
C1
41
63
3E
08
ENDCHAR
STARTCHAR 00B1
ENCODING 177
SWIDTH 703 0
DWIDTH 19 0
BBX 15 20 2 -5
BITMAP
0180
0180
0180
0180
0180
0180
0180
FFFE
FFFE
0180
0180
0180
0180
0180
0180
0180
0000
0000
FFFE
FFFE
ENDCHAR
STARTCHAR 00B2
ENCODING 178
SWIDTH 333 0
DWIDTH 9 0
BBX 9 12 0 8
BITMAP
1E00
7F00
6100
4180
0180
0300
0700
0E00
1800
3000
6000
FF80
ENDCHAR
STARTCHAR 00B3
ENCODING 179
SWIDTH 333 0
DWIDTH 9 0
BBX 9 12 0 8
BITMAP
1C00
3E00
6300
0300
0E00
1E00
0300
0180
C180
4100
6300
3E00
ENDCHAR
STARTCHAR 00B4
ENCODING 180
SWIDTH 370 0
DWIDTH 10 0
BBX 6 4 3 17
BITMAP
1C
38
E0
40
ENDCHAR
STARTCHAR 00B5
ENCODING 181
SWIDTH 592 0
DWIDTH 16 0
BBX 13 19 2 -4
BITMAP
C018
C018
C018
C018
C018
C018
C018
C018
C018
C038
E038
E078
F0F8
DFD8
CF18
C000
C000
C000
C000
ENDCHAR
STARTCHAR 00B6
ENCODING 182
SWIDTH 555 0
DWIDTH 15 0
BBX 12 24 1 -4
BITMAP
1FF0
7FF0
7E30
FE30
FE30
FE30
FE30
7E30
7E30
3E30
0630
0630
0630
0630
0630
0630
0630
0630
0630
0630
0630
0630
0630
0630
ENDCHAR
STARTCHAR 00B7
ENCODING 183
SWIDTH 222 0
DWIDTH 6 0
BBX 2 3 2 5
BITMAP
C0
C0
C0
ENDCHAR
STARTCHAR 00B8
ENCODING 184
SWIDTH 333 0
DWIDTH 9 0
BBX 6 6 2 -7
BITMAP
20
78
78
0C
CC
78
ENDCHAR
STARTCHAR 00B9
ENCODING 185
SWIDTH 333 0
DWIDTH 9 0
BBX 3 12 3 8
BITMAP
E0
20
20
20
20
20
20
20
20
20
20
20
ENDCHAR
STARTCHAR 00BA
ENCODING 186
SWIDTH 370 0
DWIDTH 10 0
BBX 8 11 1 9
BITMAP
3C
66
C3
81
81
C3
66
3C
00
00
FF
ENDCHAR
STARTCHAR 00BB
ENCODING 187
SWIDTH 407 0
DWIDTH 11 0
BBX 9 10 1 3
BITMAP
C600
6600
6300
3380
3980
3180
3300
6300
6600
C600
ENDCHAR
STARTCHAR 00BC
ENCODING 188
SWIDTH 814 0
DWIDTH 22 0
BBX 19 20 3 0
BITMAP
E00800
201800
201000
203000
202000
206000
204000
20C000
2081C0
2081C0
2183C0
2106C0
0304C0
020CC0
0618C0
0430C0
0C30C0
083FE0
1800C0
1000C0
ENDCHAR
STARTCHAR 00BD
ENCODING 189
SWIDTH 814 0
DWIDTH 22 0
BBX 19 20 3 0
BITMAP
E00800
201800
201000
203000
202000
206000
204000
20C000
208FC0
2198E0
211860
231060
020060
0200C0
060180
040300
0C0600
080C00
181800
101FE0
ENDCHAR
STARTCHAR 00BE
ENCODING 190
SWIDTH 814 0
DWIDTH 22 0
BBX 22 20 0 0
BITMAP
1C0180
3E0100
630300
030300
0E0200
1E0600
030400
018C00
C18838
411838
631078
3E30D8
002098
006198
004318
004618
00C618
0087FC
018018
010018
ENDCHAR
STARTCHAR 00BF
ENCODING 191
SWIDTH 592 0
DWIDTH 16 0
BBX 12 21 2 -6
BITMAP
0600
0600
0600
0000
0000
0600
0600
0E00
0C00
1800
3800
7000
E000
C000
C030
C030
C030
E070
70E0
3FC0
0F00
ENDCHAR
STARTCHAR 00C0
ENCODING 192
SWIDTH 740 0
DWIDTH 20 0
BBX 18 25 1 1
BITMAP
070000
038000
00E000
004000
000000
00C000
01E000
01E000
033000
033000
073000
061800
061800
0C0C00
0C0C00
180E00
1FFE00
3FFE00
300300
300300
600180
600180
C001C0
C000C0
C000C0
ENDCHAR
STARTCHAR 00C1
ENCODING 193
SWIDTH 740 0
DWIDTH 20 0
BBX 18 25 1 1
BITMAP
003800
007000
01C000
008000
000000
00C000
01E000
01E000
033000
033000
073000
061800
061800
0C0C00
0C0C00
180E00
1FFE00
3FFE00
300300
300300
600180
600180
C001C0
C000C0
C000C0
ENDCHAR
STARTCHAR 00C2
ENCODING 194
SWIDTH 740 0
DWIDTH 20 0
BBX 18 25 1 0
BITMAP
00C000
01E000
033000
0E1C00
000000
00C000
01E000
01E000
033000
033000
073000
061800
061800
0C0C00
0C0C00
180E00
1FFE00
3FFE00
300300
300300
600180
600180
C001C0
C000C0
C000C0
ENDCHAR
STARTCHAR 00C3
ENCODING 195
SWIDTH 740 0
DWIDTH 20 0
BBX 18 25 1 0
BITMAP
010000
079000
067800
002000
000000
00C000
01E000
01E000
033000
033000
073000
061800
061800
0C0C00
0C0C00
180E00
1FFE00
3FFE00
300300
300300
600180
600180
C001C0
C000C0
C000C0
ENDCHAR
STARTCHAR 00C4
ENCODING 196
SWIDTH 740 0
DWIDTH 20 0
BBX 18 25 1 0
BITMAP
033000
033000
033000
000000
000000
00C000
01E000
01E000
033000
033000
073000
061800
061800
0C0C00
0C0C00
180E00
1FFE00
3FFE00
300300
300300
600180
600180
C001C0
C000C0
C000C0
ENDCHAR
STARTCHAR 00C5
ENCODING 197
SWIDTH 740 0
DWIDTH 20 0
BBX 18 27 1 0
BITMAP
00E000
012000
033000
033000
012000
01E000
000000
00C000
01E000
01E000
033000
033000
073000
061800
061800
0C0C00
0C0C00
180E00
1FFE00
3FFE00
300300
300300
600180
600180
C001C0
C000C0
C000C0
ENDCHAR
STARTCHAR 00C6
ENCODING 198
SWIDTH 1000 0
DWIDTH 27 0
BBX 24 20 1 0
BITMAP
0007FF
000FFF
001F00
001B00
003300
007300
006300
00E300
01C300
0183FF
0383FF
070300
0FFF00
0FFF00
1C0300
380300
300300
700300
E003FF
C003FF
ENDCHAR
STARTCHAR 00C7
ENCODING 199
SWIDTH 814 0
DWIDTH 22 0
BBX 19 26 1 -7
BITMAP
01FC00
07FF00
1E03C0
3800E0
300060
600000
600000
E00000
C00000
C00000
C00000
C00000
600000
600000
700000
300060
3800E0
1E03C0
07FF00
01FE00
002000
007800
007C00
000C00
00CC00
007800
ENDCHAR
STARTCHAR 00C8
ENCODING 200
SWIDTH 518 0
DWIDTH 14 0
BBX 11 26 2 0
BITMAP
2000
3000
3C00
0F00
0200
0000
FFE0
FFE0
C000
C000
C000
C000
C000
C000
C000
FFE0
FFE0
C000
C000
C000
C000
C000
C000
C000
FFE0
FFE0
ENDCHAR
STARTCHAR 00C9
ENCODING 201
SWIDTH 518 0
DWIDTH 14 0
BBX 11 26 2 0
BITMAP
0080
0180
0780
1E00
0800
0000
FFE0
FFE0
C000
C000
C000
C000
C000
C000
C000
FFE0
FFE0
C000
C000
C000
C000
C000
C000
C000
FFE0
FFE0
ENDCHAR
STARTCHAR 00CA
ENCODING 202
SWIDTH 518 0
DWIDTH 14 0
BBX 11 25 2 0
BITMAP
0E00
1F00
3980
60C0
0000
FFE0
FFE0
C000
C000
C000
C000
C000
C000
C000
FFE0
FFE0
C000
C000
C000
C000
C000
C000
C000
FFE0
FFE0
ENDCHAR
STARTCHAR 00CB
ENCODING 203
SWIDTH 518 0
DWIDTH 14 0
BBX 11 25 2 0
BITMAP
3B00
3B00
3B00
0000
0000
FFE0
FFE0
C000
C000
C000
C000
C000
C000
C000
FFE0
FFE0
C000
C000
C000
C000
C000
C000
C000
FFE0
FFE0
ENDCHAR
STARTCHAR 00CC
ENCODING 204
SWIDTH 222 0
DWIDTH 6 0
BBX 6 25 -1 1
BITMAP
E0
70
3C
08
00
18
18
18
18
18
18
18
18
18
18
18
18
18
18
18
18
18
18
18
18
ENDCHAR
STARTCHAR 00CD
ENCODING 205
SWIDTH 222 0
DWIDTH 6 0
BBX 6 25 1 1
BITMAP
1C
38
F0
40
00
60
60
60
60
60
60
60
60
60
60
60
60
60
60
60
60
60
60
60
60
ENDCHAR
STARTCHAR 00CE
ENCODING 206
SWIDTH 222 0
DWIDTH 6 0
BBX 10 25 -2 0
BITMAP
0C00
1E00
3380
E1C0
0000
0C00
0C00
0C00
0C00
0C00
0C00
0C00
0C00
0C00
0C00
0C00
0C00
0C00
0C00
0C00
0C00
0C00
0C00
0C00
0C00
ENDCHAR
STARTCHAR 00CF
ENCODING 207
SWIDTH 222 0
DWIDTH 6 0
BBX 6 25 0 0
BITMAP
CC
CC
CC
00
00
30
30
30
30
30
30
30
30
30
30
30
30
30
30
30
30
30
30
30
30
ENDCHAR
STARTCHAR 00D0
ENCODING 208
SWIDTH 777 0
DWIDTH 21 0
BBX 19 20 1 0
BITMAP
3FF000
3FFC00
300F00
300380
3001C0
3000C0
3000E0
300060
300060
FFC060
FFC060
300060
300060
3000E0
3000C0
3001C0
300380
300F00
3FFC00
3FF000
ENDCHAR
STARTCHAR 00D1
ENCODING 209
SWIDTH 740 0
DWIDTH 20 0
BBX 16 25 2 0
BITMAP
0200
0F20
0CF0
0040
0000
E003
F003
F003
D803
DC03
CC03
C603
C703
C303
C183
C1C3
C0E3
C063
C033
C03B
C01B
C00F
C00F
C007
C003
ENDCHAR
STARTCHAR 00D2
ENCODING 210
SWIDTH 851 0
DWIDTH 23 0
BBX 21 25 1 0
BITMAP
018000
01E000
007000
003000
000000
00FC00
07FF00
0E03C0
1C00E0
300070
700030
600038
600018
C00018
C00018
C00018
C00018
600018
600038
700030
380070
1C00E0
0E03C0
07FF00
01FC00
ENDCHAR
STARTCHAR 00D3
ENCODING 211
SWIDTH 851 0
DWIDTH 23 0
BBX 21 25 1 0
BITMAP
000400
001C00
007800
006000
000000
00FC00
07FF00
0E03C0
1C00E0
300070
700030
600038
600018
C00018
C00018
C00018
C00018
600018
600038
700030
380070
1C00E0
0E03C0
07FF00
01FC00
ENDCHAR
STARTCHAR 00D4
ENCODING 212
SWIDTH 851 0
DWIDTH 23 0
BBX 21 24 1 0
BITMAP
007800
00DC00
018E00
000000
00FC00
07FF00
0E03C0
1C00E0
300070
700030
600038
600018
C00018
C00018
C00018
C00018
600018
600038
700030
380070
1C00E0
0E03C0
07FF00
01FC00
ENDCHAR
STARTCHAR 00D5
ENCODING 213
SWIDTH 851 0
DWIDTH 23 0
BBX 21 24 1 0
BITMAP
00E400
01FC00
000800
000000
00FC00
07FF00
0E03C0
1C00E0
300070
700030
600038
600018
C00018
C00018
C00018
C00018
600018
600038
700030
380070
1C00E0
0E03C0
07FF00
01FC00
ENDCHAR
STARTCHAR 00D6
ENCODING 214
SWIDTH 851 0
DWIDTH 23 0
BBX 21 24 1 0
BITMAP
00CC00
00CC00
00CC00
000000
00FC00
07FF00
0E03C0
1C00E0
300070
700030
600038
600018
C00018
C00018
C00018
C00018
600018
600038
700030
380070
1C00E0
0E03C0
07FF00
01FC00
ENDCHAR
STARTCHAR 00D7
ENCODING 215
SWIDTH 592 0
DWIDTH 16 0
BBX 12 12 2 1
BITMAP
4000
E030
7060
38C0
1D80
0F00
0700
0F80
19C0
30E0
6070
4030
ENDCHAR
STARTCHAR 00D8
ENCODING 216
SWIDTH 851 0
DWIDTH 23 0
BBX 21 24 1 -2
BITMAP
000020
000030
01FC60
07FFC0
0E03C0
1C01E0
300370
700630
600E38
600C18
C01818
C03018
C07018
C0E018
60C018
618038
730030
370070
1E00E0
0E03C0
1FFF00
39FC00
700000
200000
ENDCHAR
STARTCHAR 00D9
ENCODING 217
SWIDTH 666 0
DWIDTH 18 0
BBX 14 25 2 1
BITMAP
1C00
0E00
0780
0100
0000
C00C
C00C
C00C
C00C
C00C
C00C
C00C
C00C
C00C
C00C
C00C
C00C
C00C
C00C
C018
E018
6018
7030
3FE0
0FC0
ENDCHAR
STARTCHAR 00DA
ENCODING 218
SWIDTH 666 0
DWIDTH 18 0
BBX 14 25 2 1
BITMAP
00E0
03C0
0700
0600
0000
C00C
C00C
C00C
C00C
C00C
C00C
C00C
C00C
C00C
C00C
C00C
C00C
C00C
C00C
C018
E018
6018
7030
3FE0
0FC0
ENDCHAR
STARTCHAR 00DB
ENCODING 219
SWIDTH 666 0
DWIDTH 18 0
BBX 14 25 2 0
BITMAP
0300
0780
1CC0
3860
0000
C00C
C00C
C00C
C00C
C00C
C00C
C00C
C00C
C00C
C00C
C00C
C00C
C00C
C00C
C018
E018
6018
7030
3FE0
0FC0
ENDCHAR
STARTCHAR 00DC
ENCODING 220
SWIDTH 666 0
DWIDTH 18 0
BBX 14 25 2 0
BITMAP
0CC0
0CC0
0CC0
0000
0000
C00C
C00C
C00C
C00C
C00C
C00C
C00C
C00C
C00C
C00C
C00C
C00C
C00C
C00C
C018
E018
6018
7030
3FE0
0FC0
ENDCHAR
STARTCHAR 00DD
ENCODING 221
SWIDTH 592 0
DWIDTH 16 0
BBX 16 25 0 1
BITMAP
0070
00E0
0380
0300
0000
E007
6006
700E
300C
381C
1818
1C38
0C30
0E60
0660
07C0
03C0
0180
0180
0180
0180
0180
0180
0180
0180
ENDCHAR
STARTCHAR 00DE
ENCODING 222
SWIDTH 592 0
DWIDTH 16 0
BBX 13 20 2 0
BITMAP
C000
C000
C000
C000
FFC0
FFF0
C030
C018
C018
C018
C018
C018
C018
C070
FFE0
FF80
C000
C000
C000
C000
ENDCHAR
STARTCHAR 00DF
ENCODING 223
SWIDTH 555 0
DWIDTH 15 0
BBX 12 20 2 0
BITMAP
1F00
7F80
61C0
C0C0
C060
C060
C060
C0C0
C1C0
CF80
CFC0
C0E0
C030
C030
E030
E030
F030
F860
DFC0
CF80
ENDCHAR
STARTCHAR 00E0
ENCODING 224
SWIDTH 666 0
DWIDTH 18 0
BBX 16 20 1 1
BITMAP
0C00
0700
03C0
0080
0000
07E3
1FFB
381F
700F
6007
E007
C003
C003
C003
E007
6007
700F
381B
1FF3
07E3
ENDCHAR
STARTCHAR 00E1
ENCODING 225
SWIDTH 666 0
DWIDTH 18 0
BBX 16 20 1 1
BITMAP
0070
00E0
0380
0300
0000
07E3
1FFB
381F
700F
6007
E007
C003
C003
C003
E007
6007
700F
381B
1FF3
07E3
ENDCHAR
STARTCHAR 00E2
ENCODING 226
SWIDTH 666 0
DWIDTH 18 0
BBX 16 20 1 0
BITMAP
0180
03C0
0660
1C30
0000
07E3
1FFB
381F
700F
6007
E007
C003
C003
C003
E007
6007
700F
381B
1FF3
07E3
ENDCHAR
STARTCHAR 00E3
ENCODING 227
SWIDTH 666 0
DWIDTH 18 0
BBX 16 20 1 0
BITMAP
0200
0F20
08F0
0040
0000
07E3
1FFB
381F
700F
6007
E007
C003
C003
C003
E007
6007
700F
381B
1FF3
07E3
ENDCHAR
STARTCHAR 00E4
ENCODING 228
SWIDTH 666 0
DWIDTH 18 0
BBX 16 19 1 0
BITMAP
0660
0660
0660
0000
07E3
1FFB
381F
700F
6007
E007
C003
C003
C003
E007
6007
700F
381B
1FF3
07E3
ENDCHAR
STARTCHAR 00E5
ENCODING 229
SWIDTH 666 0
DWIDTH 18 0
BBX 16 22 1 0
BITMAP
03C0
0240
0460
0460
0640
0380
0000
07E3
1FFB
381F
700F
6007
E007
C003
C003
C003
E007
6007
700F
381B
1FF3
07E3
ENDCHAR
STARTCHAR 00E6
ENCODING 230
SWIDTH 1148 0
DWIDTH 31 0
BBX 29 15 1 0
BITMAP
07E31F80
1FFB7FC0
381FE0E0
700F8030
60078018
E0030018
C003FFF8
C003FFF8
C0030000
E0070000
60078038
700FC030
381FE0E0
1FF37FC0
07E31F00
ENDCHAR
STARTCHAR 00E7
ENCODING 231
SWIDTH 629 0
DWIDTH 17 0
BBX 15 21 1 -7
BITMAP
07E0
1FF8
381C
700E
6006
E000
C000
C000
C000
E000
6000
700E
381C
1FF8
07F0
0180
01C0
03E0
0030
0320
01E0
ENDCHAR
STARTCHAR 00E8
ENCODING 232
SWIDTH 666 0
DWIDTH 18 0
BBX 15 20 1 1
BITMAP
0C00
0700
03C0
0080
0000
07E0
1FF8
381C
700C
6006
C006
FFFE
FFFE
C000
C000
6006
700C
3818
1FF0
07C0
ENDCHAR
STARTCHAR 00E9
ENCODING 233
SWIDTH 666 0
DWIDTH 18 0
BBX 15 20 1 1
BITMAP
0070
00E0
0380
0300
0000
07E0
1FF8
381C
700C
6006
C006
FFFE
FFFE
C000
C000
6006
700C
3818
1FF0
07C0
ENDCHAR
STARTCHAR 00EA
ENCODING 234
SWIDTH 666 0
DWIDTH 18 0
BBX 15 20 1 0
BITMAP
0180
03C0
0E60
1C30
0000
07E0
1FF8
381C
700C
6006
C006
FFFE
FFFE
C000
C000
6006
700C
3818
1FF0
07C0
ENDCHAR
STARTCHAR 00EB
ENCODING 235
SWIDTH 666 0
DWIDTH 18 0
BBX 15 19 1 0
BITMAP
0660
0660
0660
0000
07E0
1FF8
381C
700C
6006
C006
FFFE
FFFE
C000
C000
6006
700C
3818
1FF0
07C0
ENDCHAR
STARTCHAR 00EC
ENCODING 236
SWIDTH 185 0
DWIDTH 5 0
BBX 5 21 -1 0
BITMAP
80
E0
70
18
08
00
18
18
18
18
18
18
18
18
18
18
18
18
18
18
18
ENDCHAR
STARTCHAR 00ED
ENCODING 237
SWIDTH 185 0
DWIDTH 5 0
BBX 6 21 1 0
BITMAP
08
1C
70
E0
00
00
60
60
60
60
60
60
60
60
60
60
60
60
60
60
60
ENDCHAR
STARTCHAR 00EE
ENCODING 238
SWIDTH 185 0
DWIDTH 5 0
BBX 9 20 -2 0
BITMAP
1C00
3E00
6300
8080
0000
0C00
0C00
0C00
0C00
0C00
0C00
0C00
0C00
0C00
0C00
0C00
0C00
0C00
0C00
0C00
ENDCHAR
STARTCHAR 00EF
ENCODING 239
SWIDTH 185 0
DWIDTH 5 0
BBX 6 20 0 0
BITMAP
CC
CC
CC
00
00
30
30
30
30
30
30
30
30
30
30
30
30
30
30
30
ENDCHAR
STARTCHAR 00F0
ENCODING 240
SWIDTH 666 0
DWIDTH 18 0
BBX 16 20 1 0
BITMAP
0660
03E0
07C0
06E0
0070
07F8
1FF8
381C
700E
6006
C006
C007
C003
C006
E006
6006
700C
381C
1FF8
07E0
ENDCHAR
STARTCHAR 00F1
ENCODING 241
SWIDTH 592 0
DWIDTH 16 0
BBX 13 20 2 0
BITMAP
0800
3E40
13C0
0180
0000
CF80
FFE0
F070
E030
C030
C018
C018
C018
C018
C018
C018
C018
C018
C018
C018
ENDCHAR
STARTCHAR 00F2
ENCODING 242
SWIDTH 666 0
DWIDTH 18 0
BBX 16 20 1 1
BITMAP
0C00
0700
03C0
0080
0000
07E0
1FF8
381C
700E
6006
E006
C007
C003
C006
E006
6006
700C
381C
1FF8
07E0
ENDCHAR
STARTCHAR 00F3
ENCODING 243
SWIDTH 666 0
DWIDTH 18 0
BBX 16 20 1 1
BITMAP
0070
00E0
0380
0300
0000
07E0
1FF8
381C
700E
6006
E006
C007
C003
C006
E006
6006
700C
381C
1FF8
07E0
ENDCHAR
STARTCHAR 00F4
ENCODING 244
SWIDTH 666 0
DWIDTH 18 0
BBX 16 20 1 0
BITMAP
0180
03C0
0660
1C30
0000
07E0
1FF8
381C
700E
6006
E006
C007
C003
C006
E006
6006
700C
381C
1FF8
07E0
ENDCHAR
STARTCHAR 00F5
ENCODING 245
SWIDTH 666 0
DWIDTH 18 0
BBX 16 20 1 0
BITMAP
0200
0F20
09F0
0040
0000
07E0
1FF8
381C
700E
6006
E006
C007
C003
C006
E006
6006
700C
381C
1FF8
07E0
ENDCHAR
STARTCHAR 00F6
ENCODING 246
SWIDTH 666 0
DWIDTH 18 0
BBX 16 19 1 0
BITMAP
0660
0660
0660
0000
07E0
1FF8
381C
700E
6006
E006
C007
C003
C006
E006
6006
700C
381C
1FF8
07E0
ENDCHAR
STARTCHAR 00F7
ENCODING 247
SWIDTH 703 0
DWIDTH 19 0
BBX 15 14 2 0
BITMAP
0180
0180
0180
0000
0000
0000
FFFE
FFFE
0000
0000
0000
0180
0180
0180
ENDCHAR
STARTCHAR 00F8
ENCODING 248
SWIDTH 666 0
DWIDTH 18 0
BBX 15 17 1 -1
BITMAP
0004
07EE
1FFC
381C
703C
6066
E0E6
C1C6
C186
C306
C606
6E06
7C0C
381C
3FF8
67E0
2000
ENDCHAR
STARTCHAR 00F9
ENCODING 249
SWIDTH 592 0
DWIDTH 16 0
BBX 13 21 2 0
BITMAP
1000
3800
0E00
0700
0000
0000
C018
C018
C018
C018
C018
C018
C018
C018
C018
C018
C038
E038
7078
3FD8
1F18
ENDCHAR
STARTCHAR 00FA
ENCODING 250
SWIDTH 592 0
DWIDTH 16 0
BBX 13 21 2 0
BITMAP
0040
01C0
0780
0E00
0000
0000
C018
C018
C018
C018
C018
C018
C018
C018
C018
C018
C038
E038
7078
3FD8
1F18
ENDCHAR
STARTCHAR 00FB
ENCODING 251
SWIDTH 592 0
DWIDTH 16 0
BBX 13 20 2 0
BITMAP
0700
0F80
38C0
0000
0000
C018
C018
C018
C018
C018
C018
C018
C018
C018
C018
C038
E038
7078
3FD8
1F18
ENDCHAR
STARTCHAR 00FC
ENCODING 252
SWIDTH 592 0
DWIDTH 16 0
BBX 13 20 2 0
BITMAP
1980
1980
1980
0000
0000
C018
C018
C018
C018
C018
C018
C018
C018
C018
C018
C038
E038
7078
3FD8
1F18
ENDCHAR
STARTCHAR 00FD
ENCODING 253
SWIDTH 518 0
DWIDTH 14 0
BBX 14 26 0 -5
BITMAP
0020
00E0
03C0
0700
0200
0000
E00C
601C
6018
3018
3030
3830
1860
1860
0CE0
0CC0
0EC0
0780
0780
0300
0300
0700
0600
0600
0C00
0C00
ENDCHAR
STARTCHAR 00FE
ENCODING 254
SWIDTH 666 0
DWIDTH 18 0
BBX 15 25 2 -5
BITMAP
C000
C000
C000
C000
C000
C7C0
DFF0
F838
E00C
C00E
C006
C006
C006
C006
C006
C00E
E00C
F838
DFF0
C7C0
C000
C000
C000
C000
C000
ENDCHAR
STARTCHAR 00FF
ENCODING 255
SWIDTH 518 0
DWIDTH 14 0
BBX 14 25 0 -5
BITMAP
0CC0
0CC0
0CC0
0000
0000
E00C
601C
6018
3018
3030
3830
1860
1860
0CE0
0CC0
0EC0
0780
0780
0300
0300
0700
0600
0600
0C00
0C00
ENDCHAR
STARTCHAR 0100
ENCODING 256
SWIDTH 740 0
DWIDTH 20 0
BBX 18 24 1 0
BITMAP
0FFC00
0FFC00
000000
000000
00C000
01E000
01E000
033000
033000
073000
061800
061800
0C0C00
0C0C00
180E00
1FFE00
3FFE00
300300
300300
600180
600180
C001C0
C000C0
C000C0
ENDCHAR
STARTCHAR 0101
ENCODING 257
SWIDTH 666 0
DWIDTH 18 0
BBX 16 19 1 0
BITMAP
1FF0
1FF0
0000
0000
07E3
1FFB
381F
700F
6007
E007
C003
C003
C003
E007
6007
700F
381B
1FF3
07E3
ENDCHAR
STARTCHAR 0102
ENCODING 258
SWIDTH 740 0
DWIDTH 20 0
BBX 18 25 1 0
BITMAP
061800
061800
03F000
00C000
000000
00C000
01E000
01E000
033000
033000
073000
061800
061800
0C0C00
0C0C00
180E00
1FFE00
3FFE00
300300
300300
600180
600180
C001C0
C000C0
C000C0
ENDCHAR
STARTCHAR 0103
ENCODING 259
SWIDTH 666 0
DWIDTH 18 0
BBX 16 20 1 0
BITMAP
0C30
0C30
07E0
0180
0000
07E3
1FFB
381F
700F
6007
E007
C003
C003
C003
E007
6007
700F
381B
1FF3
07E3
ENDCHAR
STARTCHAR 0104
ENCODING 260
SWIDTH 740 0
DWIDTH 20 0
BBX 19 27 1 -7
BITMAP
00C000
01E000
01E000
033000
033000
073000
061800
061800
0C0C00
0C0C00
180E00
1FFE00
3FFE00
300300
300300
600180
600180
C001C0
C000C0
C000C0
0000C0
000180
000180
000300
000180
0001E0
0000E0
ENDCHAR
STARTCHAR 0105
ENCODING 261
SWIDTH 666 0
DWIDTH 18 0
BBX 16 21 1 -6
BITMAP
07E3
1FFB
381F
700F
6007
E007
C003
C003
C003
E007
6007
700F
381B
1FF3
07E3
0006
000C
0008
000C
000F
0007
ENDCHAR
STARTCHAR 0106
ENCODING 262
SWIDTH 814 0
DWIDTH 22 0
BBX 20 25 1 0
BITMAP
000C00
001C00
007800
006000
000000
01FC00
07FF00
1E03C0
3800E0
300060
600000
600000
E00000
C00000
C00000
C00000
C00000
600000
600000
700030
380060
1C00C0
0E0380
07FF00
01FC00
ENDCHAR
STARTCHAR 0107
ENCODING 263
SWIDTH 629 0
DWIDTH 17 0
BBX 15 20 1 1
BITMAP
0070
00E0
03C0
0100
0000
07E0
1FF8
381C
700E
6006
E000
C000
C000
C000
E000
6006
700E
381C
1FF8
07E0
ENDCHAR
STARTCHAR 0108
ENCODING 264
SWIDTH 814 0
DWIDTH 22 0
BBX 20 24 1 0
BITMAP
007000
01DC00
038E00
000000
01FC00
07FF00
1E03C0
3800E0
300060
600000
600000
E00000
C00000
C00000
C00000
C00000
600000
600000
700030
380060
1C00C0
0E0380
07FF00
01FC00
ENDCHAR
STARTCHAR 0109
ENCODING 265
SWIDTH 629 0
DWIDTH 17 0
BBX 15 20 1 0
BITMAP
0180
03C0
0660
1C38
0000
07E0
1FF8
381C
700E
6006
E000
C000
C000
C000
E000
6006
700E
381C
1FF8
07E0
ENDCHAR
STARTCHAR 010A
ENCODING 266
SWIDTH 814 0
DWIDTH 22 0
BBX 20 24 1 0
BITMAP
003000
003000
003000
000000
01FC00
07FF00
1E03C0
3800E0
300060
600000
600000
E00000
C00000
C00000
C00000
C00000
600000
600000
700030
380060
1C00C0
0E0380
07FF00
01FC00
ENDCHAR
STARTCHAR 010B
ENCODING 267
SWIDTH 629 0
DWIDTH 17 0
BBX 15 19 1 0
BITMAP
0180
0180
0180
0000
07E0
1FF8
381C
700E
6006
E000
C000
C000
C000
E000
6006
700E
381C
1FF8
07E0
ENDCHAR
STARTCHAR 010C
ENCODING 268
SWIDTH 814 0
DWIDTH 22 0
BBX 20 24 1 0
BITMAP
038E00
00D800
007000
000000
01FC00
07FF00
1E03C0
3800E0
300060
600000
600000
E00000
C00000
C00000
C00000
C00000
600000
600000
700030
380060
1C00C0
0E0380
07FF00
01FC00
ENDCHAR
STARTCHAR 010D
ENCODING 269
SWIDTH 629 0
DWIDTH 17 0
BBX 15 20 1 0
BITMAP
1C38
0660
03C0
0180
0000
07E0
1FF8
381C
700E
6006
E000
C000
C000
C000
E000
6006
700E
381C
1FF8
07E0
ENDCHAR
STARTCHAR 010E
ENCODING 270
SWIDTH 740 0
DWIDTH 20 0
BBX 17 25 2 0
BITMAP
30E000
198000
0F0000
060000
000000
FFC000
FFF000
C03C00
C00E00
C00600
C00300
C00300
C00180
C00180
C00180
C00180
C00180
C00180
C00300
C00300
C00600
C00E00
C03C00
FFF000
FFC000
ENDCHAR
STARTCHAR 010F
ENCODING 271
SWIDTH 703 0
DWIDTH 19 0
BBX 21 20 1 0
BITMAP
000318
000330
000330
000330
000330
07E300
1FFB00
381F00
700F00
600700
E00700
C00300
C00300
C00300
E00300
600700
700F00
381B00
1FF300
07E300
ENDCHAR
STARTCHAR 0110
ENCODING 272
SWIDTH 777 0
DWIDTH 21 0
BBX 19 20 1 0
BITMAP
3FF000
3FFC00
300F00
300380
3001C0
3000C0
3000E0
300060
300060
FFC060
FFC060
300060
300060
3000E0
3000C0
3001C0
300380
300F00
3FFC00
3FF000
ENDCHAR
STARTCHAR 0111
ENCODING 273
SWIDTH 703 0
DWIDTH 19 0
BBX 17 20 1 0
BITMAP
000300
000300
003F80
003F80
000300
07E300
1FFB00
381F00
700F00
600700
E00700
C00300
C00300
C00300
E00300
600700
700F00
381B00
1FF300
07E300
ENDCHAR
STARTCHAR 0112
ENCODING 274
SWIDTH 518 0
DWIDTH 14 0
BBX 11 24 2 0
BITMAP
7FC0
7FC0
0000
0000
FFE0
FFE0
C000
C000
C000
C000
C000
C000
C000
FFE0
FFE0
C000
C000
C000
C000
C000
C000
C000
FFE0
FFE0
ENDCHAR
STARTCHAR 0113
ENCODING 275
SWIDTH 666 0
DWIDTH 18 0
BBX 15 19 1 0
BITMAP
1FF0
1FF0
0000
0000
07E0
1FF8
381C
700C
6006
C006
FFFE
FFFE
C000
C000
6006
700C
3818
1FF0
07C0
ENDCHAR
STARTCHAR 0114
ENCODING 276
SWIDTH 518 0
DWIDTH 14 0
BBX 11 25 2 0
BITMAP
60C0
3180
3F80
0400
0000
FFE0
FFE0
C000
C000
C000
C000
C000
C000
C000
FFE0
FFE0
C000
C000
C000
C000
C000
C000
C000
FFE0
FFE0
ENDCHAR
STARTCHAR 0115
ENCODING 277
SWIDTH 666 0
DWIDTH 18 0
BBX 15 20 1 0
BITMAP
0830
0C30
07E0
0100
0000
07E0
1FF8
381C
700C
6006
C006
FFFE
FFFE
C000
C000
6006
700C
3818
1FF0
07C0
ENDCHAR
STARTCHAR 0116
ENCODING 278
SWIDTH 518 0
DWIDTH 14 0
BBX 11 25 2 0
BITMAP
0E00
0E00
0E00
0000
0000
FFE0
FFE0
C000
C000
C000
C000
C000
C000
C000
FFE0
FFE0
C000
C000
C000
C000
C000
C000
C000
FFE0
FFE0
ENDCHAR
STARTCHAR 0117
ENCODING 279
SWIDTH 666 0
DWIDTH 18 0
BBX 15 19 1 0
BITMAP
0180
0180
0180
0000
07E0
1FF8
381C
700C
6006
C006
FFFE
FFFE
C000
C000
6006
700C
3818
1FF0
07C0
ENDCHAR
STARTCHAR 0118
ENCODING 280
SWIDTH 518 0
DWIDTH 14 0
BBX 11 27 2 -7
BITMAP
FFE0
FFE0
C000
C000
C000
C000
C000
C000
C000
FFE0
FFE0
C000
C000
C000
C000
C000
C000
C000
FFE0
FFE0
00C0
0180
0180
0180
0180
01E0
00E0
ENDCHAR
STARTCHAR 0119
ENCODING 281
SWIDTH 666 0
DWIDTH 18 0
BBX 15 21 1 -6
BITMAP
07E0
1FF8
381C
700C
6006
C006
FFFE
FFFE
C000
C000
6006
700C
3818
1FF0
07E0
0080
0180
0300
0380
01E0
00E0
ENDCHAR
STARTCHAR 011A
ENCODING 282
SWIDTH 518 0
DWIDTH 14 0
BBX 11 25 2 0
BITMAP
60C0
3B80
1F00
0E00
0000
FFE0
FFE0
C000
C000
C000
C000
C000
C000
C000
FFE0
FFE0
C000
C000
C000
C000
C000
C000
C000
FFE0
FFE0
ENDCHAR
STARTCHAR 011B
ENCODING 283
SWIDTH 666 0
DWIDTH 18 0
BBX 15 20 1 0
BITMAP
1C30
0E60
07C0
0180
0000
07E0
1FF8
381C
700C
6006
C006
FFFE
FFFE
C000
C000
6006
700C
3818
1FF0
07C0
ENDCHAR
STARTCHAR 011C
ENCODING 284
SWIDTH 888 0
DWIDTH 24 0
BBX 21 24 1 0
BITMAP
007800
00DC00
018600
000000
00FC00
07FF80
0E03C0
1C00E0
300070
700030
600000
600000
C00000
C00000
C00000
C0FFF8
E0FFF8
600018
700030
300030
1C00E0
0E01C0
07FF80
00FC00
ENDCHAR
STARTCHAR 011D
ENCODING 285
SWIDTH 666 0
DWIDTH 18 0
BBX 15 26 1 -6
BITMAP
0180
07C0
0E60
1C30
0000
07E6
1FF6
383E
700E
6006
C006
C006
C006
C006
E006
6006
700E
381E
1FF6
07C6
6006
6006
300C
3C1C
1FF8
03E0
ENDCHAR
STARTCHAR 011E
ENCODING 286
SWIDTH 888 0
DWIDTH 24 0
BBX 21 24 1 0
BITMAP
018600
01FC00
00F800
000000
00FC00
07FF80
0E03C0
1C00E0
300070
700030
600000
600000
C00000
C00000
C00000
C0FFF8
E0FFF8
600018
700030
300030
1C00E0
0E01C0
07FF80
00FC00
ENDCHAR
STARTCHAR 011F
ENCODING 287
SWIDTH 666 0
DWIDTH 18 0
BBX 15 26 1 -6
BITMAP
0830
0C60
07E0
0100
0000
07E6
1FF6
383E
700E
6006
C006
C006
C006
C006
E006
6006
700E
381E
1FF6
07C6
6006
6006
300C
3C1C
1FF8
03E0
ENDCHAR
STARTCHAR 0120
ENCODING 288
SWIDTH 888 0
DWIDTH 24 0
BBX 21 24 1 0
BITMAP
003000
003000
003000
000000
00FC00
07FF80
0E03C0
1C00E0
300070
700030
600000
600000
C00000
C00000
C00000
C0FFF8
E0FFF8
600018
700030
300030
1C00E0
0E01C0
07FF80
00FC00
ENDCHAR
STARTCHAR 0121
ENCODING 289
SWIDTH 666 0
DWIDTH 18 0
BBX 15 25 1 -6
BITMAP
0180
0180
0180
0000
07E6
1FF6
383E
700E
6006
C006
C006
C006
C006
E006
6006
700E
381E
1FF6
07C6
6006
6006
300C
3C1C
1FF8
03E0
ENDCHAR
STARTCHAR 0122
ENCODING 290
SWIDTH 888 0
DWIDTH 24 0
BBX 21 26 1 -6
BITMAP
00FC00
07FF80
0E03C0
1C00E0
300070
700030
600000
600000
C00000
C00000
C00000
C0FFF8
E0FFF8
600018
700030
300030
1C00E0
0E01C0
07FF80
00FC00
000000
003000
003000
006000
006000
006000
ENDCHAR
STARTCHAR 0123
ENCODING 291
SWIDTH 666 0
DWIDTH 18 0
BBX 15 27 1 -6
BITMAP
0180
0180
0180
0300
0300
0000
07E6
1FF6
383E
700E
6006
C006
C006
C006
C006
E006
6006
700E
381E
1FF6
07C6
6006
6006
300C
3C1C
1FF8
03E0
ENDCHAR
STARTCHAR 0124
ENCODING 292
SWIDTH 666 0
DWIDTH 18 0
BBX 14 25 2 0
BITMAP
0300
07C0
0CE0
1870
0000
C00C
C00C
C00C
C00C
C00C
C00C
C00C
C00C
C00C
FFFC
FFFC
C00C
C00C
C00C
C00C
C00C
C00C
C00C
C00C
C00C
ENDCHAR
STARTCHAR 0125
ENCODING 293
SWIDTH 592 0
DWIDTH 16 0
BBX 13 25 2 0
BITMAP
0600
0F80
19C0
30E0
0000
C000
C000
C000
C000
C000
CF80
FFE0
F070
E030
C030
C018
C018
C018
C018
C018
C018
C018
C018
C018
C018
ENDCHAR
STARTCHAR 0126
ENCODING 294
SWIDTH 666 0
DWIDTH 18 0
BBX 18 20 0 0
BITMAP
300300
300300
300300
FFFFC0
FFFFC0
300300
300300
300300
300300
3FFF00
3FFF00
300300
300300
300300
300300
300300
300300
300300
300300
300300
ENDCHAR
STARTCHAR 0127
ENCODING 295
SWIDTH 592 0
DWIDTH 16 0
BBX 15 20 0 0
BITMAP
3000
3000
FC00
FC00
3000
33E0
3FF8
3C1C
380C
300E
3006
3006
3006
3006
3006
3006
3006
3006
3006
3006
ENDCHAR
STARTCHAR 0128
ENCODING 296
SWIDTH 222 0
DWIDTH 6 0
BBX 8 25 -1 0
BITMAP
20
F1
4F
04
00
18
18
18
18
18
18
18
18
18
18
18
18
18
18
18
18
18
18
18
18
ENDCHAR
STARTCHAR 0129
ENCODING 297
SWIDTH 185 0
DWIDTH 5 0
BBX 8 20 -1 0
BITMAP
60
FF
9E
00
00
18
18
18
18
18
18
18
18
18
18
18
18
18
18
18
ENDCHAR
STARTCHAR 012A
ENCODING 298
SWIDTH 222 0
DWIDTH 6 0
BBX 10 24 -2 0
BITMAP
FFC0
FFC0
0000
0000
0C00
0C00
0C00
0C00
0C00
0C00
0C00
0C00
0C00
0C00
0C00
0C00
0C00
0C00
0C00
0C00
0C00
0C00
0C00
0C00
ENDCHAR
STARTCHAR 012B
ENCODING 299
SWIDTH 185 0
DWIDTH 5 0
BBX 9 19 -2 0
BITMAP
FF80
FF80
0000
0000
0C00
0C00
0C00
0C00
0C00
0C00
0C00
0C00
0C00
0C00
0C00
0C00
0C00
0C00
0C00
ENDCHAR
STARTCHAR 012C
ENCODING 300
SWIDTH 222 0
DWIDTH 6 0
BBX 8 25 -1 0
BITMAP
C3
C3
7E
18
00
18
18
18
18
18
18
18
18
18
18
18
18
18
18
18
18
18
18
18
18
ENDCHAR
STARTCHAR 012D
ENCODING 301
SWIDTH 185 0
DWIDTH 5 0
BBX 8 20 -1 0
BITMAP
83
C6
7E
10
00
18
18
18
18
18
18
18
18
18
18
18
18
18
18
18
ENDCHAR
STARTCHAR 012E
ENCODING 302
SWIDTH 222 0
DWIDTH 6 0
BBX 4 27 0 -7
BITMAP
30
30
30
30
30
30
30
30
30
30
30
30
30
30
30
30
30
30
30
30
30
60
C0
C0
C0
F0
70
ENDCHAR
STARTCHAR 012F
ENCODING 303
SWIDTH 185 0
DWIDTH 5 0
BBX 5 27 -1 -7
BITMAP
18
18
18
00
00
18
18
18
18
18
18
18
18
18
18
18
18
18
18
18
30
60
60
C0
60
78
38
ENDCHAR
STARTCHAR 0130
ENCODING 304
SWIDTH 222 0
DWIDTH 6 0
BBX 2 25 2 0
BITMAP
C0
C0
C0
00
00
C0
C0
C0
C0
C0
C0
C0
C0
C0
C0
C0
C0
C0
C0
C0
C0
C0
C0
C0
C0
ENDCHAR
STARTCHAR 0131
ENCODING 305
SWIDTH 185 0
DWIDTH 5 0
BBX 2 15 2 0
BITMAP
C0
C0
C0
C0
C0
C0
C0
C0
C0
C0
C0
C0
C0
C0
C0
ENDCHAR
STARTCHAR 0132
ENCODING 306
SWIDTH 666 0
DWIDTH 18 0
BBX 14 20 2 0
BITMAP
C00C
C00C
C00C
C00C
C00C
C00C
C00C
C00C
C00C
C00C
C00C
C00C
C00C
C00C
C00C
CC0C
CC0C
CE1C
C7F8
C3E0
ENDCHAR
STARTCHAR 0133
ENCODING 307
SWIDTH 407 0
DWIDTH 11 0
BBX 7 25 2 -5
BITMAP
C6
C6
C6
00
00
C6
C6
C6
C6
C6
C6
C6
C6
C6
C6
C6
C6
C6
C6
C6
06
06
0E
3C
30
ENDCHAR
STARTCHAR 0134
ENCODING 308
SWIDTH 481 0
DWIDTH 13 0
BBX 15 25 0 0
BITMAP
0060
00F0
0198
070E
0000
0060
0060
0060
0060
0060
0060
0060
0060
0060
0060
0060
0060
0060
0060
0060
C060
60E0
70C0
3F80
1F00
ENDCHAR
STARTCHAR 0135
ENCODING 309
SWIDTH 185 0
DWIDTH 5 0
BBX 8 25 -1 -5
BITMAP
38
7C
E7
00
00
18
18
18
18
18
18
18
18
18
18
18
18
18
18
18
18
30
30
E0
C0
ENDCHAR
STARTCHAR 0136
ENCODING 310
SWIDTH 592 0
DWIDTH 16 0
BBX 13 26 2 -6
BITMAP
C018
C038
C070
C0E0
C0C0
C180
C380
C700
CE00
CC00
DC00
F600
F300
E380
C1C0
C0C0
C060
C070
C038
C018
0000
0300
0300
0600
0600
0600
ENDCHAR
STARTCHAR 0137
ENCODING 311
SWIDTH 518 0
DWIDTH 14 0
BBX 11 26 2 -6
BITMAP
C000
C000
C000
C000
C000
C0E0
C1C0
C180
C300
C700
CE00
CC00
D800
FC00
FE00
E700
C380
C180
C0C0
C0E0
0000
0600
0C00
0C00
0C00
1800
ENDCHAR
STARTCHAR 0139
ENCODING 313
SWIDTH 444 0
DWIDTH 12 0
BBX 11 25 1 1
BITMAP
1C00
3800
F000
4000
0000
6000
6000
6000
6000
6000
6000
6000
6000
6000
6000
6000
6000
6000
6000
6000
6000
6000
6000
7FE0
7FE0
ENDCHAR
STARTCHAR 013A
ENCODING 314
SWIDTH 185 0
DWIDTH 5 0
BBX 6 25 1 1
BITMAP
1C
78
E0
C0
00
60
60
60
60
60
60
60
60
60
60
60
60
60
60
60
60
60
60
60
60
ENDCHAR
STARTCHAR 013B
ENCODING 315
SWIDTH 444 0
DWIDTH 12 0
BBX 10 26 2 -6
BITMAP
C000
C000
C000
C000
C000
C000
C000
C000
C000
C000
C000
C000
C000
C000
C000
C000
C000
C000
FFC0
FFC0
0000
0C00
0C00
0C00
0C00
1800
ENDCHAR
STARTCHAR 013C
ENCODING 316
SWIDTH 185 0
DWIDTH 5 0
BBX 3 26 1 -6
BITMAP
60
60
60
60
60
60
60
60
60
60
60
60
60
60
60
60
60
60
60
60
00
60
60
C0
C0
C0
ENDCHAR
STARTCHAR 013D
ENCODING 317
SWIDTH 444 0
DWIDTH 12 0
BBX 10 20 2 0
BITMAP
C600
C600
CC00
CC00
CC00
C000
C000
C000
C000
C000
C000
C000
C000
C000
C000
C000
C000
C000
FFC0
FFC0
ENDCHAR
STARTCHAR 013E
ENCODING 318
SWIDTH 185 0
DWIDTH 5 0
BBX 7 20 2 0
BITMAP
C6
CC
CC
CC
D8
C0
C0
C0
C0
C0
C0
C0
C0
C0
C0
C0
C0
C0
C0
C0
ENDCHAR
STARTCHAR 013F
ENCODING 319
SWIDTH 444 0
DWIDTH 12 0
BBX 10 20 2 0
BITMAP
C000
C000
C000
C000
C000
C000
C000
C000
C300
C300
C300
C000
C000
C000
C000
C000
C000
C000
FFC0
FFC0
ENDCHAR
STARTCHAR 0140
ENCODING 320
SWIDTH 259 0
DWIDTH 7 0
BBX 5 20 2 0
BITMAP
C0
C0
C0
C0
C0
C0
C0
C0
D8
D8
D8
C0
C0
C0
C0
C0
C0
C0
C0
C0
ENDCHAR
STARTCHAR 0141
ENCODING 321
SWIDTH 518 0
DWIDTH 14 0
BBX 13 20 1 0
BITMAP
3000
3000
3000
3000
3000
3080
3380
3700
3E00
3800
7000
F000
B000
3000
3000
3000
3000
3000
3FF8
3FF8
ENDCHAR
STARTCHAR 0142
ENCODING 322
SWIDTH 296 0
DWIDTH 8 0
BBX 6 20 1 0
BITMAP
30
30
30
30
30
30
30
34
3C
70
F0
B0
30
30
30
30
30
30
30
30
ENDCHAR
STARTCHAR 0143
ENCODING 323
SWIDTH 740 0
DWIDTH 20 0
BBX 16 25 2 1
BITMAP
0070
00E0
0380
0100
0000
E003
F003
F003
D803
DC03
CC03
C603
C703
C303
C183
C1C3
C0E3
C063
C033
C03B
C01B
C00F
C00F
C007
C003
ENDCHAR
STARTCHAR 0144
ENCODING 324
SWIDTH 592 0
DWIDTH 16 0
BBX 13 21 2 0
BITMAP
0040
01C0
0780
0E00
0000
0000
CF80
FFE0
F070
E030
C030
C018
C018
C018
C018
C018
C018
C018
C018
C018
C018
ENDCHAR
STARTCHAR 0145
ENCODING 325
SWIDTH 740 0
DWIDTH 20 0
BBX 16 26 2 -6
BITMAP
E003
F003
F003
D803
DC03
CC03
C603
C703
C303
C183
C1C3
C0E3
C063
C033
C03B
C01B
C00F
C00F
C007
C003
0000
0180
0180
0180
0300
0300
ENDCHAR
STARTCHAR 0146
ENCODING 326
SWIDTH 592 0
DWIDTH 16 0
BBX 13 21 2 -6
BITMAP
CF80
FFE0
F070
E030
C030
C018
C018
C018
C018
C018
C018
C018
C018
C018
C018
0000
0700
0600
0600
0600
0C00
ENDCHAR
STARTCHAR 0147
ENCODING 327
SWIDTH 740 0
DWIDTH 20 0
BBX 16 25 2 0
BITMAP
1C30
0660
03C0
0180
0000
E003
F003
F003
D803
DC03
CC03
C603
C703
C303
C183
C1C3
C0E3
C063
C033
C03B
C01B
C00F
C00F
C007
C003
ENDCHAR
STARTCHAR 0148
ENCODING 328
SWIDTH 592 0
DWIDTH 16 0
BBX 13 20 2 0
BITMAP
30C0
1D80
0F00
0000
0000
CF80
FFE0
F070
E030
C030
C018
C018
C018
C018
C018
C018
C018
C018
C018
C018
ENDCHAR
STARTCHAR 014A
ENCODING 330
SWIDTH 740 0
DWIDTH 20 0
BBX 16 27 2 -7
BITMAP
E003
F003
F003
D803
DC03
CC03
C603
C703
C303
C183
C1C3
C0E3
C063
C033
C03B
C01B
C00F
C00F
C007
C003
0003
0003
0603
0306
038E
01FC
00F0
ENDCHAR
STARTCHAR 014B
ENCODING 331
SWIDTH 592 0
DWIDTH 16 0
BBX 13 20 2 -5
BITMAP
CF80
FFE0
F070
E030
C030
C018
C018
C018
C018
C018
C018
C018
C018
C018
C018
0018
0030
0030
00E0
00C0
ENDCHAR
STARTCHAR 014C
ENCODING 332
SWIDTH 851 0
DWIDTH 23 0
BBX 21 24 1 0
BITMAP
03FE00
03FE00
000000
000000
00FC00
07FF00
0E03C0
1C00E0
300070
700030
600038
600018
C00018
C00018
C00018
C00018
600018
600038
700030
380070
1C00E0
0E03C0
07FF00
01FC00
ENDCHAR
STARTCHAR 014D
ENCODING 333
SWIDTH 666 0
DWIDTH 18 0
BBX 16 19 1 0
BITMAP
1FF0
1FF0
0000
0000
07E0
1FF8
381C
700E
6006
E006
C007
C003
C006
E006
6006
700C
381C
1FF8
07E0
ENDCHAR
STARTCHAR 014E
ENCODING 334
SWIDTH 851 0
DWIDTH 23 0
BBX 21 24 1 0
BITMAP
018600
01FC00
00F800
000000
00FC00
07FF00
0E03C0
1C00E0
300070
700030
600038
600018
C00018
C00018
C00018
C00018
600018
600038
700030
380070
1C00E0
0E03C0
07FF00
01FC00
ENDCHAR
STARTCHAR 014F
ENCODING 335
SWIDTH 666 0
DWIDTH 18 0
BBX 16 20 1 0
BITMAP
0C30
0C30
07E0
0100
0000
07E0
1FF8
381C
700E
6006
E006
C007
C003
C006
E006
6006
700C
381C
1FF8
07E0
ENDCHAR
STARTCHAR 0150
ENCODING 336
SWIDTH 851 0
DWIDTH 23 0
BBX 21 25 1 0
BITMAP
0010C0
007180
00E700
018600
000000
00FC00
07FF00
0E03C0
1C00E0
300070
700030
600038
600018
C00018
C00018
C00018
C00018
600018
600038
700030
380070
1C00E0
0E03C0
07FF00
01FC00
ENDCHAR
STARTCHAR 0151
ENCODING 337
SWIDTH 666 0
DWIDTH 18 0
BBX 16 20 1 0
BITMAP
00C6
038E
0738
0430
0000
07E0
1FF8
381C
700E
6006
E006
C007
C003
C006
E006
6006
700C
381C
1FF8
07E0
ENDCHAR
STARTCHAR 0152
ENCODING 338
SWIDTH 1185 0
DWIDTH 32 0
BBX 30 20 1 0
BITMAP
01FC1FFC
07FF1FFC
0E03D800
1800F800
30007800
70003800
60003800
60001800
C0001800
C0001FF8
C0001FF8
C0001800
60001800
60003800
70003800
30007800
1C00F800
0E03D800
07FF1FFC
01FC1FFC
ENDCHAR
STARTCHAR 0153
ENCODING 339
SWIDTH 1148 0
DWIDTH 31 0
BBX 29 15 1 0
BITMAP
07E03F00
1FF0FFC0
3819C0E0
700D8070
60070030
C0070010
C007FFF8
C007FFF8
C0060000
E0070000
60070030
700D8070
3819E0E0
1FF07FC0
07E03F00
ENDCHAR
STARTCHAR 0154
ENCODING 340
SWIDTH 592 0
DWIDTH 16 0
BBX 14 25 2 1
BITMAP
01C0
0380
0F00
0400
0000
FF80
FFE0
C070
C018
C018
C01C
C00C
C01C
C018
C018
C070
CFE0
C700
C300
C180
C1C0
C0E0
C060
C030
C038
ENDCHAR
STARTCHAR 0155
ENCODING 341
SWIDTH 296 0
DWIDTH 8 0
BBX 6 20 2 1
BITMAP
1C
78
E0
80
00
CC
FC
F0
E0
C0
C0
C0
C0
C0
C0
C0
C0
C0
C0
C0
ENDCHAR
STARTCHAR 0156
ENCODING 342
SWIDTH 592 0
DWIDTH 16 0
BBX 14 26 2 -6
BITMAP
FF80
FFE0
C070
C018
C018
C01C
C00C
C01C
C018
C018
C070
CFE0
C700
C300
C180
C1C0
C0E0
C060
C030
C038
0000
0600
0600
0600
0600
0C00
ENDCHAR
STARTCHAR 0157
ENCODING 343
SWIDTH 296 0
DWIDTH 8 0
BBX 7 21 1 -6
BITMAP
66
7E
78
70
60
60
60
60
60
60
60
60
60
60
60
00
60
60
C0
C0
C0
ENDCHAR
STARTCHAR 0158
ENCODING 344
SWIDTH 592 0
DWIDTH 16 0
BBX 14 25 2 0
BITMAP
30E0
19C0
0F00
0600
0000
FF80
FFE0
C070
C018
C018
C01C
C00C
C01C
C018
C018
C070
CFE0
C700
C300
C180
C1C0
C0E0
C060
C030
C038
ENDCHAR
STARTCHAR 0159
ENCODING 345
SWIDTH 296 0
DWIDTH 8 0
BBX 9 20 -1 0
BITMAP
E180
7700
3E00
0C00
0000
1980
1F80
1E00
1C00
1800
1800
1800
1800
1800
1800
1800
1800
1800
1800
1800
ENDCHAR
STARTCHAR 015A
ENCODING 346
SWIDTH 481 0
DWIDTH 13 0
BBX 12 25 1 0
BITMAP
0080
0380
0F00
0C00
0000
1F00
3FC0
70E0
6060
C060
C000
E000
7000
3C00
1F80
03C0
00E0
0070
0030
C030
C030
E060
70E0
3FC0
1F00
ENDCHAR
STARTCHAR 015B
ENCODING 347
SWIDTH 370 0
DWIDTH 10 0
BBX 10 20 0 1
BITMAP
0180
0700
1E00
0800
0000
1E00
3F80
7180
6180
6000
7000
3C00
0F00
0380
01C0
C0C0
60C0
6180
3F80
1E00
ENDCHAR
STARTCHAR 015C
ENCODING 348
SWIDTH 481 0
DWIDTH 13 0
BBX 12 24 1 0
BITMAP
0F00
1B80
30C0
0000
1F00
3FC0
70E0
6060
C060
C000
E000
7000
3C00
1F80
03C0
00E0
0070
0030
C030
C030
E060
70E0
3FC0
1F00
ENDCHAR
STARTCHAR 015D
ENCODING 349
SWIDTH 370 0
DWIDTH 10 0
BBX 10 20 0 0
BITMAP
0C00
1E00
3380
61C0
0000
1E00
3F80
7180
6180
6000
7000
3C00
0F00
0380
01C0
C0C0
60C0
6180
3F80
1E00
ENDCHAR
STARTCHAR 015E
ENCODING 350
SWIDTH 481 0
DWIDTH 13 0
BBX 12 26 1 -7
BITMAP
1F00
3FC0
70E0
6060
C060
C000
E000
7000
3C00
1F80
03C0
00E0
0070
0030
C030
C030
C060
60E0
7FC0
1F80
0400
0F00
0F80
0080
0980
0F00
ENDCHAR
STARTCHAR 015F
ENCODING 351
SWIDTH 370 0
DWIDTH 10 0
BBX 9 21 1 -7
BITMAP
3C00
7F00
E300
C300
C000
E000
7800
3E00
0700
0380
0180
C180
C300
FF00
7E00
0800
1E00
1E00
0300
3300
1E00
ENDCHAR
STARTCHAR 0160
ENCODING 352
SWIDTH 481 0
DWIDTH 13 0
BBX 12 24 1 0
BITMAP
31C0
1F00
0E00
0000
1F00
3FC0
70E0
6060
C060
C000
E000
7000
3C00
1F80
03C0
00E0
0070
0030
C030
C030
E060
70E0
3FC0
1F00
ENDCHAR
STARTCHAR 0161
ENCODING 353
SWIDTH 370 0
DWIDTH 10 0
BBX 10 20 0 0
BITMAP
61C0
3380
1E00
0C00
0000
1E00
3F80
7180
6180
6000
7000
3C00
0F00
0380
01C0
C0C0
60C0
6180
3F80
1E00
ENDCHAR
STARTCHAR 0162
ENCODING 354
SWIDTH 444 0
DWIDTH 12 0
BBX 11 26 0 -7
BITMAP
FFE0
FFE0
0600
0600
0600
0600
0600
0600
0600
0600
0600
0600
0600
0600
0600
0600
0600
0600
0600
0600
0400
0F00
0F00
0180
1980
0F00
ENDCHAR
STARTCHAR 0163
ENCODING 355
SWIDTH 333 0
DWIDTH 9 0
BBX 9 26 0 -7
BITMAP
1C00
1C00
1C00
1C00
1C00
FF80
FF80
1C00
1C00
1C00
1C00
1C00
1C00
1C00
1C00
1C00
1C00
1C00
1C00
1C00
1800
1C00
3E00
0300
3200
1E00
ENDCHAR
STARTCHAR 0164
ENCODING 356
SWIDTH 444 0
DWIDTH 12 0
BBX 11 25 0 0
BITMAP
70C0
3980
0F00
0600
0000
FFE0
FFE0
0600
0600
0600
0600
0600
0600
0600
0600
0600
0600
0600
0600
0600
0600
0600
0600
0600
0600
ENDCHAR
STARTCHAR 0165
ENCODING 357
SWIDTH 333 0
DWIDTH 9 0
BBX 9 20 0 0
BITMAP
1D80
1D80
1D80
1D80
1C00
FF80
FF80
1C00
1C00
1C00
1C00
1C00
1C00
1C00
1C00
1C00
1C00
1C00
1C00
1C00
ENDCHAR
STARTCHAR 0168
ENCODING 360
SWIDTH 666 0
DWIDTH 18 0
BBX 14 25 2 0
BITMAP
0400
1E40
13E0
0080
0000
C00C
C00C
C00C
C00C
C00C
C00C
C00C
C00C
C00C
C00C
C00C
C00C
C00C
C00C
C018
E018
6018
7030
3FE0
0FC0
ENDCHAR
STARTCHAR 0169
ENCODING 361
SWIDTH 592 0
DWIDTH 16 0
BBX 13 20 2 0
BITMAP
0800
3FC0
1380
0000
0000
C018
C018
C018
C018
C018
C018
C018
C018
C018
C018
C038
E038
7078
3FD8
1F18
ENDCHAR
STARTCHAR 016A
ENCODING 362
SWIDTH 666 0
DWIDTH 18 0
BBX 14 24 2 0
BITMAP
3FE0
3FE0
0000
0000
C00C
C00C
C00C
C00C
C00C
C00C
C00C
C00C
C00C
C00C
C00C
C00C
C00C
C00C
C018
E018
6018
7030
3FE0
0FC0
ENDCHAR
STARTCHAR 016B
ENCODING 363
SWIDTH 592 0
DWIDTH 16 0
BBX 13 19 2 0
BITMAP
3FE0
3FE0
0000
0000
C018
C018
C018
C018
C018
C018
C018
C018
C018
C018
C038
E038
7078
3FD8
1F18
ENDCHAR
STARTCHAR 016C
ENCODING 364
SWIDTH 666 0
DWIDTH 18 0
BBX 14 25 2 0
BITMAP
1860
1860
0FC0
0200
0000
C00C
C00C
C00C
C00C
C00C
C00C
C00C
C00C
C00C
C00C
C00C
C00C
C00C
C00C
C018
E018
6018
7030
3FE0
0FC0
ENDCHAR
STARTCHAR 016D
ENCODING 365
SWIDTH 592 0
DWIDTH 16 0
BBX 13 20 2 0
BITMAP
3040
30C0
1F80
0600
0000
C018
C018
C018
C018
C018
C018
C018
C018
C018
C018
C038
E038
7078
3FD8
1F18
ENDCHAR
STARTCHAR 016E
ENCODING 366
SWIDTH 666 0
DWIDTH 18 0
BBX 14 27 2 0
BITMAP
0700
0480
08C0
08C0
0C80
0700
0000
C00C
C00C
C00C
C00C
C00C
C00C
C00C
C00C
C00C
C00C
C00C
C00C
C00C
C00C
C018
E018
6018
7030
3FE0
0FC0
ENDCHAR
STARTCHAR 016F
ENCODING 367
SWIDTH 592 0
DWIDTH 16 0
BBX 13 22 2 0
BITMAP
0700
0980
1880
0980
0F00
0000
0000
C018
C018
C018
C018
C018
C018
C018
C018
C018
C018
C038
E038
7078
3FD8
1F18
ENDCHAR
STARTCHAR 0170
ENCODING 368
SWIDTH 666 0
DWIDTH 18 0
BBX 14 25 2 1
BITMAP
038C
0738
0C70
0840
0000
C00C
C00C
C00C
C00C
C00C
C00C
C00C
C00C
C00C
C00C
C00C
C00C
C00C
C00C
C018
E018
6018
7030
3FE0
0FC0
ENDCHAR
STARTCHAR 0171
ENCODING 369
SWIDTH 592 0
DWIDTH 16 0
BBX 13 21 2 0
BITMAP
0008
0318
0E30
1CE0
1040
0000
C018
C018
C018
C018
C018
C018
C018
C018
C018
C018
C038
E038
7078
3FD8
1F18
ENDCHAR
STARTCHAR 0172
ENCODING 370
SWIDTH 666 0
DWIDTH 18 0
BBX 14 26 2 -6
BITMAP
C00C
C00C
C00C
C00C
C00C
C00C
C00C
C00C
C00C
C00C
C00C
C00C
C00C
C00C
C018
E018
6018
7030
3FE0
0FC0
0100
0300
0600
0700
03C0
01C0
ENDCHAR
STARTCHAR 0173
ENCODING 371
SWIDTH 592 0
DWIDTH 16 0
BBX 13 21 2 -6
BITMAP
C018
C018
C018
C018
C018
C018
C018
C018
C018
C018
C038
E038
7078
3FD8
1F18
0030
0060
00C0
0060
0078
0038
ENDCHAR
STARTCHAR 0174
ENCODING 372
SWIDTH 962 0
DWIDTH 26 0
BBX 25 25 0 0
BITMAP
000C0000
001E0000
00330000
00E1C000
00000000
C00C0180
600C0180
601E0180
601E0180
301E0300
30360300
30330300
30330600
18330600
18638600
18618600
0C618C00
0C618C00
0CC0CC00
0CC0D800
06C0D800
0780D800
07807800
03807000
03807000
ENDCHAR
STARTCHAR 0175
ENCODING 373
SWIDTH 814 0
DWIDTH 22 0
BBX 22 20 0 0
BITMAP
003800
007C00
01C600
000000
000000
C0000C
60000C
603018
703818
307818
307830
186C30
184C60
18CC60
0CC660
0C86C0
0F86C0
078280
070380
030380
ENDCHAR
STARTCHAR 0176
ENCODING 374
SWIDTH 592 0
DWIDTH 16 0
BBX 16 25 0 0
BITMAP
0180
03C0
0660
1C38
0000
E007
6006
700E
300C
381C
1818
1C38
0C30
0E60
0660
07C0
03C0
0180
0180
0180
0180
0180
0180
0180
0180
ENDCHAR
STARTCHAR 0177
ENCODING 375
SWIDTH 518 0
DWIDTH 14 0
BBX 14 25 0 -5
BITMAP
0380
07C0
1C60
0000
0000
E00C
601C
6018
3018
3030
3830
1860
1860
0CE0
0CC0
0EC0
0780
0780
0300
0300
0700
0600
0600
0C00
0C00
ENDCHAR
STARTCHAR 0178
ENCODING 376
SWIDTH 592 0
DWIDTH 16 0
BBX 16 25 0 0
BITMAP
0660
0660
0660
0000
0000
E007
6006
700E
300C
381C
1818
1C38
0C30
0E60
0660
07C0
03C0
0180
0180
0180
0180
0180
0180
0180
0180
ENDCHAR
STARTCHAR 0179
ENCODING 377
SWIDTH 481 0
DWIDTH 13 0
BBX 13 25 0 1
BITMAP
00C0
03C0
0700
0400
0000
7FF0
7FF0
0030
0060
0060
00C0
01C0
0180
0380
0300
0600
0E00
0C00
1C00
1800
3000
7000
6000
FFF8
FFF8
ENDCHAR
STARTCHAR 017A
ENCODING 378
SWIDTH 407 0
DWIDTH 11 0
BBX 11 21 0 0
BITMAP
0080
03C0
0700
0E00
0800
0000
7FE0
7FE0
00C0
0180
0380
0300
0600
0E00
0C00
1800
3800
7000
6000
FFE0
FFE0
ENDCHAR
STARTCHAR 017B
ENCODING 379
SWIDTH 481 0
DWIDTH 13 0
BBX 13 25 0 0
BITMAP
0300
0300
0300
0000
0000
7FF0
7FF0
0030
0060
0060
00C0
01C0
0180
0380
0300
0600
0E00
0C00
1C00
1800
3000
7000
6000
FFF8
FFF8
ENDCHAR
STARTCHAR 017C
ENCODING 380
SWIDTH 407 0
DWIDTH 11 0
BBX 11 20 0 0
BITMAP
0600
0600
0600
0000
0000
7FE0
7FE0
00C0
0180
0380
0300
0600
0E00
0C00
1800
3800
7000
6000
FFE0
FFE0
ENDCHAR
STARTCHAR 017D
ENCODING 381
SWIDTH 481 0
DWIDTH 13 0
BBX 13 25 0 0
BITMAP
3860
1DC0
0F80
0300
0000
7FF0
7FF0
0030
0060
0060
00C0
01C0
0180
0380
0300
0600
0E00
0C00
1C00
1800
3000
7000
6000
FFF8
FFF8
ENDCHAR
STARTCHAR 017E
ENCODING 382
SWIDTH 407 0
DWIDTH 11 0
BBX 11 20 0 0
BITMAP
71C0
1B80
0F00
0000
0000
7FE0
7FE0
00C0
0180
0380
0300
0600
0E00
0C00
1800
3800
7000
6000
FFE0
FFE0
ENDCHAR
STARTCHAR 017F
ENCODING 383
SWIDTH 296 0
DWIDTH 8 0
BBX 8 20 0 0
BITMAP
03
0F
1C
18
18
F8
F8
18
18
18
18
18
18
18
18
18
18
18
18
18
ENDCHAR
STARTCHAR 018E
ENCODING 398
SWIDTH 518 0
DWIDTH 14 0
BBX 11 20 2 0
BITMAP
FFE0
FFE0
0060
0060
0060
0060
0060
0060
0060
FFE0
FFE0
0060
0060
0060
0060
0060
0060
0060
FFE0
FFE0
ENDCHAR
STARTCHAR 0192
ENCODING 402
SWIDTH 555 0
DWIDTH 15 0
BBX 14 26 1 -4
BITMAP
001C
003C
0060
00C0
00C0
00C0
07F8
0FF0
0180
0180
0180
0180
0100
0300
0300
0300
0300
0200
0600
0600
0600
0600
0C00
0C00
F800
F000
ENDCHAR
STARTCHAR 01A0
ENCODING 416
SWIDTH 851 0
DWIDTH 23 0
BBX 21 20 1 0
BITMAP
00FC18
07FF18
0E03D8
1C00F0
300070
700030
600038
600018
C00018
C00018
C00018
C00018
600018
600038
700030
380060
1C00E0
0E03C0
07FF00
01FC00
ENDCHAR
STARTCHAR 01A1
ENCODING 417
SWIDTH 666 0
DWIDTH 18 0
BBX 17 15 1 0
BITMAP
07E180
1FF900
381F00
700E00
600600
E00600
C00700
C00300
C00600
E00600
600600
700C00
381C00
1FF800
07E000
ENDCHAR
STARTCHAR 01AF
ENCODING 431
SWIDTH 703 0
DWIDTH 19 0
BBX 17 20 2 0
BITMAP
C00D80
C00D00
C00F00
C00E00
C00C00
C00C00
C00C00
C00C00
C00C00
C00C00
C00C00
C00C00
C00C00
C00C00
C01800
E01800
601800
707000
3FE000
0F8000
ENDCHAR
STARTCHAR 01B0
ENCODING 432
SWIDTH 666 0
DWIDTH 18 0
BBX 16 15 2 0
BITMAP
C01B
C01B
C01E
C01E
C01C
C018
C018
C018
C018
C018
C038
E038
7078
3FD8
1F18
ENDCHAR
STARTCHAR 01CD
ENCODING 461
SWIDTH 740 0
DWIDTH 20 0
BBX 18 25 1 0
BITMAP
0E1800
033000
01E000
00C000
000000
00C000
01E000
01E000
033000
033000
073000
061800
061800
0C0C00
0C0C00
180E00
1FFE00
3FFE00
300300
300300
600180
600180
C001C0
C000C0
C000C0
ENDCHAR
STARTCHAR 01CE
ENCODING 462
SWIDTH 666 0
DWIDTH 18 0
BBX 16 20 1 0
BITMAP
1C38
0E60
03C0
0180
0000
07E3
1FFB
381F
700F
6007
E007
C003
C003
C003
E007
6007
700F
381B
1FF3
07E3
ENDCHAR
STARTCHAR 01CF
ENCODING 463
SWIDTH 222 0
DWIDTH 6 0
BBX 9 25 -1 0
BITMAP
C380
6600
3C00
1800
0000
1800
1800
1800
1800
1800
1800
1800
1800
1800
1800
1800
1800
1800
1800
1800
1800
1800
1800
1800
1800
ENDCHAR
STARTCHAR 01D0
ENCODING 464
SWIDTH 185 0
DWIDTH 5 0
BBX 9 20 -2 0
BITMAP
E380
3700
1E00
0000
0000
0C00
0C00
0C00
0C00
0C00
0C00
0C00
0C00
0C00
0C00
0C00
0C00
0C00
0C00
0C00
ENDCHAR
STARTCHAR 01D1
ENCODING 465
SWIDTH 851 0
DWIDTH 23 0
BBX 21 24 1 0
BITMAP
018E00
00F800
007000
000000
00FC00
07FF00
0E03C0
1C00E0
300070
700030
600038
600018
C00018
C00018
C00018
C00018
600018
600038
700030
380070
1C00E0
0E03C0
07FF00
01FC00
ENDCHAR
STARTCHAR 01D2
ENCODING 466
SWIDTH 666 0
DWIDTH 18 0
BBX 16 20 1 0
BITMAP
1C38
0E60
03C0
0180
0000
07E0
1FF8
381C
700E
6006
E006
C007
C003
C006
E006
6006
700C
381C
1FF8
07E0
ENDCHAR
STARTCHAR 01D3
ENCODING 467
SWIDTH 666 0
DWIDTH 18 0
BBX 14 25 2 0
BITMAP
3860
1CC0
0780
0300
0000
C00C
C00C
C00C
C00C
C00C
C00C
C00C
C00C
C00C
C00C
C00C
C00C
C00C
C00C
C018
E018
6018
7030
3FE0
0FC0
ENDCHAR
STARTCHAR 01D4
ENCODING 468
SWIDTH 592 0
DWIDTH 16 0
BBX 13 20 2 0
BITMAP
30C0
1D80
0F00
0000
0000
C018
C018
C018
C018
C018
C018
C018
C018
C018
C018
C038
E038
7078
3FD8
1F18
ENDCHAR
STARTCHAR 01D7
ENCODING 471
SWIDTH 666 0
DWIDTH 18 0
BBX 14 30 2 1
BITMAP
00E0
03C0
0700
0600
0000
0CC0
0CC0
0CC0
0000
0000
C00C
C00C
C00C
C00C
C00C
C00C
C00C
C00C
C00C
C00C
C00C
C00C
C00C
C00C
C018
E018
6018
7030
3FE0
0FC0
ENDCHAR
STARTCHAR 01D8
ENCODING 472
SWIDTH 592 0
DWIDTH 16 0
BBX 13 26 2 0
BITMAP
00C0
01C0
0780
0E00
0000
0000
1980
1980
1980
0000
0000
C018
C018
C018
C018
C018
C018
C018
C018
C018
C018
C038
E038
7078
3FD8
1F18
ENDCHAR
STARTCHAR 01D9
ENCODING 473
SWIDTH 666 0
DWIDTH 18 0
BBX 14 30 2 0
BITMAP
3860
1CC0
0780
0300
0000
0CC0
0CC0
0CC0
0000
0000
C00C
C00C
C00C
C00C
C00C
C00C
C00C
C00C
C00C
C00C
C00C
C00C
C00C
C00C
C018
E018
6018
7030
3FE0
0FC0
ENDCHAR
STARTCHAR 01DA
ENCODING 474
SWIDTH 592 0
DWIDTH 16 0
BBX 13 25 2 0
BITMAP
38C0
1D80
0F00
0000
0000
1980
1980
1980
0000
0000
C018
C018
C018
C018
C018
C018
C018
C018
C018
C018
C038
E038
7078
3FD8
1F18
ENDCHAR
STARTCHAR 01DB
ENCODING 475
SWIDTH 666 0
DWIDTH 18 0
BBX 14 30 2 1
BITMAP
1C00
0E00
0780
0100
0000
0CC0
0CC0
0CC0
0000
0000
C00C
C00C
C00C
C00C
C00C
C00C
C00C
C00C
C00C
C00C
C00C
C00C
C00C
C00C
C018
E018
6018
7030
3FE0
0FC0
ENDCHAR
STARTCHAR 01DC
ENCODING 476
SWIDTH 592 0
DWIDTH 16 0
BBX 13 26 2 0
BITMAP
1000
3C00
0E00
0700
0000
0000
1980
1980
1980
0000
0000
C018
C018
C018
C018
C018
C018
C018
C018
C018
C018
C038
E038
7078
3FD8
1F18
ENDCHAR
STARTCHAR 01DD
ENCODING 477
SWIDTH 666 0
DWIDTH 18 0
BBX 15 15 1 0
BITMAP
07E0
1FF0
383C
700C
6006
0006
0006
FFFE
FFFE
C006
6006
700C
381C
1FF0
07E0
ENDCHAR
STARTCHAR 01E6
ENCODING 486
SWIDTH 888 0
DWIDTH 24 0
BBX 21 24 1 0
BITMAP
018E00
00F800
007000
000000
00FC00
07FF80
0E03C0
1C00E0
300070
700030
600000
600000
C00000
C00000
C00000
C0FFF8
E0FFF8
600018
700030
300030
1C00E0
0E01C0
07FF80
00FC00
ENDCHAR
STARTCHAR 01E7
ENCODING 487
SWIDTH 666 0
DWIDTH 18 0
BBX 15 26 1 -6
BITMAP
1C30
0E60
07C0
0380
0000
07E6
1FF6
383E
700E
6006
C006
C006
C006
C006
E006
6006
700E
381E
1FF6
07C6
6006
6006
300C
3C1C
1FF8
03E0
ENDCHAR
STARTCHAR 01EA
ENCODING 490
SWIDTH 851 0
DWIDTH 23 0
BBX 21 26 1 -6
BITMAP
00FC00
07FF00
0E03C0
1C00E0
300070
700030
600038
600018
C00018
C00018
C00018
C00018
600018
600038
700030
380060
1C00E0
0E03C0
07FF00
01FC00
001800
003000
006000
007000
003C00
001C00
ENDCHAR
STARTCHAR 01EB
ENCODING 491
SWIDTH 666 0
DWIDTH 18 0
BBX 16 21 1 -6
BITMAP
07E0
1FF8
381C
700E
6006
E006
C007
C003
C006
E006
6006
700C
381C
1FF8
07E0
00C0
0180
0180
0180
01E0
00E0
ENDCHAR
STARTCHAR 01F0
ENCODING 496
SWIDTH 185 0
DWIDTH 5 0
BBX 8 25 -1 -5
BITMAP
C7
6E
3C
00
00
18
18
18
18
18
18
18
18
18
18
18
18
18
18
18
18
30
30
E0
C0
ENDCHAR
STARTCHAR 01F4
ENCODING 500
SWIDTH 888 0
DWIDTH 24 0
BBX 21 25 1 0
BITMAP
000400
001E00
007800
006000
000000
00FC00
07FF80
0E03C0
1C00E0
300070
700030
600000
600000
C00000
C00000
C00000
C0FFF8
E0FFF8
600018
700030
300030
1C00E0
0E01C0
07FF80
00FC00
ENDCHAR
STARTCHAR 01F5
ENCODING 501
SWIDTH 666 0
DWIDTH 18 0
BBX 15 26 1 -5
BITMAP
0060
01E0
0380
0300
0000
07E6
1FF6
383E
700E
6006
C006
C006
C006
C006
E006
6006
700E
381E
1FF6
07C6
6006
6006
300C
3C1C
1FF8
03E0
ENDCHAR
STARTCHAR 01FA
ENCODING 506
SWIDTH 740 0
DWIDTH 20 0
BBX 18 32 1 0
BITMAP
001800
007800
00E000
018000
000000
00E000
012000
033000
033000
012000
01E000
000000
00C000
01E000
01E000
033000
033000
073000
061800
061800
0C0C00
0C0C00
180E00
1FFE00
3FFE00
300300
300300
600180
600180
C001C0
C000C0
C000C0
ENDCHAR
STARTCHAR 01FB
ENCODING 507
SWIDTH 666 0
DWIDTH 18 0
BBX 16 26 1 0
BITMAP
0030
00E0
03C0
0300
0000
03C0
0640
0460
0640
0380
0000
07E3
1FFB
381F
700F
6007
E007
C003
C003
C003
E007
6007
700F
381B
1FF3
07E3
ENDCHAR
STARTCHAR 01FC
ENCODING 508
SWIDTH 1000 0
DWIDTH 27 0
BBX 24 25 1 1
BITMAP
0000C0
0003C0
000700
000400
000000
0007FF
000FFF
001F00
001B00
003300
007300
006300
00E300
01C300
0183FF
0383FF
070300
0FFF00
0FFF00
1C0300
380300
300300
700300
E003FF
C003FF
ENDCHAR
STARTCHAR 01FD
ENCODING 509
SWIDTH 1148 0
DWIDTH 31 0
BBX 29 20 1 1
BITMAP
0000C000
0003C000
00070000
00040000
00000000
07E31F80
1FFB7FC0
381FE0E0
700F8030
60078018
E0030018
C003FFF8
C003FFF8
C0030000
E0070000
60078038
700FC030
381FE0E0
1FF37FC0
07E31F00
ENDCHAR
STARTCHAR 01FE
ENCODING 510
SWIDTH 851 0
DWIDTH 23 0
BBX 21 27 1 -2
BITMAP
000400
001C00
007800
006020
000030
01FC60
07FFC0
0E03C0
1C01E0
300370
700630
600E38
600C18
C01818
C03018
C07018
C0E018
60C018
618038
730030
370070
1E00E0
0E03C0
1FFF00
39FC00
700000
200000
ENDCHAR
STARTCHAR 01FF
ENCODING 511
SWIDTH 666 0
DWIDTH 18 0
BBX 15 21 1 0
BITMAP
0070
00E0
0380
0300
0004
07EE
1FFC
381C
703C
6066
E0E6
C1C6
C186
C306
C606
6E06
7C0C
381C
3FF8
67E0
2000
ENDCHAR
STARTCHAR 0200
ENCODING 512
SWIDTH 740 0
DWIDTH 20 0
BBX 18 25 1 1
BITMAP
318000
1CE000
0E7000
021000
000000
00C000
01E000
01E000
033000
033000
073000
061800
061800
0C0C00
0C0C00
180E00
1FFE00
3FFE00
300300
300300
600180
600180
C001C0
C000C0
C000C0
ENDCHAR
STARTCHAR 0201
ENCODING 513
SWIDTH 666 0
DWIDTH 18 0
BBX 16 20 1 0
BITMAP
6300
7380
18E0
0C60
0000
07E3
1FFB
381F
700F
6007
E007
C003
C003
C003
E007
6007
700F
381B
1FF3
07E3
ENDCHAR
STARTCHAR 0204
ENCODING 516
SWIDTH 518 0
DWIDTH 14 0
BBX 13 26 0 0
BITMAP
0200
E300
7180
18E0
0840
0000
3FF8
3FF8
3000
3000
3000
3000
3000
3000
3000
3FF8
3FF8
3000
3000
3000
3000
3000
3000
3000
3FF8
3FF8
ENDCHAR
STARTCHAR 0205
ENCODING 517
SWIDTH 666 0
DWIDTH 18 0
BBX 15 20 1 0
BITMAP
6300
7380
38E0
0C60
0000
07E0
1FF8
381C
700C
6006
C006
FFFE
FFFE
C000
C000
6006
700C
3818
1FF0
07C0
ENDCHAR
STARTCHAR 0208
ENCODING 520
SWIDTH 222 0
DWIDTH 6 0
BBX 10 25 -4 1
BITMAP
C700
7380
38C0
0840
0000
0300
0300
0300
0300
0300
0300
0300
0300
0300
0300
0300
0300
0300
0300
0300
0300
0300
0300
0300
0300
ENDCHAR
STARTCHAR 0209
ENCODING 521
SWIDTH 185 0
DWIDTH 5 0
BBX 11 21 -5 0
BITMAP
4000
E300
71C0
1CE0
0820
0000
0180
0180
0180
0180
0180
0180
0180
0180
0180
0180
0180
0180
0180
0180
0180
ENDCHAR
STARTCHAR 020C
ENCODING 524
SWIDTH 851 0
DWIDTH 23 0
BBX 21 25 1 0
BITMAP
086000
0E7000
071C00
018C00
000000
00FC00
07FF00
0E03C0
1C00E0
300070
700030
600038
600018
C00018
C00018
C00018
C00018
600018
600038
700030
380070
1C00E0
0E03C0
07FF00
01FC00
ENDCHAR
STARTCHAR 020D
ENCODING 525
SWIDTH 666 0
DWIDTH 18 0
BBX 16 20 1 0
BITMAP
6300
7380
18E0
0C60
0000
07E0
1FF8
381C
700E
6006
E006
C007
C003
C006
E006
6006
700C
381C
1FF8
07E0
ENDCHAR
STARTCHAR 0210
ENCODING 528
SWIDTH 592 0
DWIDTH 16 0
BBX 15 25 1 1
BITMAP
C700
7380
38C0
0840
0000
7FC0
7FF0
6038
600C
600C
600E
6006
600E
600C
600C
6038
67F0
6380
6180
60C0
60E0
6070
6030
6018
601C
ENDCHAR
STARTCHAR 0211
ENCODING 529
SWIDTH 296 0
DWIDTH 8 0
BBX 11 20 -3 0
BITMAP
C600
E700
31C0
18C0
0000
0660
07E0
0780
0700
0600
0600
0600
0600
0600
0600
0600
0600
0600
0600
0600
ENDCHAR
STARTCHAR 0214
ENCODING 532
SWIDTH 666 0
DWIDTH 18 0
BBX 14 26 2 0
BITMAP
8000
C600
6380
39C0
1840
0000
C00C
C00C
C00C
C00C
C00C
C00C
C00C
C00C
C00C
C00C
C00C
C00C
C00C
C00C
C018
E018
6018
7030
3FE0
0FC0
ENDCHAR
STARTCHAR 0215
ENCODING 533
SWIDTH 592 0
DWIDTH 16 0
BBX 14 20 1 1
BITMAP
C700
7380
38C0
0840
0000
600C
600C
600C
600C
600C
600C
600C
600C
600C
600C
601C
701C
383C
1FEC
0F8C
ENDCHAR
STARTCHAR 0218
ENCODING 536
SWIDTH 481 0
DWIDTH 13 0
BBX 12 26 1 -6
BITMAP
1F00
3FC0
70E0
6060
C060
C000
E000
7000
3C00
1F80
03C0
00E0
0070
0030
C030
C030
E060
70E0
3FC0
1F00
0000
0600
0600
0C00
0C00
0C00
ENDCHAR
STARTCHAR 0219
ENCODING 537
SWIDTH 370 0
DWIDTH 10 0
BBX 10 21 0 -6
BITMAP
1E00
3F80
7180
6180
6000
7000
3C00
0F00
0380
01C0
C0C0
60C0
6180
3F80
1E00
0000
0C00
0C00
0C00
0C00
1800
ENDCHAR
STARTCHAR 021A
ENCODING 538
SWIDTH 444 0
DWIDTH 12 0
BBX 11 26 0 -6
BITMAP
FFE0
FFE0
0600
0600
0600
0600
0600
0600
0600
0600
0600
0600
0600
0600
0600
0600
0600
0600
0600
0600
0000
0600
0600
0C00
0C00
0C00
ENDCHAR
STARTCHAR 021B
ENCODING 539
SWIDTH 333 0
DWIDTH 9 0
BBX 9 26 0 -6
BITMAP
1C00
1C00
1C00
1C00
1C00
FF80
FF80
1C00
1C00
1C00
1C00
1C00
1C00
1C00
1C00
1C00
1C00
1C00
1C00
1C00
0000
0C00
0800
1800
1800
1800
ENDCHAR
STARTCHAR 0237
ENCODING 567
SWIDTH 185 0
DWIDTH 5 0
BBX 5 20 -1 -5
BITMAP
18
18
18
18
18
18
18
18
18
18
18
18
18
18
18
18
30
30
E0
C0
ENDCHAR
STARTCHAR 0258
ENCODING 600
SWIDTH 666 0
DWIDTH 18 0
BBX 15 15 1 0
BITMAP
07E0
1FF8
381C
700C
6006
C006
FFFE
FFFE
0006
0006
6006
700C
3838
1FF0
07C0
ENDCHAR
STARTCHAR 0259
ENCODING 601
SWIDTH 666 0
DWIDTH 18 0
BBX 15 15 1 0
BITMAP
07E0
1FF0
383C
700C
6006
0006
0006
FFFE
FFFE
C006
6006
700C
381C
1FF0
07E0
ENDCHAR
STARTCHAR 02BE
ENCODING 702
SWIDTH 518 0
DWIDTH 14 0
BBX 10 11 2 8
BITMAP
3E00
7F80
C1C0
C0C0
00C0
0040
00C0
C0C0
E180
7F00
1C00
ENDCHAR
STARTCHAR 02BF
ENCODING 703
SWIDTH 518 0
DWIDTH 14 0
BBX 10 11 2 8
BITMAP
1F00
7F80
61C0
C0C0
C000
8000
C000
C0C0
61C0
3F80
0E00
ENDCHAR
STARTCHAR 02C6
ENCODING 710
SWIDTH 518 0
DWIDTH 14 0
BBX 8 3 3 17
BITMAP
38
7C
E7
ENDCHAR
STARTCHAR 02C7
ENCODING 711
SWIDTH 518 0
DWIDTH 14 0
BBX 8 3 3 17
BITMAP
C7
6E
3C
ENDCHAR
STARTCHAR 02D8
ENCODING 728
SWIDTH 444 0
DWIDTH 12 0
BBX 8 4 2 16
BITMAP
C3
C3
7E
18
ENDCHAR
STARTCHAR 02D9
ENCODING 729
SWIDTH 222 0
DWIDTH 6 0
BBX 2 3 2 17
BITMAP
C0
C0
C0
ENDCHAR
STARTCHAR 02DA
ENCODING 730
SWIDTH 333 0
DWIDTH 9 0
BBX 5 5 2 16
BITMAP
70
D8
88
88
70
ENDCHAR
STARTCHAR 02DB
ENCODING 731
SWIDTH 296 0
DWIDTH 8 0
BBX 4 7 2 -7
BITMAP
60
C0
C0
C0
C0
F0
70
ENDCHAR
STARTCHAR 02DC
ENCODING 732
SWIDTH 444 0
DWIDTH 12 0
BBX 8 4 2 16
BITMAP
20
F2
8F
04
ENDCHAR
STARTCHAR 02DD
ENCODING 733
SWIDTH 555 0
DWIDTH 15 0
BBX 11 5 4 16
BITMAP
0800
18E0
31C0
E700
C200
ENDCHAR
STARTCHAR 0300
ENCODING 768
SWIDTH 0 0
DWIDTH 0 0
BBX 6 4 -13 17
BITMAP
E0
70
3C
08
ENDCHAR
STARTCHAR 0301
ENCODING 769
SWIDTH 0 0
DWIDTH 0 0
BBX 6 4 -11 17
BITMAP
1C
78
E0
C0
ENDCHAR
STARTCHAR 0302
ENCODING 770
SWIDTH 0 0
DWIDTH 0 0
BBX 8 3 -13 17
BITMAP
38
7C
E7
ENDCHAR
STARTCHAR 0303
ENCODING 771
SWIDTH 0 0
DWIDTH 0 0
BBX 8 4 -13 16
BITMAP
60
F2
9F
04
ENDCHAR
STARTCHAR 0304
ENCODING 772
SWIDTH 0 0
DWIDTH 0 0
BBX 9 2 -14 17
BITMAP
FF80
FF80
ENDCHAR
STARTCHAR 0305
ENCODING 773
SWIDTH 0 0
DWIDTH 0 0
BBX 8 2 -10 18
BITMAP
FF
FF
ENDCHAR
STARTCHAR 0306
ENCODING 774
SWIDTH 0 0
DWIDTH 0 0
BBX 8 4 -13 16
BITMAP
83
C3
7E
10
ENDCHAR
STARTCHAR 0307
ENCODING 775
SWIDTH 0 0
DWIDTH 0 0
BBX 2 3 -10 17
BITMAP
C0
C0
C0
ENDCHAR
STARTCHAR 0308
ENCODING 776
SWIDTH 0 0
DWIDTH 0 0
BBX 6 3 -12 17
BITMAP
CC
CC
CC
ENDCHAR
STARTCHAR 0309
ENCODING 777
SWIDTH 0 0
DWIDTH 0 0
BBX 5 5 -12 16
BITMAP
78
C8
18
18
30
ENDCHAR
STARTCHAR 030A
ENCODING 778
SWIDTH 0 0
DWIDTH 0 0
BBX 6 5 -12 16
BITMAP
70
D8
8C
C8
78
ENDCHAR
STARTCHAR 030B
ENCODING 779
SWIDTH 0 0
DWIDTH 0 0
BBX 10 4 -12 17
BITMAP
38C0
7380
C700
8400
ENDCHAR
STARTCHAR 030C
ENCODING 780
SWIDTH 0 0
DWIDTH 0 0
BBX 8 3 -13 17
BITMAP
C3
6E
3C
ENDCHAR
STARTCHAR 030F
ENCODING 783
SWIDTH 0 0
DWIDTH 0 0
BBX 10 5 -16 16
BITMAP
8000
C600
6380
39C0
1040
ENDCHAR
STARTCHAR 0311
ENCODING 785
SWIDTH 0 0
DWIDTH 0 0
BBX 8 4 -13 16
BITMAP
10
7E
C7
83
ENDCHAR
STARTCHAR 0323
ENCODING 803
SWIDTH 0 0
DWIDTH 0 0
BBX 2 3 -10 -5
BITMAP
C0
C0
C0
ENDCHAR
STARTCHAR 0326
ENCODING 806
SWIDTH 0 0
DWIDTH 0 0
BBX 3 5 -11 -6
BITMAP
60
60
C0
C0
C0
ENDCHAR
STARTCHAR 0327
ENCODING 807
SWIDTH 0 0
DWIDTH 0 0
BBX 5 6 -11 -7
BITMAP
40
F0
F8
08
98
F0
ENDCHAR
STARTCHAR 0328
ENCODING 808
SWIDTH 0 0
DWIDTH 0 0
BBX 5 7 -12 -7
BITMAP
30
60
60
C0
60
78
38
ENDCHAR
STARTCHAR 032C
ENCODING 812
SWIDTH 0 0
DWIDTH 0 0
BBX 8 3 -13 -5
BITMAP
C7
7C
38
ENDCHAR
STARTCHAR 032D
ENCODING 813
SWIDTH 0 0
DWIDTH 0 0
BBX 8 3 -13 -5
BITMAP
3C
6E
C3
ENDCHAR
STARTCHAR 032E
ENCODING 814
SWIDTH 0 0
DWIDTH 0 0
BBX 8 3 -13 -5
BITMAP
C3
FE
7C
ENDCHAR
STARTCHAR 032F
ENCODING 815
SWIDTH 0 0
DWIDTH 0 0
BBX 8 4 -13 -5
BITMAP
10
7E
C3
83
ENDCHAR
STARTCHAR 0330
ENCODING 816
SWIDTH 0 0
DWIDTH 0 0
BBX 8 3 -13 -5
BITMAP
72
FF
04
ENDCHAR
STARTCHAR 0331
ENCODING 817
SWIDTH 0 0
DWIDTH 0 0
BBX 9 2 -14 -4
BITMAP
FF80
FF80
ENDCHAR
STARTCHAR 0332
ENCODING 818
SWIDTH 0 0
DWIDTH 0 0
BBX 8 2 -10 -4
BITMAP
FF
FF
ENDCHAR
STARTCHAR 0333
ENCODING 819
SWIDTH 0 0
DWIDTH 0 0
BBX 8 6 -10 -8
BITMAP
FF
FF
00
00
FF
FF
ENDCHAR
STARTCHAR 0338
ENCODING 824
SWIDTH 0 0
DWIDTH 0 0
BBX 9 22 -10 -4
BITMAP
0180
0180
0300
0300
0300
0600
0600
0E00
0C00
0C00
1C00
1800
1800
3800
3000
3000
6000
6000
6000
C000
C000
C000
ENDCHAR
STARTCHAR 033F
ENCODING 831
SWIDTH 0 0
DWIDTH 0 0
BBX 8 6 -10 18
BITMAP
FF
FF
00
00
FF
FF
ENDCHAR
STARTCHAR 034D
ENCODING 845
SWIDTH 0 0
DWIDTH 0 0
BBX 16 8 -14 -9
BITMAP
0630
1E38
780E
FFFF
FFFF
381E
0E38
0620
ENDCHAR
STARTCHAR 0361
ENCODING 865
SWIDTH 259 0
DWIDTH 7 0
BBX 8 3 3 18
BITMAP
3E
FF
C3
ENDCHAR
STARTCHAR 0391
ENCODING 913
SWIDTH 740 0
DWIDTH 20 0
BBX 18 20 1 0
BITMAP
00C000
01E000
01E000
033000
033000
073000
061800
061800
0C0C00
0C0C00
180E00
1FFE00
3FFE00
300300
300300
600180
600180
C001C0
C000C0
C000C0
ENDCHAR
STARTCHAR 0392
ENCODING 914
SWIDTH 592 0
DWIDTH 16 0
BBX 13 20 2 0
BITMAP
FF00
FFC0
C0E0
C060
C070
C030
C060
C060
C0E0
FFC0
FFE0
C070
C030
C018
C018
C018
C030
C070
FFE0
FF80
ENDCHAR
STARTCHAR 0393
ENCODING 915
SWIDTH 481 0
DWIDTH 13 0
BBX 10 20 2 0
BITMAP
FFC0
FFC0
C000
C000
C000
C000
C000
C000
C000
C000
C000
C000
C000
C000
C000
C000
C000
C000
C000
C000
ENDCHAR
STARTCHAR 0394
ENCODING 916
SWIDTH 629 0
DWIDTH 17 0
BBX 17 18 0 0
BITMAP
01C000
01C000
03E000
036000
037000
063000
063800
0E1800
0C1800
0C0C00
180C00
180E00
380600
300700
700300
600300
7FFF80
FFFF80
ENDCHAR
STARTCHAR 0395
ENCODING 917
SWIDTH 518 0
DWIDTH 14 0
BBX 11 20 2 0
BITMAP
FFE0
FFE0
C000
C000
C000
C000
C000
C000
C000
FFE0
FFE0
C000
C000
C000
C000
C000
C000
C000
FFE0
FFE0
ENDCHAR
STARTCHAR 0396
ENCODING 918
SWIDTH 481 0
DWIDTH 13 0
BBX 13 20 0 0
BITMAP
7FF0
7FF0
0030
0060
0060
00C0
01C0
0180
0380
0300
0600
0E00
0C00
1C00
1800
3000
7000
6000
FFF8
FFF8
ENDCHAR
STARTCHAR 0397
ENCODING 919
SWIDTH 666 0
DWIDTH 18 0
BBX 14 20 2 0
BITMAP
C00C
C00C
C00C
C00C
C00C
C00C
C00C
C00C
C00C
FFFC
FFFC
C00C
C00C
C00C
C00C
C00C
C00C
C00C
C00C
C00C
ENDCHAR
STARTCHAR 0398
ENCODING 920
SWIDTH 851 0
DWIDTH 23 0
BBX 21 20 1 0
BITMAP
00FC00
07FF00
0E03C0
1C00E0
300070
700030
600038
600018
C00018
C1FE18
C1FE18
C00018
600018
600038
700030
380070
1C00E0
0E03C0
07FF00
01FC00
ENDCHAR
STARTCHAR 0399
ENCODING 921
SWIDTH 222 0
DWIDTH 6 0
BBX 2 20 2 0
BITMAP
C0
C0
C0
C0
C0
C0
C0
C0
C0
C0
C0
C0
C0
C0
C0
C0
C0
C0
C0
C0
ENDCHAR
STARTCHAR 039A
ENCODING 922
SWIDTH 592 0
DWIDTH 16 0
BBX 13 20 2 0
BITMAP
C018
C038
C070
C0E0
C0C0
C180
C380
C700
CE00
CC00
DC00
F600
F300
E380
C1C0
C0C0
C060
C070
C038
C018
ENDCHAR
STARTCHAR 039B
ENCODING 923
SWIDTH 740 0
DWIDTH 20 0
BBX 18 20 1 0
BITMAP
00C000
01E000
01E000
037000
033000
073000
061800
061800
0C0C00
0C0C00
180E00
180600
380600
300300
300300
600180
600180
C001C0
C000C0
C000C0
ENDCHAR
STARTCHAR 039C
ENCODING 924
SWIDTH 925 0
DWIDTH 25 0
BBX 21 20 2 0
BITMAP
E00078
F00078
F00078
D800D8
D800D8
D80198
CC0198
CC0398
C60318
C60318
C30618
C30618
C30C18
C18C18
C19C18
C0D818
C0D818
C0F018
C07018
C06018
ENDCHAR
STARTCHAR 039D
ENCODING 925
SWIDTH 740 0
DWIDTH 20 0
BBX 16 20 2 0
BITMAP
E003
F003
F003
D803
DC03
CC03
C603
C703
C303
C183
C1C3
C0E3
C063
C033
C03B
C01B
C00F
C00F
C007
C003
ENDCHAR
STARTCHAR 039E
ENCODING 926
SWIDTH 666 0
DWIDTH 18 0
BBX 16 20 1 0
BITMAP
FFFF
FFFF
0000
0000
0000
0000
0000
0000
0000
3FFC
3FFC
0000
0000
0000
0000
0000
0000
0000
FFFF
FFFF
ENDCHAR
STARTCHAR 039F
ENCODING 927
SWIDTH 851 0
DWIDTH 23 0
BBX 21 20 1 0
BITMAP
00FC00
07FF00
0E03C0
1C00E0
300070
700030
600038
600018
C00018
C00018
C00018
C00018
600018
600038
700030
380070
1C00E0
0E03C0
07FF00
01FC00
ENDCHAR
STARTCHAR 03A0
ENCODING 928
SWIDTH 629 0
DWIDTH 17 0
BBX 14 18 2 0
BITMAP
FFFC
FFFC
C00C
C00C
C00C
C00C
C00C
C00C
C00C
C00C
C00C
C00C
C00C
C00C
C00C
C00C
C00C
C00C
ENDCHAR
STARTCHAR 03A1
ENCODING 929
SWIDTH 592 0
DWIDTH 16 0
BBX 13 20 2 0
BITMAP
FFC0
FFF0
C030
C018
C018
C018
C018
C018
C018
C070
FFE0
FF80
C000
C000
C000
C000
C000
C000
C000
C000
ENDCHAR
STARTCHAR 03A3
ENCODING 931
SWIDTH 444 0
DWIDTH 12 0
BBX 12 18 0 0
BITMAP
FFF0
FFF0
6000
7000
3800
1800
1C00
0C00
0600
0E00
0C00
1C00
1800
3000
7000
6000
FFF0
FFF0
ENDCHAR
STARTCHAR 03A4
ENCODING 932
SWIDTH 444 0
DWIDTH 12 0
BBX 11 20 0 0
BITMAP
FFE0
FFE0
0600
0600
0600
0600
0600
0600
0600
0600
0600
0600
0600
0600
0600
0600
0600
0600
0600
0600
ENDCHAR
STARTCHAR 03A5
ENCODING 933
SWIDTH 592 0
DWIDTH 16 0
BBX 16 20 0 0
BITMAP
E007
6006
700E
300C
381C
1818
1C38
0C30
0E60
0660
07C0
03C0
0180
0180
0180
0180
0180
0180
0180
0180
ENDCHAR
STARTCHAR 03A6
ENCODING 934
SWIDTH 814 0
DWIDTH 22 0
BBX 18 20 2 0
BITMAP
00C000
00C000
00C000
00C000
07F800
1FFE00
78C780
E0C180
C0C0C0
C0C0C0
C0C0C0
C0C0C0
E0C180
78C780
3FFE00
07F800
00C000
00C000
00C000
00C000
ENDCHAR
STARTCHAR 03A7
ENCODING 935
SWIDTH 592 0
DWIDTH 16 0
BBX 15 20 1 0
BITMAP
C00C
601C
7018
3038
1830
1C60
0CE0
0EC0
0780
0380
0780
07C0
0EC0
0C60
1870
3830
3018
601C
E00C
C006
ENDCHAR
STARTCHAR 03A8
ENCODING 936
SWIDTH 777 0
DWIDTH 21 0
BBX 18 20 2 0
BITMAP
C0C0C0
C0C0C0
C0C0C0
C0C0C0
C0C0C0
C0C0C0
C0C0C0
C0C1C0
E0C180
60C380
70C700
3CCE00
0FFC00
07F000
00C000
00C000
00C000
00C000
00C000
00C000
ENDCHAR
STARTCHAR 03A9
ENCODING 937
SWIDTH 814 0
DWIDTH 22 0
BBX 20 19 1 0
BITMAP
01F800
07FE00
1F0F00
380380
3001C0
6000E0
600060
C00060
C00070
C00070
C00070
C00060
E00060
6000E0
7000C0
3801C0
1E0780
7F0FC0
7F0FC0
ENDCHAR
STARTCHAR 03B1
ENCODING 945
SWIDTH 703 0
DWIDTH 19 0
BBX 15 15 2 0
BITMAP
0F86
1FE6
386C
603C
E03C
C01C
C018
C018
C018
C038
C038
603C
786C
1FC6
0F82
ENDCHAR
STARTCHAR 03B2
ENCODING 946
SWIDTH 481 0
DWIDTH 13 0
BBX 10 26 1 -5
BITMAP
0F00
3F80
3180
60C0
60C0
60C0
60C0
61C0
6380
6F00
6F00
6380
61C0
60C0
60C0
60C0
60C0
60C0
71C0
7F80
7F00
6000
6000
6000
C000
C000
ENDCHAR
STARTCHAR 03B3
ENCODING 947
SWIDTH 481 0
DWIDTH 13 0
BBX 14 19 0 -4
BITMAP
E00C
700C
3818
1818
1C38
0C30
0E30
0660
0660
07E0
03C0
03C0
0380
0380
0300
0300
0300
0300
0300
ENDCHAR
STARTCHAR 03B4
ENCODING 948
SWIDTH 703 0
DWIDTH 19 0
BBX 15 20 2 0
BITMAP
3FF8
3FF8
1C00
0F00
0380
0FE0
1FF0
3038
600C
C00E
C006
C006
C006
C006
C006
E00E
600C
3838
1FF0
07C0
ENDCHAR
STARTCHAR 03B5
ENCODING 949
SWIDTH 481 0
DWIDTH 13 0
BBX 10 17 2 -1
BITMAP
1F00
7FC0
60C0
C000
C000
C000
6000
7E00
7E00
E000
C000
C000
C000
C000
70C0
7FC0
1F00
ENDCHAR
STARTCHAR 03B6
ENCODING 950
SWIDTH 407 0
DWIDTH 11 0
BBX 8 25 2 -5
BITMAP
FF
FF
0C
18
30
30
60
60
C0
C0
C0
C0
C0
C0
C0
C0
C0
60
7C
3E
06
03
03
03
03
ENDCHAR
STARTCHAR 03B7
ENCODING 951
SWIDTH 592 0
DWIDTH 16 0
BBX 13 20 2 -5
BITMAP
CF80
FFE0
F070
E030
C030
C018
C018
C018
C018
C018
C018
C018
C018
C018
C018
0018
0018
0018
0018
0018
ENDCHAR
STARTCHAR 03B8
ENCODING 952
SWIDTH 555 0
DWIDTH 15 0
BBX 11 20 2 0
BITMAP
1F00
3F80
71C0
60C0
C0C0
C060
C060
C060
C060
FFE0
FFE0
C060
C060
C060
C060
C0C0
60C0
7180
3F80
1E00
ENDCHAR
STARTCHAR 03B9
ENCODING 953
SWIDTH 333 0
DWIDTH 9 0
BBX 4 15 3 0
BITMAP
C0
C0
C0
C0
C0
C0
C0
C0
C0
C0
40
60
60
70
30
ENDCHAR
STARTCHAR 03BA
ENCODING 954
SWIDTH 518 0
DWIDTH 14 0
BBX 11 15 2 0
BITMAP
C0E0
C1C0
C180
C300
C700
CE00
CC00
D800
FC00
FE00
E700
C380
C180
C0C0
C0E0
ENDCHAR
STARTCHAR 03BB
ENCODING 955
SWIDTH 592 0
DWIDTH 16 0
BBX 13 20 2 0
BITMAP
3000
3C00
0E00
0600
0300
0300
0300
0380
0780
0780
0EC0
0CC0
1CC0
1860
3860
3060
7070
6030
E030
C038
ENDCHAR
STARTCHAR 03BC
ENCODING 956
SWIDTH 592 0
DWIDTH 16 0
BBX 13 20 2 -5
BITMAP
C018
C018
C018
C018
C018
C018
C018
C018
C018
C018
C038
E038
F078
DFD8
CF98
C000
C000
C000
C000
C000
ENDCHAR
STARTCHAR 03BD
ENCODING 957
SWIDTH 481 0
DWIDTH 13 0
BBX 11 15 1 0
BITMAP
C0C0
C0C0
E060
6060
6060
6060
3060
30C0
30C0
38C0
1980
1B80
1F00
0E00
0C00
ENDCHAR
STARTCHAR 03BE
ENCODING 958
SWIDTH 407 0
DWIDTH 11 0
BBX 7 25 2 -5
BITMAP
FE
FE
60
C0
C0
C0
E0
70
3C
3C
70
E0
C0
C0
C0
C0
C0
E0
7C
3C
06
06
06
06
06
ENDCHAR
STARTCHAR 03BF
ENCODING 959
SWIDTH 666 0
DWIDTH 18 0
BBX 16 15 1 0
BITMAP
07E0
1FF8
381C
700E
6006
E006
C007
C003
C006
E006
6006
700C
381C
1FF8
07E0
ENDCHAR
STARTCHAR 03C0
ENCODING 960
SWIDTH 666 0
DWIDTH 18 0
BBX 14 15 2 0
BITMAP
FFFC
FFFC
3030
3030
3030
3030
3030
3030
3030
3030
3030
3030
3030
3018
3008
ENDCHAR
STARTCHAR 03C1
ENCODING 961
SWIDTH 592 0
DWIDTH 16 0
BBX 13 19 2 -4
BITMAP
0F80
3FC0
70E0
6070
C030
C030
C018
C018
C018
C030
C030
C070
F0E0
FFC0
CF00
C000
C000
C000
C000
ENDCHAR
STARTCHAR 03C2
ENCODING 962
SWIDTH 555 0
DWIDTH 15 0
BBX 11 20 2 -5
BITMAP
0F00
3F80
70C0
6060
C040
C000
C000
C000
C000
C000
C000
6000
7000
3F80
0FC0
00E0
0060
0060
0060
0060
ENDCHAR
STARTCHAR 03C3
ENCODING 963
SWIDTH 740 0
DWIDTH 20 0
BBX 17 16 2 0
BITMAP
000380
07FF80
1FF800
383800
601C00
E00E00
C00600
C00600
C00600
C00600
C00600
E00E00
600C00
383800
1FF000
07C000
ENDCHAR
STARTCHAR 03C4
ENCODING 964
SWIDTH 481 0
DWIDTH 13 0
BBX 9 15 2 0
BITMAP
FF80
FF80
1800
1800
1800
1800
1800
1800
1800
1C00
0C00
0C00
0600
0780
0180
ENDCHAR
STARTCHAR 03C5
ENCODING 965
SWIDTH 555 0
DWIDTH 15 0
BBX 11 15 2 0
BITMAP
C0C0
C0E0
C060
C060
C060
C060
C060
C060
C060
C060
C0E0
C0C0
E1C0
7F80
1E00
ENDCHAR
STARTCHAR 03C6
ENCODING 966
SWIDTH 703 0
DWIDTH 19 0
BBX 15 19 2 -4
BITMAP
1078
30FC
71CC
6186
C186
C186
C186
C186
C386
C386
E38E
738C
3BB8
1FF0
0FC0
0380
0380
0380
0380
ENDCHAR
STARTCHAR 03C7
ENCODING 967
SWIDTH 555 0
DWIDTH 15 0
BBX 11 19 2 -4
BITMAP
C060
E0E0
60C0
70C0
3180
3980
1B00
1F00
0E00
0E00
0E00
0F00
1B00
1B80
3180
31C0
60C0
60E0
C060
ENDCHAR
STARTCHAR 03C8
ENCODING 968
SWIDTH 703 0
DWIDTH 19 0
BBX 15 24 2 -4
BITMAP
0180
0180
0180
0180
0180
C186
C186
C186
C186
C186
C186
C186
C186
C186
C186
C186
C186
719C
3FF8
0FE0
0180
0180
0180
0180
ENDCHAR
STARTCHAR 03C9
ENCODING 969
SWIDTH 703 0
DWIDTH 19 0
BBX 16 15 2 0
BITMAP
C006
C006
C006
C003
C003
C183
C183
C183
C183
C183
C182
C386
63C6
7EFC
3C78
ENDCHAR
STARTCHAR 03D1
ENCODING 977
SWIDTH 592 0
DWIDTH 16 0
BBX 12 21 2 0
BITMAP
1F00
3F80
61C0
C0C0
C060
C060
E060
7860
3FF0
03F0
0060
C060
C060
C060
C060
C060
C060
E0C0
71C0
3F80
1F00
ENDCHAR
STARTCHAR 03D5
ENCODING 981
SWIDTH 666 0
DWIDTH 18 0
BBX 16 24 1 -4
BITMAP
0180
0180
0180
0180
0180
07E0
1FF8
399C
718C
6186
C186
C187
C183
C186
E186
6186
718E
399C
1FF8
07E0
0180
0180
0180
0180
ENDCHAR
STARTCHAR 03D6
ENCODING 982
SWIDTH 703 0
DWIDTH 19 0
BBX 16 20 2 0
BITMAP
07C0
3FF0
3838
000C
000C
C006
C006
C006
C006
C003
C183
C183
C183
C183
C183
C182
C386
63C6
7EFC
3C78
ENDCHAR
STARTCHAR 03F0
ENCODING 1008
SWIDTH 592 0
DWIDTH 16 0
BBX 14 15 1 0
BITMAP
4008
701C
301C
3838
1838
1870
19F0
1FE0
1E60
3860
3030
7030
7038
E01C
600C
ENDCHAR
STARTCHAR 03F1
ENCODING 1009
SWIDTH 703 0
DWIDTH 19 0
BBX 15 21 2 -6
BITMAP
07C0
1FF0
3838
601C
E00E
C006
C006
C006
C006
C006
E00E
E00C
F838
7FF0
77C0
3800
1C00
0FC0
03F8
001C
0006
ENDCHAR
STARTCHAR 03F4
ENCODING 1012
SWIDTH 814 0
DWIDTH 22 0
BBX 21 20 1 0
BITMAP
00FC00
07FF00
0E03C0
1C00E0
300070
700030
600038
600018
C00018
FFFFF8
FFFFF8
C00018
600018
600038
700030
380070
1C00E0
0E03C0
07FF00
01FC00
ENDCHAR
STARTCHAR 03F5
ENCODING 1013
SWIDTH 629 0
DWIDTH 17 0
BBX 15 15 1 0
BITMAP
07E0
1FF8
381C
700E
6000
C000
FFE0
FFE0
C000
E000
6000
700E
381C
1FF8
07E0
ENDCHAR
STARTCHAR 0E3F
ENCODING 3647
SWIDTH 592 0
DWIDTH 16 0
BBX 13 24 2 -2
BITMAP
0600
0600
FF00
FFC0
C0E0
C060
C070
C030
C060
C060
C0E0
FFC0
FFE0
C070
C030
C018
C018
C018
C030
C070
FFE0
FF80
0600
0600
ENDCHAR
STARTCHAR 1E0C
ENCODING 7692
SWIDTH 740 0
DWIDTH 20 0
BBX 17 25 2 -5
BITMAP
FFC000
FFF000
C03C00
C00E00
C00600
C00300
C00300
C00180
C00180
C00180
C00180
C00180
C00180
C00300
C00300
C00600
C00E00
C03C00
FFF000
FFC000
000000
000000
060000
060000
060000
ENDCHAR
STARTCHAR 1E0D
ENCODING 7693
SWIDTH 703 0
DWIDTH 19 0
BBX 16 24 1 -4
BITMAP
0003
0003
0003
0003
0003
07E3
1FFB
381F
700F
6007
E007
C003
C003
C003
E003
6007
700F
381B
1FF3
07E3
0000
0180
0180
0180
ENDCHAR
STARTCHAR 1E0E
ENCODING 7694
SWIDTH 740 0
DWIDTH 20 0
BBX 17 24 2 -4
BITMAP
FFC000
FFF000
C03C00
C00E00
C00600
C00300
C00300
C00180
C00180
C00180
C00180
C00180
C00180
C00300
C00300
C00600
C00E00
C03C00
FFF000
FFC000
000000
000000
7FE000
7FE000
ENDCHAR
STARTCHAR 1E0F
ENCODING 7695
SWIDTH 703 0
DWIDTH 19 0
BBX 16 24 1 -4
BITMAP
0003
0003
0003
0003
0003
07E3
1FFB
381F
700F
6007
E007
C003
C003
C003
E003
6007
700F
381B
1FF3
07E3
0000
0000
0FF8
0FF8
ENDCHAR
STARTCHAR 1E24
ENCODING 7716
SWIDTH 666 0
DWIDTH 18 0
BBX 14 25 2 -5
BITMAP
C00C
C00C
C00C
C00C
C00C
C00C
C00C
C00C
C00C
FFFC
FFFC
C00C
C00C
C00C
C00C
C00C
C00C
C00C
C00C
C00C
0000
0000
0300
0300
0300
ENDCHAR
STARTCHAR 1E25
ENCODING 7717
SWIDTH 592 0
DWIDTH 16 0
BBX 13 25 2 -5
BITMAP
C000
C000
C000
C000
C000
CF80
FFE0
F070
E030
C030
C018
C018
C018
C018
C018
C018
C018
C018
C018
C018
0000
0000
0600
0600
0600
ENDCHAR
STARTCHAR 1E26
ENCODING 7718
SWIDTH 666 0
DWIDTH 18 0
BBX 14 25 2 0
BITMAP
0CC0
0CC0
0CC0
0000
0000
C00C
C00C
C00C
C00C
C00C
C00C
C00C
C00C
C00C
FFFC
FFFC
C00C
C00C
C00C
C00C
C00C
C00C
C00C
C00C
C00C
ENDCHAR
STARTCHAR 1E27
ENCODING 7719
SWIDTH 592 0
DWIDTH 16 0
BBX 13 25 2 0
BITMAP
1980
1980
1980
0000
0000
C000
C000
C000
C000
C000
CF80
FFE0
F070
E030
C030
C018
C018
C018
C018
C018
C018
C018
C018
C018
C018
ENDCHAR
STARTCHAR 1E2A
ENCODING 7722
SWIDTH 666 0
DWIDTH 18 0
BBX 14 25 2 -5
BITMAP
C00C
C00C
C00C
C00C
C00C
C00C
C00C
C00C
C00C
FFFC
FFFC
C00C
C00C
C00C
C00C
C00C
C00C
C00C
C00C
C00C
0000
0000
1860
0FE0
07C0
ENDCHAR
STARTCHAR 1E2B
ENCODING 7723
SWIDTH 592 0
DWIDTH 16 0
BBX 13 25 2 -5
BITMAP
C000
C000
C000
C000
C000
CF80
FFE0
F070
E030
C030
C018
C018
C018
C018
C018
C018
C018
C018
C018
C018
0000
0000
30C0
1FC0
0F80
ENDCHAR
STARTCHAR 1E2E
ENCODING 7726
SWIDTH 222 0
DWIDTH 6 0
BBX 7 30 0 1
BITMAP
0E
1C
70
20
00
CC
CC
CC
00
00
30
30
30
30
30
30
30
30
30
30
30
30
30
30
30
30
30
30
30
30
ENDCHAR
STARTCHAR 1E2F
ENCODING 7727
SWIDTH 185 0
DWIDTH 5 0
BBX 7 26 0 0
BITMAP
04
1E
38
60
40
00
CC
CC
CC
00
00
30
30
30
30
30
30
30
30
30
30
30
30
30
30
30
ENDCHAR
STARTCHAR 1E36
ENCODING 7734
SWIDTH 444 0
DWIDTH 12 0
BBX 10 25 2 -5
BITMAP
C000
C000
C000
C000
C000
C000
C000
C000
C000
C000
C000
C000
C000
C000
C000
C000
C000
C000
FFC0
FFC0
0000
0000
0C00
0C00
0C00
ENDCHAR
STARTCHAR 1E37
ENCODING 7735
SWIDTH 185 0
DWIDTH 5 0
BBX 2 25 2 -5
BITMAP
C0
C0
C0
C0
C0
C0
C0
C0
C0
C0
C0
C0
C0
C0
C0
C0
C0
C0
C0
C0
00
00
C0
C0
C0
ENDCHAR
STARTCHAR 1E38
ENCODING 7736
SWIDTH 444 0
DWIDTH 12 0
BBX 14 29 -2 -5
BITMAP
FFC0
FFC0
0000
0000
0C00
0C00
0C00
0C00
0C00
0C00
0C00
0C00
0C00
0C00
0C00
0C00
0C00
0C00
0C00
0C00
0C00
0C00
0FFC
0FFC
0000
0000
00C0
00C0
00C0
ENDCHAR
STARTCHAR 1E39
ENCODING 7737
SWIDTH 185 0
DWIDTH 5 0
BBX 9 29 -2 -5
BITMAP
FF80
FF80
0000
0000
0C00
0C00
0C00
0C00
0C00
0C00
0C00
0C00
0C00
0C00
0C00
0C00
0C00
0C00
0C00
0C00
0C00
0C00
0C00
0C00
0000
0000
0C00
0C00
0C00
ENDCHAR
STARTCHAR 1E42
ENCODING 7746
SWIDTH 925 0
DWIDTH 25 0
BBX 21 25 2 -5
BITMAP
E00078
F00078
F00078
D800D8
D800D8
D80198
CC0198
CC0398
C60318
C60318
C30618
C30618
C30C18
C18C18
C19C18
C0D818
C0D818
C0F018
C07018
C06018
000000
000000
006000
006000
006000
ENDCHAR
STARTCHAR 1E43
ENCODING 7747
SWIDTH 925 0
DWIDTH 25 0
BBX 22 20 2 -5
BITMAP
DF07C0
FFCFF0
E0F838
C07018
C07018
C0300C
C0300C
C0300C
C0300C
C0300C
C0300C
C0300C
C0300C
C0300C
C0300C
000000
000000
003000
003000
003000
ENDCHAR
STARTCHAR 1E44
ENCODING 7748
SWIDTH 740 0
DWIDTH 20 0
BBX 16 25 2 0
BITMAP
0180
0180
0180
0000
0000
E003
F003
F003
D803
DC03
CC03
C603
C703
C303
C183
C1C3
C0E3
C063
C033
C03B
C01B
C00F
C00F
C007
C003
ENDCHAR
STARTCHAR 1E45
ENCODING 7749
SWIDTH 592 0
DWIDTH 16 0
BBX 13 19 2 0
BITMAP
0600
0600
0600
0000
CF80
FFE0
F070
E030
C030
C018
C018
C018
C018
C018
C018
C018
C018
C018
C018
ENDCHAR
STARTCHAR 1E46
ENCODING 7750
SWIDTH 740 0
DWIDTH 20 0
BBX 16 25 2 -5
BITMAP
E003
F003
F003
D803
DC03
CC03
C603
C703
C303
C183
C1C3
C0E3
C063
C033
C03B
C01B
C00F
C00F
C007
C003
0000
0000
0180
0180
0180
ENDCHAR
STARTCHAR 1E47
ENCODING 7751
SWIDTH 592 0
DWIDTH 16 0
BBX 13 20 2 -5
BITMAP
CF80
FFE0
F070
E030
C030
C018
C018
C018
C018
C018
C018
C018
C018
C018
C018
0000
0000
0600
0600
0600
ENDCHAR
STARTCHAR 1E58
ENCODING 7768
SWIDTH 592 0
DWIDTH 16 0
BBX 14 25 2 0
BITMAP
0600
0600
0600
0000
0000
FF80
FFE0
C070
C018
C018
C01C
C00C
C01C
C018
C018
C070
CFE0
C700
C300
C180
C1C0
C0E0
C060
C030
C038
ENDCHAR
STARTCHAR 1E59
ENCODING 7769
SWIDTH 296 0
DWIDTH 8 0
BBX 6 19 2 0
BITMAP
60
60
60
00
CC
FC
F0
E0
C0
C0
C0
C0
C0
C0
C0
C0
C0
C0
C0
ENDCHAR
STARTCHAR 1E5A
ENCODING 7770
SWIDTH 592 0
DWIDTH 16 0
BBX 14 25 2 -5
BITMAP
FF80
FFE0
C070
C018
C018
C01C
C00C
C01C
C018
C018
C070
CFE0
C700
C300
C180
C1C0
C0E0
C060
C030
C038
0000
0000
0600
0600
0600
ENDCHAR
STARTCHAR 1E5B
ENCODING 7771
SWIDTH 296 0
DWIDTH 8 0
BBX 6 20 2 -5
BITMAP
CC
FC
F0
E0
C0
C0
C0
C0
C0
C0
C0
C0
C0
C0
C0
00
00
C0
C0
C0
ENDCHAR
STARTCHAR 1E5C
ENCODING 7772
SWIDTH 592 0
DWIDTH 16 0
BBX 14 29 2 -5
BITMAP
3FE0
3FE0
0000
0000
FF80
FFE0
C070
C018
C018
C01C
C00C
C01C
C018
C018
C070
CFE0
C700
C300
C180
C1C0
C0E0
C060
C030
C038
0000
0000
0600
0600
0600
ENDCHAR
STARTCHAR 1E5D
ENCODING 7773
SWIDTH 296 0
DWIDTH 8 0
BBX 9 24 -1 -5
BITMAP
FF80
FF80
0000
0000
1980
1F80
1E00
1C00
1800
1800
1800
1800
1800
1800
1800
1800
1800
1800
1800
0000
0000
1800
1800
1800
ENDCHAR
STARTCHAR 1E62
ENCODING 7778
SWIDTH 481 0
DWIDTH 13 0
BBX 12 24 1 -4
BITMAP
1F00
3FC0
70E0
6060
C060
C000
E000
7000
3C00
1F80
03C0
00E0
0070
0030
C030
C030
E060
70E0
3FC0
1F00
0000
0600
0600
0600
ENDCHAR
STARTCHAR 1E63
ENCODING 7779
SWIDTH 370 0
DWIDTH 10 0
BBX 10 19 0 -4
BITMAP
1E00
3F80
7180
6180
6000
7000
3C00
0F00
0380
01C0
C0C0
60C0
6180
3F80
1E00
0000
0C00
0C00
0C00
ENDCHAR
STARTCHAR 1E6C
ENCODING 7788
SWIDTH 444 0
DWIDTH 12 0
BBX 11 25 0 -5
BITMAP
FFE0
FFE0
0600
0600
0600
0600
0600
0600
0600
0600
0600
0600
0600
0600
0600
0600
0600
0600
0600
0600
0000
0000
0600
0600
0600
ENDCHAR
STARTCHAR 1E6D
ENCODING 7789
SWIDTH 333 0
DWIDTH 9 0
BBX 9 25 0 -5
BITMAP
1C00
1C00
1C00
1C00
1C00
FF80
FF80
1C00
1C00
1C00
1C00
1C00
1C00
1C00
1C00
1C00
1C00
1C00
1C00
1C00
0000
0000
1C00
1C00
1C00
ENDCHAR
STARTCHAR 1E6E
ENCODING 7790
SWIDTH 444 0
DWIDTH 12 0
BBX 11 24 0 -4
BITMAP
FFE0
FFE0
0600
0600
0600
0600
0600
0600
0600
0600
0600
0600
0600
0600
0600
0600
0600
0600
0600
0600
0000
0000
7FC0
7FC0
ENDCHAR
STARTCHAR 1E6F
ENCODING 7791
SWIDTH 333 0
DWIDTH 9 0
BBX 9 24 0 -4
BITMAP
1C00
1C00
1C00
1C00
1C00
FF80
FF80
1C00
1C00
1C00
1C00
1C00
1C00
1C00
1C00
1C00
1C00
1C00
1C00
1C00
0000
0000
FF80
FF80
ENDCHAR
STARTCHAR 1E80
ENCODING 7808
SWIDTH 962 0
DWIDTH 26 0
BBX 25 25 0 1
BITMAP
00700000
00380000
001E0000
00040000
00000000
C00C0180
600C0180
601E0180
601E0180
301E0300
30360300
30330300
30330600
18330600
18638600
18618600
0C618C00
0C618C00
0CC0CC00
0CC0D800
06C0D800
0780D800
07807800
03807000
03807000
ENDCHAR
STARTCHAR 1E81
ENCODING 7809
SWIDTH 814 0
DWIDTH 22 0
BBX 22 21 0 0
BITMAP
008000
01C000
007000
003800
000000
000000
C0000C
60000C
603018
703818
307818
307830
186C30
184C60
18CC60
0CC660
0C86C0
0F86C0
078280
070380
030380
ENDCHAR
STARTCHAR 1E82
ENCODING 7810
SWIDTH 962 0
DWIDTH 26 0
BBX 25 25 0 1
BITMAP
00038000
00070000
001C0000
00180000
00000000
C00C0180
600C0180
601E0180
601E0180
301E0300
30360300
30330300
30330600
18330600
18638600
18618600
0C618C00
0C618C00
0CC0CC00
0CC0D800
06C0D800
0780D800
07807800
03807000
03807000
ENDCHAR
STARTCHAR 1E83
ENCODING 7811
SWIDTH 814 0
DWIDTH 22 0
BBX 22 21 0 0
BITMAP
000200
000E00
003C00
007000
000000
000000
C0000C
60000C
603018
703818
307818
307830
186C30
184C60
18CC60
0CC660
0C86C0
0F86C0
078280
070380
030380
ENDCHAR
STARTCHAR 1E84
ENCODING 7812
SWIDTH 962 0
DWIDTH 26 0
BBX 25 25 0 0
BITMAP
00330000
00330000
00330000
00000000
00000000
C00C0180
600C0180
601E0180
601E0180
301E0300
30360300
30330300
30330600
18330600
18638600
18618600
0C618C00
0C618C00
0CC0CC00
0CC0D800
06C0D800
0780D800
07807800
03807000
03807000
ENDCHAR
STARTCHAR 1E85
ENCODING 7813
SWIDTH 814 0
DWIDTH 22 0
BBX 22 20 0 0
BITMAP
00CC00
00CC00
00CC00
000000
000000
C0000C
60000C
603018
703818
307818
307830
186C30
184C60
18CC60
0CC660
0C86C0
0F86C0
078280
070380
030380
ENDCHAR
STARTCHAR 1E92
ENCODING 7826
SWIDTH 481 0
DWIDTH 13 0
BBX 13 25 0 -5
BITMAP
7FF0
7FF0
0030
0060
0060
00C0
01C0
0180
0380
0300
0600
0E00
0C00
1C00
1800
3000
7000
6000
FFF8
FFF8
0000
0000
0300
0300
0300
ENDCHAR
STARTCHAR 1E93
ENCODING 7827
SWIDTH 407 0
DWIDTH 11 0
BBX 11 20 0 -5
BITMAP
7FE0
7FE0
00C0
0180
0380
0300
0600
0E00
0C00
1800
3800
7000
6000
FFE0
FFE0
0000
0000
0600
0600
0600
ENDCHAR
STARTCHAR 1E97
ENCODING 7831
SWIDTH 333 0
DWIDTH 9 0
BBX 9 25 0 0
BITMAP
7600
7600
7600
0000
0000
1C00
1C00
1C00
1C00
1C00
FF80
FF80
1C00
1C00
1C00
1C00
1C00
1C00
1C00
1C00
1C00
1C00
1C00
1C00
1C00
ENDCHAR
STARTCHAR 1EA0
ENCODING 7840
SWIDTH 740 0
DWIDTH 20 0
BBX 18 25 1 -5
BITMAP
00C000
01E000
01E000
033000
033000
073000
061800
061800
0C0C00
0C0C00
180E00
1FFE00
3FFE00
300300
300300
600180
600180
C001C0
C000C0
C000C0
000000
000000
00C000
00C000
00C000
ENDCHAR
STARTCHAR 1EA1
ENCODING 7841
SWIDTH 666 0
DWIDTH 18 0
BBX 16 19 1 -4
BITMAP
07E3
1FFB
381F
700F
6007
E007
C003
C003
C003
E007
6007
700F
381B
1FF3
07E3
0000
0180
0180
0180
ENDCHAR
STARTCHAR 1EA2
ENCODING 7842
SWIDTH 740 0
DWIDTH 20 0
BBX 18 26 1 0
BITMAP
01E000
033000
003000
006000
00C000
000000
00C000
01E000
01E000
033000
033000
073000
061800
061800
0C0C00
0C0C00
180E00
1FFE00
3FFE00
300300
300300
600180
600180
C001C0
C000C0
C000C0
ENDCHAR
STARTCHAR 1EA3
ENCODING 7843
SWIDTH 666 0
DWIDTH 18 0
BBX 16 21 1 0
BITMAP
03C0
0660
0060
00C0
0180
0000
07E3
1FFB
381F
700F
6007
E007
C003
C003
C003
E007
6007
700F
381B
1FF3
07E3
ENDCHAR
STARTCHAR 1EA4
ENCODING 7844
SWIDTH 740 0
DWIDTH 20 0
BBX 18 30 1 0
BITMAP
001000
003800
00F000
01C000
000000
00C000
01E000
033000
0E1C00
000000
00C000
01E000
01E000
033000
033000
073000
061800
061800
0C0C00
0C0C00
180E00
1FFE00
3FFE00
300300
300300
600180
600180
C001C0
C000C0
C000C0
ENDCHAR
STARTCHAR 1EA5
ENCODING 7845
SWIDTH 666 0
DWIDTH 18 0
BBX 16 24 1 1
BITMAP
0070
00E0
0380
0300
0000
03C0
0660
0C30
0000
07E3
1FFB
381F
700F
6007
E007
C003
C003
C003
E007
6007
700F
381B
1FF3
07E3
ENDCHAR
STARTCHAR 1EA6
ENCODING 7846
SWIDTH 740 0
DWIDTH 20 0
BBX 18 30 1 0
BITMAP
020000
070000
03C000
00E000
000000
00C000
01E000
033000
0E1C00
000000
00C000
01E000
01E000
033000
033000
073000
061800
061800
0C0C00
0C0C00
180E00
1FFE00
3FFE00
300300
300300
600180
600180
C001C0
C000C0
C000C0
ENDCHAR
STARTCHAR 1EA7
ENCODING 7847
SWIDTH 666 0
DWIDTH 18 0
BBX 16 24 1 1
BITMAP
0E00
0700
03C0
0080
0000
03C0
0660
0C30
0000
07E3
1FFB
381F
700F
6007
E007
C003
C003
C003
E007
6007
700F
381B
1FF3
07E3
ENDCHAR
STARTCHAR 1EA8
ENCODING 7848
SWIDTH 740 0
DWIDTH 20 0
BBX 18 31 1 0
BITMAP
007800
006C00
00CC00
001800
001000
000000
00C000
01E000
033000
0E1C00
000000
00C000
01E000
01E000
033000
033000
073000
061800
061800
0C0C00
0C0C00
180E00
1FFE00
3FFE00
300300
300300
600180
600180
C001C0
C000C0
C000C0
ENDCHAR
STARTCHAR 1EA9
ENCODING 7849
SWIDTH 666 0
DWIDTH 18 0
BBX 16 25 1 0
BITMAP
00F0
0198
0018
0030
0060
0000
03C0
06E0
0C30
0000
07E3
1FFB
381F
700F
6007
E007
C003
C003
C003
E007
6007
700F
381B
1FF3
07E3
ENDCHAR
STARTCHAR 1EAA
ENCODING 7850
SWIDTH 740 0
DWIDTH 20 0
BBX 18 29 1 0
BITMAP
010000
079000
067800
002000
00C000
01E000
033000
0E1C00
000000
00C000
01E000
01E000
033000
033000
073000
061800
061800
0C0C00
0C0C00
180E00
1FFE00
3FFE00
300300
300300
600180
600180
C001C0
C000C0
C000C0
ENDCHAR
STARTCHAR 1EAB
ENCODING 7851
SWIDTH 666 0
DWIDTH 18 0
BBX 16 23 1 0
BITMAP
0720
0FF0
0040
0000
03C0
0660
0C30
0000
07E3
1FFB
381F
700F
6007
E007
C003
C003
C003
E007
6007
700F
381B
1FF3
07E3
ENDCHAR
STARTCHAR 1EAC
ENCODING 7852
SWIDTH 740 0
DWIDTH 20 0
BBX 18 30 1 -5
BITMAP
00C000
01E000
033000
0E1C00
000000
00C000
01E000
01E000
033000
033000
073000
061800
061800
0C0C00
0C0C00
180E00
1FFE00
3FFE00
300300
300300
600180
600180
C001C0
C000C0
C000C0
000000
000000
00C000
00C000
00C000
ENDCHAR
STARTCHAR 1EAD
ENCODING 7853
SWIDTH 666 0
DWIDTH 18 0
BBX 16 24 1 -4
BITMAP
0180
03C0
0660
1C30
0000
07E3
1FFB
381F
700F
6007
E007
C003
C003
C003
E007
6007
700F
381B
1FF3
07E3
0000
0180
0180
0180
ENDCHAR
STARTCHAR 1EAE
ENCODING 7854
SWIDTH 740 0
DWIDTH 20 0
BBX 18 30 1 0
BITMAP
000800
003800
00F000
00C000
000000
061800
061800
03F000
00C000
000000
00C000
01E000
01E000
033000
033000
073000
061800
061800
0C0C00
0C0C00
180E00
1FFE00
3FFE00
300300
300300
600180
600180
C001C0
C000C0
C000C0
ENDCHAR
STARTCHAR 1EAF
ENCODING 7855
SWIDTH 666 0
DWIDTH 18 0
BBX 16 25 1 0
BITMAP
0010
0030
00F0
03C0
0100
0000
0C30
0FE0
03C0
0000
07E3
1FFB
381F
700F
6007
E007
C003
C003
C003
E007
6007
700F
381B
1FF3
07E3
ENDCHAR
STARTCHAR 1EB0
ENCODING 7856
SWIDTH 740 0
DWIDTH 20 0
BBX 18 30 1 0
BITMAP
040000
070000
03C000
00C000
000000
061800
061800
03F000
00C000
000000
00C000
01E000
01E000
033000
033000
073000
061800
061800
0C0C00
0C0C00
180E00
1FFE00
3FFE00
300300
300300
600180
600180
C001C0
C000C0
C000C0
ENDCHAR
STARTCHAR 1EB1
ENCODING 7857
SWIDTH 666 0
DWIDTH 18 0
BBX 16 24 1 1
BITMAP
0C00
0F00
0380
0080
0000
0C30
0FE0
03C0
0000
07E3
1FFB
381F
700F
6007
E007
C003
C003
C003
E007
6007
700F
381B
1FF3
07E3
ENDCHAR
STARTCHAR 1EB2
ENCODING 7858
SWIDTH 740 0
DWIDTH 20 0
BBX 18 30 1 0
BITMAP
01E000
01B000
033000
006000
004000
06D800
061800
03F000
00C000
000000
00C000
01E000
01E000
033000
033000
073000
061800
061800
0C0C00
0C0C00
180E00
1FFE00
3FFE00
300300
300300
600180
600180
C001C0
C000C0
C000C0
ENDCHAR
STARTCHAR 1EB3
ENCODING 7859
SWIDTH 666 0
DWIDTH 18 0
BBX 16 24 1 0
BITMAP
03C0
0660
0060
00C0
0180
0C30
0FE0
03C0
0000
07E3
1FFB
381F
700F
6007
E007
C003
C003
C003
E007
6007
700F
381B
1FF3
07E3
ENDCHAR
STARTCHAR 1EB4
ENCODING 7860
SWIDTH 740 0
DWIDTH 20 0
BBX 18 29 1 0
BITMAP
010000
07F800
047000
000000
061800
061800
03F000
00C000
000000
00C000
01E000
01E000
033000
033000
073000
061800
061800
0C0C00
0C0C00
180E00
1FFE00
3FFE00
300300
300300
600180
600180
C001C0
C000C0
C000C0
ENDCHAR
STARTCHAR 1EB5
ENCODING 7861
SWIDTH 666 0
DWIDTH 18 0
BBX 16 24 1 0
BITMAP
0600
0F20
09F0
0040
0000
0C30
0FE0
03C0
0000
07E3
1FFB
381F
700F
6007
E007
C003
C003
C003
E007
6007
700F
381B
1FF3
07E3
ENDCHAR
STARTCHAR 1EB6
ENCODING 7862
SWIDTH 740 0
DWIDTH 20 0
BBX 18 30 1 -5
BITMAP
061800
061800
03F000
00C000
000000
00C000
01E000
01E000
033000
033000
073000
061800
061800
0C0C00
0C0C00
180E00
1FFE00
3FFE00
300300
300300
600180
600180
C001C0
C000C0
C000C0
000000
000000
00C000
00C000
00C000
ENDCHAR
STARTCHAR 1EB7
ENCODING 7863
SWIDTH 666 0
DWIDTH 18 0
BBX 16 24 1 -4
BITMAP
0C30
0C30
07E0
0180
0000
07E3
1FFB
381F
700F
6007
E007
C003
C003
C003
E007
6007
700F
381B
1FF3
07E3
0000
0180
0180
0180
ENDCHAR
STARTCHAR 1EB8
ENCODING 7864
SWIDTH 518 0
DWIDTH 14 0
BBX 11 25 2 -5
BITMAP
FFE0
FFE0
C000
C000
C000
C000
C000
C000
C000
FFE0
FFE0
C000
C000
C000
C000
C000
C000
C000
FFE0
FFE0
0000
0000
0C00
0C00
0C00
ENDCHAR
STARTCHAR 1EB9
ENCODING 7865
SWIDTH 666 0
DWIDTH 18 0
BBX 15 19 1 -4
BITMAP
07E0
1FF8
381C
700C
6006
C006
FFFE
FFFE
C000
C000
6006
700C
3818
1FF0
07C0
0000
0180
0180
0180
ENDCHAR
STARTCHAR 1EBA
ENCODING 7866
SWIDTH 518 0
DWIDTH 14 0
BBX 11 26 2 0
BITMAP
1F00
1100
0300
0600
0400
0000
FFE0
FFE0
C000
C000
C000
C000
C000
C000
C000
FFE0
FFE0
C000
C000
C000
C000
C000
C000
C000
FFE0
FFE0
ENDCHAR
STARTCHAR 1EBB
ENCODING 7867
SWIDTH 666 0
DWIDTH 18 0
BBX 15 21 1 0
BITMAP
03C0
0640
0040
00C0
0180
0000
07E0
1FF8
381C
700C
6006
C006
FFFE
FFFE
C000
C000
6006
700C
3818
1FF0
07C0
ENDCHAR
STARTCHAR 1EBC
ENCODING 7868
SWIDTH 518 0
DWIDTH 14 0
BBX 11 25 2 0
BITMAP
1000
3C80
2780
0100
0000
FFE0
FFE0
C000
C000
C000
C000
C000
C000
C000
FFE0
FFE0
C000
C000
C000
C000
C000
C000
C000
FFE0
FFE0
ENDCHAR
STARTCHAR 1EBD
ENCODING 7869
SWIDTH 666 0
DWIDTH 18 0
BBX 15 20 1 0
BITMAP
0600
0F20
09F0
0040
0000
07E0
1FF8
381C
700C
6006
C006
FFFE
FFFE
C000
C000
6006
700C
3818
1FF0
07C0
ENDCHAR
STARTCHAR 1EBE
ENCODING 7870
SWIDTH 518 0
DWIDTH 14 0
BBX 11 30 2 0
BITMAP
0080
03C0
0700
0C00
0800
0E00
1F00
3980
60C0
0000
FFE0
FFE0
C000
C000
C000
C000
C000
C000
C000
FFE0
FFE0
C000
C000
C000
C000
C000
C000
C000
FFE0
FFE0
ENDCHAR
STARTCHAR 1EBF
ENCODING 7871
SWIDTH 666 0
DWIDTH 18 0
BBX 15 24 1 1
BITMAP
0070
01E0
0380
0300
0000
03C0
06E0
0C30
0000
07E0
1FF8
381C
700C
6006
C006
FFFE
FFFE
C000
C000
6006
700C
3818
1FF0
07C0
ENDCHAR
STARTCHAR 1EC0
ENCODING 7872
SWIDTH 518 0
DWIDTH 14 0
BBX 11 30 2 0
BITMAP
2000
7800
1C00
0600
0200
0E00
1F00
3980
60C0
0000
FFE0
FFE0
C000
C000
C000
C000
C000
C000
C000
FFE0
FFE0
C000
C000
C000
C000
C000
C000
C000
FFE0
FFE0
ENDCHAR
STARTCHAR 1EC1
ENCODING 7873
SWIDTH 666 0
DWIDTH 18 0
BBX 15 24 1 1
BITMAP
0E00
0700
03C0
0080
0000
03C0
06E0
0C30
0000
07E0
1FF8
381C
700C
6006
C006
FFFE
FFFE
C000
C000
6006
700C
3818
1FF0
07C0
ENDCHAR
STARTCHAR 1EC2
ENCODING 7874
SWIDTH 518 0
DWIDTH 14 0
BBX 11 31 2 0
BITMAP
0380
06C0
0440
00C0
0180
0000
0E00
1F00
3980
60C0
0000
FFE0
FFE0
C000
C000
C000
C000
C000
C000
C000
FFE0
FFE0
C000
C000
C000
C000
C000
C000
C000
FFE0
FFE0
ENDCHAR
STARTCHAR 1EC3
ENCODING 7875
SWIDTH 666 0
DWIDTH 18 0
BBX 15 25 1 0
BITMAP
00F0
0198
0030
0020
0060
0000
03C0
06E0
0C70
0000
07E0
1FF8
381C
700C
6006
C006
FFFE
FFFE
C000
C000
6006
700C
3818
1FF0
07C0
ENDCHAR
STARTCHAR 1EC4
ENCODING 7876
SWIDTH 518 0
DWIDTH 14 0
BBX 11 29 2 0
BITMAP
1000
3C80
2780
0100
0E00
1F00
3980
60C0
0000
FFE0
FFE0
C000
C000
C000
C000
C000
C000
C000
FFE0
FFE0
C000
C000
C000
C000
C000
C000
C000
FFE0
FFE0
ENDCHAR
STARTCHAR 1EC5
ENCODING 7877
SWIDTH 666 0
DWIDTH 18 0
BBX 15 23 1 0
BITMAP
0720
0FF0
0040
0000
03C0
06E0
0C30
0000
07E0
1FF8
381C
700C
6006
C006
FFFE
FFFE
C000
C000
6006
700C
3818
1FF0
07C0
ENDCHAR
STARTCHAR 1EC6
ENCODING 7878
SWIDTH 518 0
DWIDTH 14 0
BBX 11 30 2 -5
BITMAP
0E00
1F00
3980
60C0
0000
FFE0
FFE0
C000
C000
C000
C000
C000
C000
C000
FFE0
FFE0
C000
C000
C000
C000
C000
C000
C000
FFE0
FFE0
0000
0000
0C00
0C00
0C00
ENDCHAR
STARTCHAR 1EC7
ENCODING 7879
SWIDTH 666 0
DWIDTH 18 0
BBX 15 24 1 -4
BITMAP
0180
03C0
0E60
1C30
0000
07E0
1FF8
381C
700C
6006
C006
FFFE
FFFE
C000
C000
6006
700C
3818
1FF0
07C0
0000
0180
0180
0180
ENDCHAR
STARTCHAR 1EC8
ENCODING 7880
SWIDTH 222 0
DWIDTH 6 0
BBX 6 26 0 0
BITMAP
78
CC
0C
18
30
00
30
30
30
30
30
30
30
30
30
30
30
30
30
30
30
30
30
30
30
30
ENDCHAR
STARTCHAR 1EC9
ENCODING 7881
SWIDTH 185 0
DWIDTH 5 0
BBX 5 21 0 0
BITMAP
78
C8
18
30
30
00
30
30
30
30
30
30
30
30
30
30
30
30
30
30
30
ENDCHAR
STARTCHAR 1ECA
ENCODING 7882
SWIDTH 222 0
DWIDTH 6 0
BBX 2 25 2 -5
BITMAP
C0
C0
C0
C0
C0
C0
C0
C0
C0
C0
C0
C0
C0
C0
C0
C0
C0
C0
C0
C0
00
00
C0
C0
C0
ENDCHAR
STARTCHAR 1ECB
ENCODING 7883
SWIDTH 185 0
DWIDTH 5 0
BBX 2 25 2 -5
BITMAP
C0
C0
C0
00
00
C0
C0
C0
C0
C0
C0
C0
C0
C0
C0
C0
C0
C0
C0
C0
00
00
C0
C0
C0
ENDCHAR
STARTCHAR 1ECC
ENCODING 7884
SWIDTH 851 0
DWIDTH 23 0
BBX 21 24 1 -4
BITMAP
00FC00
07FF00
0E03C0
1C00E0
300070
700030
600038
600018
C00018
C00018
C00018
C00018
600018
600038
700030
380070
1C00E0
0E03C0
07FF00
01FC00
000000
003000
003000
003000
ENDCHAR
STARTCHAR 1ECD
ENCODING 7885
SWIDTH 666 0
DWIDTH 18 0
BBX 16 19 1 -4
BITMAP
07E0
1FF8
381C
700E
6006
E006
C007
C003
C006
E006
6006
700C
381C
1FF8
07E0
0000
0180
0180
0180
ENDCHAR
STARTCHAR 1ECE
ENCODING 7886
SWIDTH 851 0
DWIDTH 23 0
BBX 21 26 1 0
BITMAP
007800
00C800
000800
001800
003000
000000
00FC00
07FF00
0E03C0
1C00E0
300070
700030
600038
600018
C00018
C00018
C00018
C00018
600018
600038
700030
380070
1C00E0
0E03C0
07FF00
01FC00
ENDCHAR
STARTCHAR 1ECF
ENCODING 7887
SWIDTH 666 0
DWIDTH 18 0
BBX 16 21 1 0
BITMAP
03C0
0660
0040
00C0
0180
0000
07E0
1FF8
381C
700E
6006
E006
C007
C003
C006
E006
6006
700C
381C
1FF8
07E0
ENDCHAR
STARTCHAR 1ED0
ENCODING 7888
SWIDTH 851 0
DWIDTH 23 0
BBX 21 29 1 1
BITMAP
000E00
003C00
007000
006000
000000
007800
00DC00
018E00
000000
00FC00
07FF00
0E03C0
1C00E0
300070
700030
600038
600018
C00018
C00018
C00018
C00018
600018
600038
700030
380070
1C00E0
0E03C0
07FF00
01FC00
ENDCHAR
STARTCHAR 1ED1
ENCODING 7889
SWIDTH 666 0
DWIDTH 18 0
BBX 16 24 1 1
BITMAP
0070
01E0
0380
0300
0000
03C0
0660
0C30
0000
07E0
1FF8
381C
700E
6006
E006
C007
C003
C006
E006
6006
700C
381C
1FF8
07E0
ENDCHAR
STARTCHAR 1ED2
ENCODING 7890
SWIDTH 851 0
DWIDTH 23 0
BBX 21 30 1 0
BITMAP
010000
018000
01E000
007800
001000
000000
007800
00DC00
018E00
000000
00FC00
07FF00
0E03C0
1C00E0
300070
700030
600038
600018
C00018
C00018
C00018
C00018
600018
600038
700030
380070
1C00E0
0E03C0
07FF00
01FC00
ENDCHAR
STARTCHAR 1ED3
ENCODING 7891
SWIDTH 666 0
DWIDTH 18 0
BBX 16 24 1 1
BITMAP
0E00
0700
03C0
0080
0000
03C0
0660
0C30
0000
07E0
1FF8
381C
700E
6006
E006
C007
C003
C006
E006
6006
700C
381C
1FF8
07E0
ENDCHAR
STARTCHAR 1ED4
ENCODING 7892
SWIDTH 851 0
DWIDTH 23 0
BBX 21 30 1 0
BITMAP
001E00
003200
000600
000C00
000C00
000000
007800
00DC00
018E00
000000
00FC00
07FF00
0E03C0
1C00E0
300070
700030
600038
600018
C00018
C00018
C00018
C00018
600018
600038
700030
380070
1C00E0
0E03C0
07FF00
01FC00
ENDCHAR
STARTCHAR 1ED5
ENCODING 7893
SWIDTH 666 0
DWIDTH 18 0
BBX 16 25 1 0
BITMAP
00F0
0198
0018
0030
0060
0000
03C0
06E0
0C30
0000
07E0
1FF8
381C
700E
6006
E006
C007
C003
C006
E006
6006
700C
381C
1FF8
07E0
ENDCHAR
STARTCHAR 1ED6
ENCODING 7894
SWIDTH 851 0
DWIDTH 23 0
BBX 21 28 1 0
BITMAP
00E400
01FE00
000800
000000
007800
00DC00
018E00
000000
00FC00
07FF00
0E03C0
1C00E0
300070
700030
600038
600018
C00018
C00018
C00018
C00018
600018
600038
700030
380070
1C00E0
0E03C0
07FF00
01FC00
ENDCHAR
STARTCHAR 1ED7
ENCODING 7895
SWIDTH 666 0
DWIDTH 18 0
BBX 16 23 1 0
BITMAP
0720
0FF0
0040
0000
03C0
06E0
0C30
0000
07E0
1FF8
381C
700E
6006
E006
C007
C003
C006
E006
6006
700C
381C
1FF8
07E0
ENDCHAR
STARTCHAR 1ED8
ENCODING 7896
SWIDTH 851 0
DWIDTH 23 0
BBX 21 28 1 -4
BITMAP
007800
00DC00
018E00
000000
00FC00
07FF00
0E03C0
1C00E0
300070
700030
600038
600018
C00018
C00018
C00018
C00018
600018
600038
700030
380070
1C00E0
0E03C0
07FF00
01FC00
000000
003000
003000
003000
ENDCHAR
STARTCHAR 1ED9
ENCODING 7897
SWIDTH 666 0
DWIDTH 18 0
BBX 16 24 1 -4
BITMAP
0180
03C0
0660
1C30
0000
07E0
1FF8
381C
700E
6006
E006
C007
C003
C006
E006
6006
700C
381C
1FF8
07E0
0000
0180
0180
0180
ENDCHAR
STARTCHAR 1EDA
ENCODING 7898
SWIDTH 851 0
DWIDTH 23 0
BBX 21 25 1 0
BITMAP
000400
001C00
007800
006000
000000
00FC18
07FF18
0E03D8
1C00F0
300070
700030
600038
600018
C00018
C00018
C00018
C00018
600018
600038
700030
380060
1C00E0
0E03C0
07FF00
01FC00
ENDCHAR
STARTCHAR 1EDB
ENCODING 7899
SWIDTH 666 0
DWIDTH 18 0
BBX 17 20 1 1
BITMAP
007000
00E000
038000
030000
000000
07E180
1FF900
381F00
700E00
600600
E00600
C00700
C00300
C00600
E00600
600600
700C00
381C00
1FF800
07E000
ENDCHAR
STARTCHAR 1EDC
ENCODING 7900
SWIDTH 851 0
DWIDTH 23 0
BBX 21 25 1 0
BITMAP
018000
01E000
007000
003000
000000
00FC18
07FF18
0E03D8
1C00F0
300070
700030
600038
600018
C00018
C00018
C00018
C00018
600018
600038
700030
380060
1C00E0
0E03C0
07FF00
01FC00
ENDCHAR
STARTCHAR 1EDD
ENCODING 7901
SWIDTH 666 0
DWIDTH 18 0
BBX 17 20 1 1
BITMAP
0C0000
070000
03C000
008000
000000
07E180
1FF900
381F00
700E00
600600
E00600
C00700
C00300
C00600
E00600
600600
700C00
381C00
1FF800
07E000
ENDCHAR
STARTCHAR 1EDE
ENCODING 7902
SWIDTH 851 0
DWIDTH 23 0
BBX 21 26 1 0
BITMAP
007800
00C800
000800
001800
003000
000000
00FC18
07FF18
0E03D8
1C00F0
300070
700030
600038
600018
C00018
C00018
C00018
C00018
600018
600038
700030
380060
1C00E0
0E03C0
07FF00
01FC00
ENDCHAR
STARTCHAR 1EDF
ENCODING 7903
SWIDTH 666 0
DWIDTH 18 0
BBX 17 21 1 0
BITMAP
03C000
066000
004000
00C000
018000
000000
07E180
1FF900
381F00
700E00
600600
E00600
C00700
C00300
C00600
E00600
600600
700C00
381C00
1FF800
07E000
ENDCHAR
STARTCHAR 1EE0
ENCODING 7904
SWIDTH 851 0
DWIDTH 23 0
BBX 21 24 1 0
BITMAP
00E400
01FC00
000800
000000
00FC18
07FF18
0E03D8
1C00F0
300070
700030
600038
600018
C00018
C00018
C00018
C00018
600018
600038
700030
380060
1C00E0
0E03C0
07FF00
01FC00
ENDCHAR
STARTCHAR 1EE1
ENCODING 7905
SWIDTH 666 0
DWIDTH 18 0
BBX 17 20 1 0
BITMAP
020000
0F2000
08F000
004000
000000
07E180
1FF900
381F00
700E00
600600
E00600
C00700
C00300
C00600
E00600
600600
700C00
381C00
1FF800
07E000
ENDCHAR
STARTCHAR 1EE2
ENCODING 7906
SWIDTH 851 0
DWIDTH 23 0
BBX 21 24 1 -4
BITMAP
00FC18
07FF18
0E03D8
1C00F0
300070
700030
600038
600018
C00018
C00018
C00018
C00018
600018
600038
700030
380060
1C00E0
0E03C0
07FF00
01FC00
000000
003000
003000
003000
ENDCHAR
STARTCHAR 1EE3
ENCODING 7907
SWIDTH 666 0
DWIDTH 18 0
BBX 17 19 1 -4
BITMAP
07E180
1FF900
381F00
700E00
600600
E00600
C00700
C00300
C00600
E00600
600600
700C00
381C00
1FF800
07E000
000000
018000
018000
018000
ENDCHAR
STARTCHAR 1EE4
ENCODING 7908
SWIDTH 666 0
DWIDTH 18 0
BBX 14 24 2 -4
BITMAP
C00C
C00C
C00C
C00C
C00C
C00C
C00C
C00C
C00C
C00C
C00C
C00C
C00C
C00C
C018
E018
6018
7030
3FE0
0FC0
0000
0300
0300
0300
ENDCHAR
STARTCHAR 1EE5
ENCODING 7909
SWIDTH 592 0
DWIDTH 16 0
BBX 13 19 2 -4
BITMAP
C018
C018
C018
C018
C018
C018
C018
C018
C018
C018
C038
E038
7078
3FD8
1F18
0000
0600
0600
0600
ENDCHAR
STARTCHAR 1EE6
ENCODING 7910
SWIDTH 666 0
DWIDTH 18 0
BBX 14 26 2 0
BITMAP
0780
0CC0
0180
0100
0300
0000
C00C
C00C
C00C
C00C
C00C
C00C
C00C
C00C
C00C
C00C
C00C
C00C
C00C
C00C
C018
E018
6018
7030
3FE0
0FC0
ENDCHAR
STARTCHAR 1EE7
ENCODING 7911
SWIDTH 592 0
DWIDTH 16 0
BBX 13 21 2 0
BITMAP
0F00
0980
0180
0300
0200
0000
C018
C018
C018
C018
C018
C018
C018
C018
C018
C018
C038
E038
7078
3FD8
1F18
ENDCHAR
STARTCHAR 1EE8
ENCODING 7912
SWIDTH 703 0
DWIDTH 19 0
BBX 17 25 2 1
BITMAP
00E000
03C000
070000
060000
000000
C00D80
C00D00
C00F00
C00E00
C00C00
C00C00
C00C00
C00C00
C00C00
C00C00
C00C00
C00C00
C00C00
C00C00
C01800
E01800
601800
707000
3FE000
0F8000
ENDCHAR
STARTCHAR 1EE9
ENCODING 7913
SWIDTH 666 0
DWIDTH 18 0
BBX 16 21 2 0
BITMAP
0040
01C0
0780
0E00
0000
0000
C01B
C01B
C01E
C01E
C01C
C018
C018
C018
C018
C018
C038
E038
7078
3FD8
1F18
ENDCHAR
STARTCHAR 1EEA
ENCODING 7914
SWIDTH 703 0
DWIDTH 19 0
BBX 17 25 2 1
BITMAP
1C0000
0E0000
078000
010000
000000
C00D80
C00D00
C00F00
C00E00
C00C00
C00C00
C00C00
C00C00
C00C00
C00C00
C00C00
C00C00
C00C00
C00C00
C01800
E01800
601800
707000
3FE000
0F8000
ENDCHAR
STARTCHAR 1EEB
ENCODING 7915
SWIDTH 666 0
DWIDTH 18 0
BBX 16 21 2 0
BITMAP
1000
3800
0E00
0700
0000
0000
C01B
C01B
C01E
C01E
C01C
C018
C018
C018
C018
C018
C038
E038
7078
3FD8
1F18
ENDCHAR
STARTCHAR 1EEC
ENCODING 7916
SWIDTH 703 0
DWIDTH 19 0
BBX 17 26 2 0
BITMAP
078000
0CC000
018000
010000
030000
000000
C00D80
C00D00
C00F00
C00E00
C00C00
C00C00
C00C00
C00C00
C00C00
C00C00
C00C00
C00C00
C00C00
C00C00
C01800
E01800
601800
707000
3FE000
0F8000
ENDCHAR
STARTCHAR 1EED
ENCODING 7917
SWIDTH 666 0
DWIDTH 18 0
BBX 16 21 2 0
BITMAP
0F00
0980
0180
0300
0200
0000
C01B
C01B
C01E
C01E
C01C
C018
C018
C018
C018
C018
C038
E038
7078
3FD8
1F18
ENDCHAR
STARTCHAR 1EEE
ENCODING 7918
SWIDTH 703 0
DWIDTH 19 0
BBX 17 25 2 0
BITMAP
040000
1E4000
13E000
008000
000000
C00D80
C00D00
C00F00
C00E00
C00C00
C00C00
C00C00
C00C00
C00C00
C00C00
C00C00
C00C00
C00C00
C00C00
C01800
E01800
601800
707000
3FE000
0F8000
ENDCHAR
STARTCHAR 1EEF
ENCODING 7919
SWIDTH 666 0
DWIDTH 18 0
BBX 16 20 2 0
BITMAP
0800
3FC0
1380
0000
0000
C01B
C01B
C01E
C01E
C01C
C018
C018
C018
C018
C018
C038
E038
7078
3FD8
1F18
ENDCHAR
STARTCHAR 1EF0
ENCODING 7920
SWIDTH 703 0
DWIDTH 19 0
BBX 17 24 2 -4
BITMAP
C00D80
C00D00
C00F00
C00E00
C00C00
C00C00
C00C00
C00C00
C00C00
C00C00
C00C00
C00C00
C00C00
C00C00
C01800
E01800
601800
707000
3FE000
0F8000
000000
030000
030000
030000
ENDCHAR
STARTCHAR 1EF1
ENCODING 7921
SWIDTH 666 0
DWIDTH 18 0
BBX 16 19 2 -4
BITMAP
C01B
C01B
C01E
C01E
C01C
C018
C018
C018
C018
C018
C038
E038
7078
3FD8
1F18
0000
0600
0600
0600
ENDCHAR
STARTCHAR 1EF2
ENCODING 7922
SWIDTH 592 0
DWIDTH 16 0
BBX 16 25 0 1
BITMAP
0E00
0700
03C0
0080
0000
E007
6006
700E
300C
381C
1818
1C38
0C30
0E60
0660
07C0
03C0
0180
0180
0180
0180
0180
0180
0180
0180
ENDCHAR
STARTCHAR 1EF3
ENCODING 7923
SWIDTH 518 0
DWIDTH 14 0
BBX 14 26 0 -5
BITMAP
0800
1C00
0700
0380
0080
0000
E00C
601C
6018
3018
3030
3830
1860
1860
0CE0
0CC0
0EC0
0780
0780
0300
0300
0700
0600
0600
0C00
0C00
ENDCHAR
STARTCHAR 1EF4
ENCODING 7924
SWIDTH 592 0
DWIDTH 16 0
BBX 16 25 0 -5
BITMAP
E007
6006
700E
300C
381C
1818
1C38
0C30
0E60
0660
07C0
03C0
0180
0180
0180
0180
0180
0180
0180
0180
0000
0000
0180
0180
0180
ENDCHAR
STARTCHAR 1EF5
ENCODING 7925
SWIDTH 518 0
DWIDTH 14 0
BBX 14 20 0 -5
BITMAP
E00C
601C
6018
3018
3030
3830
1860
1860
0C60
0CC0
0EC0
0780
0780
0380
0300
0300
0600
0630
0C30
0C30
ENDCHAR
STARTCHAR 1EF6
ENCODING 7926
SWIDTH 592 0
DWIDTH 16 0
BBX 16 26 0 0
BITMAP
03C0
0660
0060
00C0
0180
0000
E007
6006
700E
300C
381C
1818
1C38
0C30
0E60
0660
07C0
03C0
0180
0180
0180
0180
0180
0180
0180
0180
ENDCHAR
STARTCHAR 1EF7
ENCODING 7927
SWIDTH 518 0
DWIDTH 14 0
BBX 14 26 0 -5
BITMAP
07C0
04C0
00C0
0180
0100
0000
E00C
601C
6018
3018
3030
3830
1860
1860
0CE0
0CC0
0EC0
0780
0780
0300
0300
0700
0600
0600
0C00
0C00
ENDCHAR
STARTCHAR 1EF8
ENCODING 7928
SWIDTH 592 0
DWIDTH 16 0
BBX 16 25 0 0
BITMAP
0200
0F20
08F0
0040
0000
E007
6006
700E
300C
381C
1818
1C38
0C30
0E60
0660
07C0
03C0
0180
0180
0180
0180
0180
0180
0180
0180
ENDCHAR
STARTCHAR 1EF9
ENCODING 7929
SWIDTH 518 0
DWIDTH 14 0
BBX 14 25 0 -5
BITMAP
0420
0FE0
09C0
0000
0000
E00C
601C
6018
3018
3030
3830
1860
1860
0CE0
0CC0
0EC0
0780
0780
0300
0300
0700
0600
0600
0C00
0C00
ENDCHAR
STARTCHAR 2000
ENCODING 8192
SWIDTH 518 0
DWIDTH 14 0
BBX 0 0 0 0
BITMAP
ENDCHAR
STARTCHAR 2001
ENCODING 8193
SWIDTH 1000 0
DWIDTH 27 0
BBX 0 0 0 0
BITMAP
ENDCHAR
STARTCHAR 2002
ENCODING 8194
SWIDTH 518 0
DWIDTH 14 0
BBX 0 0 0 0
BITMAP
ENDCHAR
STARTCHAR 2003
ENCODING 8195
SWIDTH 1000 0
DWIDTH 27 0
BBX 0 0 0 0
BITMAP
ENDCHAR
STARTCHAR 2004
ENCODING 8196
SWIDTH 333 0
DWIDTH 9 0
BBX 0 0 0 0
BITMAP
ENDCHAR
STARTCHAR 2005
ENCODING 8197
SWIDTH 259 0
DWIDTH 7 0
BBX 0 0 0 0
BITMAP
ENDCHAR
STARTCHAR 2006
ENCODING 8198
SWIDTH 185 0
DWIDTH 5 0
BBX 0 0 0 0
BITMAP
ENDCHAR
STARTCHAR 2007
ENCODING 8199
SWIDTH 555 0
DWIDTH 15 0
BBX 0 0 0 0
BITMAP
ENDCHAR
STARTCHAR 2008
ENCODING 8200
SWIDTH 259 0
DWIDTH 7 0
BBX 0 0 0 0
BITMAP
ENDCHAR
STARTCHAR 2009
ENCODING 8201
SWIDTH 185 0
DWIDTH 5 0
BBX 0 0 0 0
BITMAP
ENDCHAR
STARTCHAR 200A
ENCODING 8202
SWIDTH 111 0
DWIDTH 3 0
BBX 0 0 0 0
BITMAP
ENDCHAR
STARTCHAR 200B
ENCODING 8203
SWIDTH 0 0
DWIDTH 0 0
BBX 0 0 0 0
BITMAP
ENDCHAR
STARTCHAR 200C
ENCODING 8204
SWIDTH 0 0
DWIDTH 0 0
BBX 0 0 0 0
BITMAP
ENDCHAR
STARTCHAR 200D
ENCODING 8205
SWIDTH 0 0
DWIDTH 0 0
BBX 0 0 0 0
BITMAP
ENDCHAR
STARTCHAR 2010
ENCODING 8208
SWIDTH 333 0
DWIDTH 9 0
BBX 7 2 1 6
BITMAP
FE
FE
ENDCHAR
STARTCHAR 2011
ENCODING 8209
SWIDTH 333 0
DWIDTH 9 0
BBX 7 2 1 6
BITMAP
FE
FE
ENDCHAR
STARTCHAR 2012
ENCODING 8210
SWIDTH 592 0
DWIDTH 16 0
BBX 12 2 2 9
BITMAP
FFF0
FFF0
ENDCHAR
STARTCHAR 2013
ENCODING 8211
SWIDTH 518 0
DWIDTH 14 0
BBX 13 2 0 6
BITMAP
FFF8
FFF8
ENDCHAR
STARTCHAR 2014
ENCODING 8212
SWIDTH 1000 0
DWIDTH 27 0
BBX 27 2 0 6
BITMAP
FFFFFFE0
FFFFFFE0
ENDCHAR
STARTCHAR 2015
ENCODING 8213
SWIDTH 1148 0
DWIDTH 31 0
BBX 27 2 2 6
BITMAP
FFFFFFE0
FFFFFFE0
ENDCHAR
STARTCHAR 2016
ENCODING 8214
SWIDTH 407 0
DWIDTH 11 0
BBX 7 22 2 -4
BITMAP
C6
C6
C6
C6
C6
C6
C6
C6
C6
C6
C6
C6
C6
C6
C6
C6
C6
C6
C6
C6
C6
C6
ENDCHAR
STARTCHAR 2017
ENCODING 8215
SWIDTH 444 0
DWIDTH 12 0
BBX 8 6 2 -8
BITMAP
FF
FF
00
00
FF
FF
ENDCHAR
STARTCHAR 2018
ENCODING 8216
SWIDTH 333 0
DWIDTH 9 0
BBX 4 5 3 15
BITMAP
C0
C0
60
60
30
ENDCHAR
STARTCHAR 2019
ENCODING 8217
SWIDTH 333 0
DWIDTH 9 0
BBX 4 5 3 15
BITMAP
30
60
60
C0
C0
ENDCHAR
STARTCHAR 201A
ENCODING 8218
SWIDTH 370 0
DWIDTH 10 0
BBX 3 5 3 -2
BITMAP
60
60
60
C0
C0
ENDCHAR
STARTCHAR 201C
ENCODING 8220
SWIDTH 518 0
DWIDTH 14 0
BBX 8 5 3 15
BITMAP
CC
CC
66
66
33
ENDCHAR
STARTCHAR 201D
ENCODING 8221
SWIDTH 481 0
DWIDTH 13 0
BBX 7 5 3 15
BITMAP
66
66
6C
CC
CC
ENDCHAR
STARTCHAR 201E
ENCODING 8222
SWIDTH 518 0
DWIDTH 14 0
BBX 7 5 3 -2
BITMAP
66
66
6E
CC
CC
ENDCHAR
STARTCHAR 2020
ENCODING 8224
SWIDTH 555 0
DWIDTH 15 0
BBX 11 23 2 -3
BITMAP
0C00
0C00
0C00
0C00
0C00
FFE0
FFE0
0C00
0C00
0C00
0C00
0C00
0C00
0C00
0C00
0C00
0C00
0C00
0C00
0C00
0C00
0C00
0C00
ENDCHAR
STARTCHAR 2021
ENCODING 8225
SWIDTH 555 0
DWIDTH 15 0
BBX 11 24 2 -4
BITMAP
0C00
0C00
0C00
0C00
0C00
FFE0
FFE0
0C00
0C00
FFE0
FFE0
0C00
0C00
0C00
0C00
0C00
0C00
0C00
0C00
0C00
0C00
0C00
0C00
0C00
ENDCHAR
STARTCHAR 2022
ENCODING 8226
SWIDTH 518 0
DWIDTH 14 0
BBX 10 10 2 2
BITMAP
0C00
3F00
7F80
FFC0
FFC0
FFC0
FFC0
7F80
7F80
1E00
ENDCHAR
STARTCHAR 2026
ENCODING 8230
SWIDTH 814 0
DWIDTH 22 0
BBX 18 3 2 0
BITMAP
C0C0C0
C0C0C0
C0C0C0
ENDCHAR
STARTCHAR 202F
ENCODING 8239
SWIDTH 185 0
DWIDTH 5 0
BBX 0 0 0 0
BITMAP
ENDCHAR
STARTCHAR 2030
ENCODING 8240
SWIDTH 1185 0
DWIDTH 32 0
BBX 31 20 0 0
BITMAP
1E030000
3F860000
61860000
C0CC0000
C0CC0000
C0D80000
61980000
3F900000
1E300000
00300000
00600000
0063C0F0
00CFE1FC
00DC730E
01983306
01983206
03183306
031C330E
030FE1FC
0607C0F0
ENDCHAR
STARTCHAR 2031
ENCODING 8241
SWIDTH 1555 0
DWIDTH 42 0
BBX 42 20 0 0
BITMAP
1E0300000000
3F8600000000
618600000000
C0CC00000000
C0CC00000000
C0D800000000
619800000000
3F9000000000
1E3000000000
003000000000
006000000000
0063C0F01E00
00CFE1FC3F80
00DC730E6180
0198330640C0
01983206C0C0
03183306C0C0
031C330E6180
030FE1FC3F80
0607C0F01E00
ENDCHAR
STARTCHAR 2032
ENCODING 8242
SWIDTH 259 0
DWIDTH 7 0
BBX 3 6 2 14
BITMAP
60
60
60
C0
C0
C0
ENDCHAR
STARTCHAR 2033
ENCODING 8243
SWIDTH 407 0
DWIDTH 11 0
BBX 7 6 2 14
BITMAP
66
66
66
CC
CC
CC
ENDCHAR
STARTCHAR 2034
ENCODING 8244
SWIDTH 555 0
DWIDTH 15 0
BBX 11 6 2 14
BITMAP
6660
6660
6660
CCC0
CCC0
CCC0
ENDCHAR
STARTCHAR 2035
ENCODING 8245
SWIDTH 259 0
DWIDTH 7 0
BBX 3 6 2 14
BITMAP
C0
C0
C0
60
60
60
ENDCHAR
STARTCHAR 2036
ENCODING 8246
SWIDTH 407 0
DWIDTH 11 0
BBX 7 6 2 14
BITMAP
CC
CC
CC
66
66
66
ENDCHAR
STARTCHAR 2037
ENCODING 8247
SWIDTH 555 0
DWIDTH 15 0
BBX 11 6 2 14
BITMAP
CCC0
CCC0
CCC0
6660
6660
6660
ENDCHAR
STARTCHAR 2039
ENCODING 8249
SWIDTH 259 0
DWIDTH 7 0
BBX 5 10 1 3
BITMAP
18
30
70
60
C0
E0
60
30
30
18
ENDCHAR
STARTCHAR 203A
ENCODING 8250
SWIDTH 259 0
DWIDTH 7 0
BBX 4 10 1 3
BITMAP
C0
60
60
30
30
30
30
60
60
C0
ENDCHAR
STARTCHAR 203B
ENCODING 8251
SWIDTH 592 0
DWIDTH 16 0
BBX 15 14 1 0
BITMAP
0300
0780
1390
3830
1C60
0EC0
E79C
E39E
EFCC
1CE0
3870
3330
0780
0380
ENDCHAR
STARTCHAR 203D
ENCODING 8253
SWIDTH 592 0
DWIDTH 16 0
BBX 12 22 2 0
BITMAP
0600
0600
1F80
3FC0
6660
E630
C630
C630
0630
0630
0660
06E0
0780
0700
0700
0600
0600
0000
0000
0600
0600
0600
ENDCHAR
STARTCHAR 203F
ENCODING 8255
SWIDTH 518 0
DWIDTH 14 0
BBX 12 3 1 -5
BITMAP
C030
FFE0
3FC0
ENDCHAR
STARTCHAR 2040
ENCODING 8256
SWIDTH 518 0
DWIDTH 14 0
BBX 12 3 1 17
BITMAP
3FC0
7FE0
C030
ENDCHAR
STARTCHAR 2044
ENCODING 8260
SWIDTH 518 0
DWIDTH 14 0
BBX 10 22 2 -4
BITMAP
00C0
0180
0180
0180
0300
0300
0300
0600
0600
0E00
0C00
0C00
1C00
1800
1800
3800
3000
3000
6000
6000
6000
C000
ENDCHAR
STARTCHAR 2045
ENCODING 8261
SWIDTH 333 0
DWIDTH 9 0
BBX 6 26 2 -6
BITMAP
FC
FC
C0
C0
C0
C0
C0
C0
C0
C0
C0
C0
FC
FC
C0
C0
C0
C0
C0
C0
C0
C0
C0
C0
FC
FC
ENDCHAR
STARTCHAR 2046
ENCODING 8262
SWIDTH 333 0
DWIDTH 9 0
BBX 6 26 1 -6
BITMAP
FC
FC
0C
0C
0C
0C
0C
0C
0C
0C
0C
0C
FC
FC
0C
0C
0C
0C
0C
0C
0C
0C
0C
0C
FC
FC
ENDCHAR
STARTCHAR 2052
ENCODING 8274
SWIDTH 555 0
DWIDTH 15 0
BBX 13 20 1 0
BITMAP
0018
E030
F030
F060
E0E0
00C0
0180
0180
0300
0300
0600
0600
0C00
1C00
1800
3838
3078
6078
6038
C000
ENDCHAR
STARTCHAR 2054
ENCODING 8276
SWIDTH 518 0
DWIDTH 14 0
BBX 12 3 1 -5
BITMAP
1F80
7FE0
C030
ENDCHAR
STARTCHAR 2057
ENCODING 8279
SWIDTH 703 0
DWIDTH 19 0
BBX 15 6 2 14
BITMAP
6666
6666
6666
CCCC
CCCC
CCCC
ENDCHAR
STARTCHAR 205F
ENCODING 8287
SWIDTH 222 0
DWIDTH 6 0
BBX 0 0 0 0
BITMAP
ENDCHAR
STARTCHAR 2060
ENCODING 8288
SWIDTH 0 0
DWIDTH 0 0
BBX 0 0 0 0
BITMAP
ENDCHAR
STARTCHAR 2061
ENCODING 8289
SWIDTH 1111 0
DWIDTH 30 0
BBX 26 26 2 -6
BITMAP
1C638C00
1C638C00
00000000
00000000
C00000C0
C00000C0
C00000C0
00000000
00C66000
C10C20C0
C38830C0
C21810C0
02101000
02101000
C21810C0
C20810C0
C40C20C0
00046000
00004000
00000000
C00000C0
C00000C0
C00000C0
00000000
1C638C00
1C638C00
ENDCHAR
STARTCHAR 2062
ENCODING 8290
SWIDTH 0 0
DWIDTH 0 0
BBX 0 0 0 0
BITMAP
ENDCHAR
STARTCHAR 2063
ENCODING 8291
SWIDTH 0 0
DWIDTH 0 0
BBX 0 0 0 0
BITMAP
ENDCHAR
STARTCHAR 2064
ENCODING 8292
SWIDTH 0 0
DWIDTH 0 0
BBX 0 0 0 0
BITMAP
ENDCHAR
STARTCHAR 20A1
ENCODING 8353
SWIDTH 814 0
DWIDTH 22 0
BBX 19 24 1 -2
BITMAP
006000
006000
01FC00
07FF00
1E63C0
3860E0
306060
606000
606000
E06000
C06000
C06000
C06000
C06000
606000
606000
706000
386060
1C60C0
0E63C0
07FF00
01FC00
006000
006000
ENDCHAR
STARTCHAR 20A4
ENCODING 8356
SWIDTH 555 0
DWIDTH 15 0
BBX 16 20 0 0
BITMAP
03E0
0FF8
1C1C
180C
3006
3006
3000
FFF0
FFF0
1800
0C00
FFF0
FFF0
0303
0303
0303
0307
030E
3FFC
3FF0
ENDCHAR
STARTCHAR 20A6
ENCODING 8358
SWIDTH 740 0
DWIDTH 20 0
BBX 18 20 1 0
BITMAP
700180
780180
7C0180
6C0180
660180
FFFFC0
FFFFC0
618180
61C180
60C180
60E180
FFFFC0
FFFFC0
603980
601980
600D80
600F80
600780
600380
600180
ENDCHAR
STARTCHAR 20A9
ENCODING 8361
SWIDTH 962 0
DWIDTH 26 0
BBX 26 20 0 0
BITMAP
C00C0180
600C0180
601E0180
601E0180
301E0300
FFFFFFC0
FFFFFFC0
38330600
18330600
18630600
18618600
FFFFFFC0
FFFFFFC0
0CC1CC00
0CC0CC00
06C0D800
06C0D800
07807800
07807000
03807000
ENDCHAR
STARTCHAR 20AB
ENCODING 8363
SWIDTH 666 0
DWIDTH 18 0
BBX 14 22 2 -2
BITMAP
0018
0018
00FC
0018
0F98
3FF8
6078
4038
C018
C018
8018
8018
C018
C018
6038
3078
1FD8
0200
0000
0000
FFFC
FFFC
ENDCHAR
STARTCHAR 20AC
ENCODING 8364
SWIDTH 555 0
DWIDTH 15 0
BBX 16 20 -1 0
BITMAP
00F8
03FE
0707
0C03
0C01
1800
1800
7FFC
FFFC
1800
1800
7FF8
FFF0
1800
1800
0C00
0C02
0702
03FE
01F8
ENDCHAR
STARTCHAR 20B1
ENCODING 8369
SWIDTH 703 0
DWIDTH 19 0
BBX 16 20 1 0
BITMAP
7FE0
7FF8
701C
700C
FFFF
7006
7006
FFFF
700C
701C
7FF8
7FC0
7000
7000
7000
7000
7000
7000
7000
7000
ENDCHAR
STARTCHAR 20B2
ENCODING 8370
SWIDTH 888 0
DWIDTH 24 0
BBX 21 24 1 -2
BITMAP
003000
003000
01FC00
07FF80
0E03C0
1C00E0
300070
700030
600000
600000
C00000
C00000
C00000
C0FFF8
E0FFF8
600018
700030
300030
1C00E0
0E01C0
07FF80
01FC00
003000
003000
ENDCHAR
STARTCHAR 20BD
ENCODING 8381
SWIDTH 666 0
DWIDTH 18 0
BBX 15 20 2 0
BITMAP
3FE0
3FF8
301C
300E
3006
3006
3006
3006
300E
301C
3FF8
FFC0
3000
3000
FF80
3000
3000
3000
3000
3000
ENDCHAR
STARTCHAR 20BF
ENCODING 8383
SWIDTH 592 0
DWIDTH 16 0
BBX 13 24 2 -2
BITMAP
0980
0980
FF80
FFC0
C0E0
C060
C070
C030
C060
C060
C0E0
FFC0
FFE0
C070
C030
C018
C018
C018
C030
C070
FFE0
FF80
0980
0980
ENDCHAR
STARTCHAR 20D0
ENCODING 8400
SWIDTH 0 0
DWIDTH 0 0
BBX 11 5 -11 20
BITMAP
0C00
1C00
7000
FFE0
FFE0
ENDCHAR
STARTCHAR 20D1
ENCODING 8401
SWIDTH 0 0
DWIDTH 0 0
BBX 11 6 -11 19
BITMAP
0800
0C00
0700
03C0
FFE0
FFE0
ENDCHAR
STARTCHAR 20D2
ENCODING 8402
SWIDTH 0 0
DWIDTH 0 0
BBX 2 22 -7 -4
BITMAP
C0
C0
C0
C0
C0
C0
C0
C0
C0
C0
C0
C0
C0
C0
C0
C0
C0
C0
C0
C0
C0
C0
ENDCHAR
STARTCHAR 20D3
ENCODING 8403
SWIDTH 0 0
DWIDTH 0 0
BBX 2 13 -7 0
BITMAP
C0
C0
C0
C0
C0
C0
C0
C0
C0
C0
C0
C0
C0
ENDCHAR
STARTCHAR 20D4
ENCODING 8404
SWIDTH 0 0
DWIDTH 0 0
BBX 13 7 -12 21
BITMAP
3000
3000
2700
7FC0
78E0
FF30
FF18
ENDCHAR
STARTCHAR 20D5
ENCODING 8405
SWIDTH 0 0
DWIDTH 0 0
BBX 13 8 -12 20
BITMAP
0040
0040
0060
0660
3FE0
70F0
67F0
CFF8
ENDCHAR
STARTCHAR 20D6
ENCODING 8406
SWIDTH 0 0
DWIDTH 0 0
BBX 11 8 -11 17
BITMAP
0C00
3C00
7000
FFE0
FFE0
7800
1C00
0400
ENDCHAR
STARTCHAR 20D7
ENCODING 8407
SWIDTH 0 0
DWIDTH 0 0
BBX 11 9 -11 16
BITMAP
0800
0C00
0700
03C0
FFE0
FFE0
0380
0F00
0C00
ENDCHAR
STARTCHAR 20D8
ENCODING 8408
SWIDTH 0 0
DWIDTH 0 0
BBX 10 10 -11 2
BITMAP
1E00
3F80
71C0
E0C0
C0C0
C0C0
E0C0
71C0
3F80
1E00
ENDCHAR
STARTCHAR 20DB
ENCODING 8411
SWIDTH 0 0
DWIDTH 0 0
BBX 12 3 -12 17
BITMAP
C630
C630
C630
ENDCHAR
STARTCHAR 20DC
ENCODING 8412
SWIDTH 0 0
DWIDTH 0 0
BBX 17 3 -14 17
BITMAP
C63180
C63180
C63180
ENDCHAR
STARTCHAR 20DD
ENCODING 8413
SWIDTH 0 0
DWIDTH 0 0
BBX 23 23 -17 -5
BITMAP
00FE00
03FF80
0F03C0
1C00E0
380070
300038
600018
60000C
C0000C
C0000C
C0000E
C00006
C0000E
C0000C
C0000C
60000C
600018
300018
380030
1C00E0
0F03C0
03FF80
00FE00
ENDCHAR
STARTCHAR 20DE
ENCODING 8414
SWIDTH 0 0
DWIDTH 0 0
BBX 22 22 -17 -4
BITMAP
FFFFFC
FFFFFC
C0000C
C0000C
C0000C
C0000C
C0000C
C0000C
C0000C
C0000C
C0000C
C0000C
C0000C
C0000C
C0000C
C0000C
C0000C
C0000C
C0000C
C0000C
FFFFFC
FFFFFC
ENDCHAR
STARTCHAR 20DF
ENCODING 8415
SWIDTH 0 0
DWIDTH 0 0
BBX 32 32 -22 -9
BITMAP
00018000
0003C000
0007E000
000E7000
001C3800
00381C00
00700E00
00E00700
01C00380
038001C0
070000E0
0E000070
1C000038
3800001C
7000000E
E0000007
E0000003
70000007
3800000E
1C00001C
0E000038
07000070
038000E0
01C001C0
00E00380
00700700
00380E00
001C1C00
000E3800
00077000
0003E000
0001C000
ENDCHAR
STARTCHAR 20E1
ENCODING 8417
SWIDTH 0 0
DWIDTH 0 0
BBX 16 8 -14 17
BITMAP
0630
1E38
780E
FFFF
FFFF
381E
0E38
0620
ENDCHAR
STARTCHAR 20E4
ENCODING 8420
SWIDTH 0 0
DWIDTH 0 0
BBX 28 25 -20 -6
BITMAP
00060000
00070000
000F0000
001D8000
0019C000
0038C000
0030E000
00606000
00603000
00C03800
01C01800
01801C00
03800C00
03000600
06000600
06000300
0C000380
1C000180
180001C0
380000C0
30000060
60000060
E0000030
FFFFFFF0
FFFFFFF0
ENDCHAR
STARTCHAR 20E5
ENCODING 8421
SWIDTH 0 0
DWIDTH 0 0
BBX 10 22 -11 -4
BITMAP
E000
6000
6000
7000
3000
3000
1800
1800
1800
0C00
0C00
0C00
0600
0600
0600
0300
0300
0300
0180
0180
01C0
00C0
ENDCHAR
STARTCHAR 20E6
ENCODING 8422
SWIDTH 0 0
DWIDTH 0 0
BBX 7 22 -9 -4
BITMAP
C6
C6
C6
C6
C6
C6
C6
C6
C6
C6
C6
C6
C6
C6
C6
C6
C6
C6
C6
C6
C6
C6
ENDCHAR
STARTCHAR 20E8
ENCODING 8424
SWIDTH 0 0
DWIDTH 0 0
BBX 12 3 -12 -5
BITMAP
C630
C630
C630
ENDCHAR
STARTCHAR 20E9
ENCODING 8425
SWIDTH 0 0
DWIDTH 0 0
BBX 20 3 -16 19
BITMAP
FFFFF0
FFFFF0
C00030
ENDCHAR
STARTCHAR 20EA
ENCODING 8426
SWIDTH 0 0
DWIDTH 0 0
BBX 21 10 -16 2
BITMAP
020000
0E0000
1E0000
780000
FFFFF8
FFFFF8
780000
1E0000
0E0000
020000
ENDCHAR
STARTCHAR 20EB
ENCODING 8427
SWIDTH 0 0
DWIDTH 0 0
BBX 15 22 -13 -4
BITMAP
018E
018C
018C
031C
0318
0318
0638
0630
0630
0C60
0C60
0C60
18C0
18C0
38C0
3180
3180
7180
6300
6300
E300
C600
ENDCHAR
STARTCHAR 20EC
ENCODING 8428
SWIDTH 0 0
DWIDTH 0 0
BBX 11 5 -11 -10
BITMAP
FFE0
FFE0
0380
0F00
0C00
ENDCHAR
STARTCHAR 20ED
ENCODING 8429
SWIDTH 0 0
DWIDTH 0 0
BBX 11 5 -11 -10
BITMAP
FFE0
FFE0
7800
1C00
0400
ENDCHAR
STARTCHAR 20EE
ENCODING 8430
SWIDTH 0 0
DWIDTH 0 0
BBX 11 8 -11 -9
BITMAP
0C00
3C00
7000
FFE0
FFE0
7800
1C00
0400
ENDCHAR
STARTCHAR 20EF
ENCODING 8431
SWIDTH 0 0
DWIDTH 0 0
BBX 11 9 -11 -10
BITMAP
0800
0C00
0700
03C0
FFE0
FFE0
0380
0F00
0C00
ENDCHAR
STARTCHAR 20F0
ENCODING 8432
SWIDTH 0 0
DWIDTH 0 0
BBX 7 7 -9 16
BITMAP
30
34
FE
78
FE
F4
30
ENDCHAR
STARTCHAR 2103
ENCODING 8451
SWIDTH 1148 0
DWIDTH 31 0
BBX 29 20 1 0
BITMAP
1C007E00
7F03FFC0
430700E0
C10E0070
C1180038
43380000
7F300000
3C300000
00300000
00300000
00300000
00300000
00300000
00380000
00180018
001C0030
000E0070
000781E0
0003FF80
00007E00
ENDCHAR
STARTCHAR 2107
ENCODING 8455
SWIDTH 555 0
DWIDTH 15 0
BBX 13 20 1 0
BITMAP
0FC0
1FF0
3830
3000
3000
3000
3000
3800
1F00
1F00
3000
6000
6000
C000
C000
6000
6000
3038
3FF0
0FC0
ENDCHAR
STARTCHAR 2109
ENCODING 8457
SWIDTH 851 0
DWIDTH 23 0
BBX 21 20 1 0
BITMAP
1C1FF8
7F1FF8
431800
C11800
C11800
431800
7F1800
3C1800
001800
001FF8
001FF8
001800
001800
001800
001800
001800
001800
001800
001800
001800
ENDCHAR
STARTCHAR 210F
ENCODING 8463
SWIDTH 592 0
DWIDTH 16 0
BBX 15 20 0 0
BITMAP
3000
3200
3400
3800
3000
73E0
BFF8
3C1C
380C
300C
3006
3006
3006
3006
3006
3006
3006
3006
3006
3006
ENDCHAR
STARTCHAR 2113
ENCODING 8467
SWIDTH 481 0
DWIDTH 13 0
BBX 9 20 2 0
BITMAP
1E00
3F00
3300
3300
6300
6300
6300
6300
6600
6600
6C00
7C00
7800
7000
E000
E180
7180
3300
3F00
1E00
ENDCHAR
STARTCHAR 2116
ENCODING 8470
SWIDTH 1148 0
DWIDTH 31 0
BBX 27 20 2 0
BITMAP
E0030000
F0030000
F0030000
D8030000
DC030000
CC030F80
C6031FC0
C7033060
C3033060
C1832020
C1C32020
C0C33060
C0633060
C0331FC0
C03B0F80
C01B0000
C00F0000
C00F0000
C0077FE0
C0037FE0
ENDCHAR
STARTCHAR 2117
ENCODING 8471
SWIDTH 740 0
DWIDTH 20 0
BBX 19 19 1 0
BITMAP
03F000
0C0C00
100300
200100
47F080
467840
860C40
860C40
860C20
863820
87F020
860040
860040
C60040
460080
200180
100300
0C0C00
03F000
ENDCHAR
STARTCHAR 2118
ENCODING 8472
SWIDTH 703 0
DWIDTH 19 0
BBX 16 22 1 -6
BITMAP
0C00
1838
307E
60C6
6183
6183
C303
C303
C603
6603
6C03
3C03
3907
39C6
3CFE
6C78
6C00
4600
C600
C600
7C00
7800
ENDCHAR
STARTCHAR 211E
ENCODING 8478
SWIDTH 592 0
DWIDTH 16 0
BBX 14 20 2 0
BITMAP
FF80
FFE0
C070
C018
C018
C01C
C00C
C01C
C018
C018
C070
CFE0
C700
C300
C18C
C1F8
C0F0
C0E0
C3B0
C138
ENDCHAR
STARTCHAR 2120
ENCODING 8480
SWIDTH 1037 0
DWIDTH 28 0
BBX 24 11 2 9
BITMAP
3C3803
7E3C07
C33C07
C0360D
60360D
3C3319
073319
0331B1
C331A1
C330E1
7E30C1
ENDCHAR
STARTCHAR 2122
ENCODING 8482
SWIDTH 1000 0
DWIDTH 27 0
BBX 23 11 2 9
BITMAP
FE7006
10700E
10780A
10681A
106C12
106432
106622
106262
106342
1061C2
106182
ENDCHAR
STARTCHAR 2126
ENCODING 8486
SWIDTH 814 0
DWIDTH 22 0
BBX 20 19 1 0
BITMAP
01F800
07FE00
1F0F00
380380
3001C0
6000E0
600060
C00060
C00070
C00070
C00070
C00060
E00060
6000E0
7000C0
3801C0
1E0780
7F0FC0
7F0FC0
ENDCHAR
STARTCHAR 2127
ENCODING 8487
SWIDTH 814 0
DWIDTH 22 0
BBX 20 18 1 0
BITMAP
7F0FC0
7F0FC0
1C0780
3801C0
7000C0
6000E0
E00060
C00070
C00070
C00070
C00070
E00060
6000E0
7000C0
3803C0
1E0780
0FFE00
03F800
ENDCHAR
STARTCHAR 212A
ENCODING 8490
SWIDTH 592 0
DWIDTH 16 0
BBX 13 20 2 0
BITMAP
C018
C038
C070
C0E0
C0C0
C180
C380
C700
CE00
CC00
DC00
F600
F300
E380
C1C0
C0C0
C060
C070
C038
C018
ENDCHAR
STARTCHAR 212B
ENCODING 8491
SWIDTH 740 0
DWIDTH 20 0
BBX 18 27 1 0
BITMAP
00E000
012000
033000
033000
012000
01E000
000000
00C000
01E000
01E000
033000
033000
073000
061800
061800
0C0C00
0C0C00
180E00
1FFE00
3FFE00
300300
300300
600180
600180
C001C0
C000C0
C000C0
ENDCHAR
STARTCHAR 212E
ENCODING 8494
SWIDTH 851 0
DWIDTH 23 0
BBX 20 20 2 0
BITMAP
03F800
0C0600
100100
200080
600040
600060
E00060
E00060
E00070
E000F0
FFFF00
E00000
E00000
E00000
600000
600040
300080
180100
0C0600
03F800
ENDCHAR
STARTCHAR 2135
ENCODING 8501
SWIDTH 777 0
DWIDTH 21 0
BBX 17 20 2 0
BITMAP
E00300
600300
300300
380300
1C0300
0C0300
0E0300
1F0300
338300
618300
60C600
C0EE00
C07C00
C03800
C01800
C01C00
C00E00
C00600
C00300
C00380
ENDCHAR
STARTCHAR 2136
ENCODING 8502
SWIDTH 666 0
DWIDTH 18 0
BBX 14 20 2 0
BITMAP
FF00
FFC0
00E0
0060
0070
0030
0030
0030
0030
0030
0030
0030
0030
0030
0030
0030
0030
0030
FFFC
FFFC
ENDCHAR
STARTCHAR 2137
ENCODING 8503
SWIDTH 592 0
DWIDTH 16 0
BBX 12 20 2 0
BITMAP
F800
FC00
0E00
0600
0300
0300
0300
0380
0180
0180
0180
01C0
01C0
01C0
03C0
0760
0E60
3C60
F870
E030
ENDCHAR
STARTCHAR 2138
ENCODING 8504
SWIDTH 666 0
DWIDTH 18 0
BBX 15 20 2 0
BITMAP
FFFE
FFFE
0030
0020
0060
0060
0060
0060
0060
0060
0060
0060
0060
0060
0060
0060
0060
0060
0060
0060
ENDCHAR
STARTCHAR 2190
ENCODING 8592
SWIDTH 962 0
DWIDTH 26 0
BBX 22 8 2 3
BITMAP
060000
1E0000
780000
FFFFFC
FFFFFC
780000
1E0000
060000
ENDCHAR
STARTCHAR 2191
ENCODING 8593
SWIDTH 518 0
DWIDTH 14 0
BBX 10 21 2 -4
BITMAP
0C00
1E00
3E00
3F00
7F80
6D80
CDC0
0C00
0C00
0C00
0C00
0C00
0C00
0C00
0C00
0C00
0C00
0C00
0C00
0C00
0C00
ENDCHAR
STARTCHAR 2192
ENCODING 8594
SWIDTH 962 0
DWIDTH 26 0
BBX 22 8 2 3
BITMAP
000180
0001E0
0000F0
FFFFFC
FFFFFC
0000F0
0001E0
000180
ENDCHAR
STARTCHAR 2193
ENCODING 8595
SWIDTH 518 0
DWIDTH 14 0
BBX 9 21 2 -4
BITMAP
0C00
0C00
0C00
0C00
0C00
0C00
0C00
0C00
0C00
0C00
0C00
0C00
0C00
0C00
ED80
6D80
3F00
3F00
1E00
1E00
0C00
ENDCHAR
STARTCHAR 2194
ENCODING 8596
SWIDTH 1074 0
DWIDTH 29 0
BBX 25 8 2 3
BITMAP
06003000
1E003C00
78001E00
FFFFFF80
FFFFFF80
78001E00
1E003C00
06003000
ENDCHAR
STARTCHAR 2195
ENCODING 8597
SWIDTH 518 0
DWIDTH 14 0
BBX 9 25 2 -6
BITMAP
0C00
1E00
1E00
3F00
3F00
6D80
ED80
0C00
0C00
0C00
0C00
0C00
0C00
0C00
0C00
0C00
0C00
0C00
6D80
7F80
3F00
3E00
1E00
0C00
0C00
ENDCHAR
STARTCHAR 2196
ENCODING 8598
SWIDTH 777 0
DWIDTH 21 0
BBX 16 16 2 -1
BITMAP
6000
FE00
7F80
7B00
7C00
6E00
3700
3380
21C0
00E0
0070
0038
001C
000E
0007
0003
ENDCHAR
STARTCHAR 2197
ENCODING 8599
SWIDTH 777 0
DWIDTH 21 0
BBX 15 16 3 -1
BITMAP
0006
007E
01FE
009E
0036
006C
00CC
018C
0304
0600
0C00
1800
3000
6000
C000
8000
ENDCHAR
STARTCHAR 2198
ENCODING 8600
SWIDTH 777 0
DWIDTH 21 0
BBX 16 16 2 -1
BITMAP
4000
E000
7000
3800
1C00
0E00
0700
0380
01C6
00E6
0076
003F
001F
00FF
00FF
000F
ENDCHAR
STARTCHAR 2199
ENCODING 8601
SWIDTH 777 0
DWIDTH 21 0
BBX 16 16 2 -1
BITMAP
0001
0003
0006
000C
0018
0030
0060
00C0
2180
3300
6600
6C00
7800
7F00
FF00
F000
ENDCHAR
STARTCHAR 219A
ENCODING 8602
SWIDTH 962 0
DWIDTH 26 0
BBX 22 10 2 2
BITMAP
000180
060180
1E0380
780300
FFFFFC
FFFFFC
780600
1E0600
060C00
000C00
ENDCHAR
STARTCHAR 219B
ENCODING 8603
SWIDTH 962 0
DWIDTH 26 0
BBX 22 10 2 2
BITMAP
00C000
018180
0181E0
0180F0
FFFFFC
FFFFFC
0300F0
0601E0
060180
0E0000
ENDCHAR
STARTCHAR 219C
ENCODING 8604
SWIDTH 962 0
DWIDTH 26 0
BBX 21 9 2 1
BITMAP
7003E0
FF0FF8
7F9E38
7C3800
6FF000
37C000
300000
200000
200000
ENDCHAR
STARTCHAR 219D
ENCODING 8605
SWIDTH 962 0
DWIDTH 26 0
BBX 21 8 2 1
BITMAP
1E0078
7F87F8
E1C7F8
00F0F8
003FF0
001F30
000030
000020
ENDCHAR
STARTCHAR 219E
ENCODING 8606
SWIDTH 1074 0
DWIDTH 29 0
BBX 25 10 2 2
BITMAP
00020000
06060000
1E1E0000
78780000
FFFFFF80
FFFFFF80
78780000
1E1E0000
06060000
00020000
ENDCHAR
STARTCHAR 219F
ENCODING 8607
SWIDTH 518 0
DWIDTH 14 0
BBX 10 25 2 -6
BITMAP
0C00
1E00
1E00
3F00
3F00
6D80
ED80
0C00
0C00
1E00
1E00
3F00
7F00
6D80
EDC0
0C00
0C00
0C00
0C00
0C00
0C00
0C00
0C00
0C00
0C00
ENDCHAR
STARTCHAR 21A0
ENCODING 8608
SWIDTH 1074 0
DWIDTH 29 0
BBX 25 8 2 3
BITMAP
00303000
003C3C00
000F1E00
FFFFFF80
FFFFFF80
000F1E00
003C3C00
00303000
ENDCHAR
STARTCHAR 21A1
ENCODING 8609
SWIDTH 518 0
DWIDTH 14 0
BBX 8 25 3 -6
BITMAP
18
18
18
18
18
18
18
18
18
18
DB
DF
7E
7E
3C
38
18
18
DB
FF
7E
7C
3C
18
18
ENDCHAR
STARTCHAR 21A2
ENCODING 8610
SWIDTH 1074 0
DWIDTH 29 0
BBX 25 10 2 2
BITMAP
00000080
06000380
1E000780
78001E00
FFFFFC00
FFFFFC00
78001E00
1E000780
06000380
00000080
ENDCHAR
STARTCHAR 21A3
ENCODING 8611
SWIDTH 1074 0
DWIDTH 29 0
BBX 25 10 2 2
BITMAP
80000000
C0003000
F0003C00
3C001E00
1FFFFF80
1FFFFF80
3C001E00
F0003C00
C0003000
80000000
ENDCHAR
STARTCHAR 21A4
ENCODING 8612
SWIDTH 962 0
DWIDTH 26 0
BBX 22 10 2 2
BITMAP
00000C
06000C
1E000C
78000C
FFFFFC
FFFFFC
78000C
1E000C
06000C
00000C
ENDCHAR
STARTCHAR 21A5
ENCODING 8613
SWIDTH 518 0
DWIDTH 14 0
BBX 10 21 2 -4
BITMAP
0C00
1E00
1E00
3F00
7F00
6D80
EDC0
0C00
0C00
0C00
0C00
0C00
0C00
0C00
0C00
0C00
0C00
0C00
0C00
FFC0
FFC0
ENDCHAR
STARTCHAR 21A6
ENCODING 8614
SWIDTH 962 0
DWIDTH 26 0
BBX 22 10 2 2
BITMAP
C00000
C00180
C001E0
C000F0
FFFFFC
FFFFFC
C000F0
C001E0
C00180
C00000
ENDCHAR
STARTCHAR 21A7
ENCODING 8615
SWIDTH 518 0
DWIDTH 14 0
BBX 10 21 2 -4
BITMAP
FFC0
FFC0
0C00
0C00
0C00
0C00
0C00
0C00
0C00
0C00
0C00
0C00
0C00
0C00
EDC0
6D80
7F00
3F00
3E00
1E00
0C00
ENDCHAR
STARTCHAR 21A9
ENCODING 8617
SWIDTH 1000 0
DWIDTH 27 0
BBX 23 10 2 2
BITMAP
000078
00007C
02000C
0E0006
3C000C
FFFFFC
FFFFF8
780000
1E0000
060000
ENDCHAR
STARTCHAR 21AA
ENCODING 8618
SWIDTH 1000 0
DWIDTH 27 0
BBX 23 10 2 2
BITMAP
3C0000
7C0000
E00080
C000E0
E00078
7FFFFE
3FFFFE
000078
0000F0
0000C0
ENDCHAR
STARTCHAR 21AB
ENCODING 8619
SWIDTH 1000 0
DWIDTH 27 0
BBX 23 11 2 2
BITMAP
000078
0000FC
02018C
0E0186
3C018C
FFFFFC
FFFFF8
780180
1E0180
060180
000180
ENDCHAR
STARTCHAR 21AC
ENCODING 8620
SWIDTH 1000 0
DWIDTH 27 0
BBX 23 11 2 2
BITMAP
3C0000
7E0000
E70080
C300E0
E30078
7FFFFE
3FFFFE
030078
0300F0
0300C0
030000
ENDCHAR
STARTCHAR 21AD
ENCODING 8621
SWIDTH 1148 0
DWIDTH 31 0
BBX 27 10 2 2
BITMAP
02000800
06780C00
1EF80F00
79CC0380
FF8C1FE0
FF063FE0
78067380
1E07EF00
0E03CC00
02000800
ENDCHAR
STARTCHAR 21AE
ENCODING 8622
SWIDTH 1074 0
DWIDTH 29 0
BBX 25 10 2 2
BITMAP
00060000
06063000
1E0C3C00
780C1E00
FFFFFF80
FFFFFF80
78181E00
1E383C00
06303000
00300000
ENDCHAR
STARTCHAR 21AF
ENCODING 8623
SWIDTH 666 0
DWIDTH 18 0
BBX 14 25 2 -7
BITMAP
1000
1800
3800
3000
3000
3000
3000
6000
6000
6030
67F0
7FF0
F870
8060
0060
0060
0060
04C0
06C0
06DC
03F8
03F0
03E0
01C0
0180
ENDCHAR
STARTCHAR 21B0
ENCODING 8624
SWIDTH 555 0
DWIDTH 15 0
BBX 11 19 2 -2
BITMAP
0600
1E00
7800
FFE0
FFE0
7860
1E60
0660
0060
0060
0060
0060
0060
0060
0060
0060
0060
0060
0060
ENDCHAR
STARTCHAR 21B1
ENCODING 8625
SWIDTH 555 0
DWIDTH 15 0
BBX 11 19 2 -2
BITMAP
0C00
0F00
03C0
FFE0
FFE0
C3C0
CF00
CC00
C000
C000
C000
C000
C000
C000
C000
C000
C000
C000
C000
ENDCHAR
STARTCHAR 21B2
ENCODING 8626
SWIDTH 555 0
DWIDTH 15 0
BBX 11 19 2 -4
BITMAP
0060
0060
0060
0060
0060
0060
0060
0060
0060
0060
0060
0660
1E60
7860
FFE0
FFE0
7800
1E00
0600
ENDCHAR
STARTCHAR 21B3
ENCODING 8627
SWIDTH 555 0
DWIDTH 15 0
BBX 11 19 2 -4
BITMAP
C000
C000
C000
C000
C000
C000
C000
C000
C000
C000
C000
CC00
CF00
C3C0
FFE0
FFE0
03C0
0F00
0C00
ENDCHAR
STARTCHAR 21B4
ENCODING 8628
SWIDTH 777 0
DWIDTH 21 0
BBX 17 13 2 0
BITMAP
FFF800
FFF800
001800
001800
001800
001800
00D980
00FB00
007B00
007E00
003E00
001C00
001C00
ENDCHAR
STARTCHAR 21B5
ENCODING 8629
SWIDTH 666 0
DWIDTH 18 0
BBX 13 16 2 -3
BITMAP
0018
0018
0018
0018
0018
0018
0018
0018
0618
1E18
7818
FFF8
FFF8
7800
1E00
0600
ENDCHAR
STARTCHAR 21B6
ENCODING 8630
SWIDTH 851 0
DWIDTH 23 0
BBX 19 9 2 7
BITMAP
01F800
C7FE00
CE0F00
D80380
F201C0
FF00C0
FC00E0
F80060
E00060
ENDCHAR
STARTCHAR 21B7
ENCODING 8631
SWIDTH 851 0
DWIDTH 23 0
BBX 19 9 2 7
BITMAP
03F000
0FFC60
1E0E60
380760
7009E0
601FE0
6007E0
C003E0
C000E0
ENDCHAR
STARTCHAR 21BA
ENCODING 8634
SWIDTH 888 0
DWIDTH 24 0
BBX 20 19 2 -3
BITMAP
023FC0
0E3F80
1C3E00
381F80
301DC0
600CC0
600E60
C00460
C00070
C00030
C00060
E00060
600060
6000E0
3000C0
380380
1E0700
07FE00
01F800
ENDCHAR
STARTCHAR 21BB
ENCODING 8635
SWIDTH 888 0
DWIDTH 24 0
BBX 20 19 2 -3
BITMAP
3FC400
3FC700
07C780
1F81C0
3B00C0
770060
660060
C20060
C00070
C00030
C00060
E00060
600060
6000E0
3000C0
380380
1E0700
07FE00
01F800
ENDCHAR
STARTCHAR 21BC
ENCODING 8636
SWIDTH 962 0
DWIDTH 26 0
BBX 22 5 2 7
BITMAP
060000
1E0000
780000
FFFFFC
FFFFFC
ENDCHAR
STARTCHAR 21BD
ENCODING 8637
SWIDTH 962 0
DWIDTH 26 0
BBX 22 5 2 2
BITMAP
FFFFFC
FFFFFC
780000
1E0000
060000
ENDCHAR
STARTCHAR 21BE
ENCODING 8638
SWIDTH 370 0
DWIDTH 10 0
BBX 6 21 2 -4
BITMAP
C0
E0
F0
F0
F8
D8
CC
C0
C0
C0
C0
C0
C0
C0
C0
C0
C0
C0
C0
C0
C0
ENDCHAR
STARTCHAR 21BF
ENCODING 8639
SWIDTH 370 0
DWIDTH 10 0
BBX 6 21 2 -4
BITMAP
0C
1C
3C
3C
7C
6C
CC
0C
0C
0C
0C
0C
0C
0C
0C
0C
0C
0C
0C
0C
0C
ENDCHAR
STARTCHAR 21C0
ENCODING 8640
SWIDTH 962 0
DWIDTH 26 0
BBX 22 5 2 7
BITMAP
000180
0001C0
0000F0
FFFFFC
FFFFFC
ENDCHAR
STARTCHAR 21C1
ENCODING 8641
SWIDTH 962 0
DWIDTH 26 0
BBX 22 5 2 2
BITMAP
FFFFFC
FFFFFC
0000F0
0001C0
000180
ENDCHAR
STARTCHAR 21C2
ENCODING 8642
SWIDTH 370 0
DWIDTH 10 0
BBX 6 21 2 -4
BITMAP
C0
C0
C0
C0
C0
C0
C0
C0
C0
C0
C0
C0
C0
C0
DC
D8
F0
F0
E0
E0
C0
ENDCHAR
STARTCHAR 21C3
ENCODING 8643
SWIDTH 370 0
DWIDTH 10 0
BBX 6 21 2 -4
BITMAP
0C
0C
0C
0C
0C
0C
0C
0C
0C
0C
0C
0C
0C
0C
EC
6C
3C
3C
1C
1C
0C
ENDCHAR
STARTCHAR 21C4
ENCODING 8644
SWIDTH 962 0
DWIDTH 26 0
BBX 22 16 2 -2
BITMAP
000200
000180
0001E0
0000F0
FFFFFC
FFFFFC
0000F0
0001C0
060180
1E0000
380000
FFFFFC
FFFFFC
780000
1E0000
060000
ENDCHAR
STARTCHAR 21C5
ENCODING 8645
SWIDTH 777 0
DWIDTH 21 0
BBX 17 21 2 -4
BITMAP
0C1800
1E1800
3E1800
3F1800
7F9800
6D9800
CDD800
0C1800
0C1800
0C1800
0C1800
0C1800
0C1800
0C1800
0CDB80
0CFB00
0C7E00
0C7E00
0C3C00
0C1C00
0C1800
ENDCHAR
STARTCHAR 21C6
ENCODING 8646
SWIDTH 962 0
DWIDTH 26 0
BBX 22 16 2 -2
BITMAP
020000
060000
1E0000
780000
FFFFFC
FFFFFC
780000
1E0000
060180
0001C0
0000F0
FFFFFC
FFFFFC
0000F0
0001E0
000180
ENDCHAR
STARTCHAR 21C7
ENCODING 8647
SWIDTH 962 0
DWIDTH 26 0
BBX 22 16 2 -2
BITMAP
020000
060000
1E0000
780000
FFFFFC
FFFFFC
780000
1E0000
060000
1E0000
380000
FFFFFC
FFFFFC
780000
1E0000
060000
ENDCHAR
STARTCHAR 21C8
ENCODING 8648
SWIDTH 777 0
DWIDTH 21 0
BBX 17 21 2 -4
BITMAP
0C1800
1E3C00
3E3E00
3F7E00
7FFF00
6DDB00
CDD980
0C1800
0C1800
0C1800
0C1800
0C1800
0C1800
0C1800
0C1800
0C1800
0C1800
0C1800
0C1800
0C1800
0C1800
ENDCHAR
STARTCHAR 21C9
ENCODING 8649
SWIDTH 962 0
DWIDTH 26 0
BBX 22 16 2 -2
BITMAP
000200
000180
0001E0
0000F0
FFFFFC
FFFFFC
0000F0
0001C0
000180
0001C0
0000F0
FFFFFC
FFFFFC
0000F0
0001E0
000180
ENDCHAR
STARTCHAR 21CA
ENCODING 8650
SWIDTH 777 0
DWIDTH 21 0
BBX 17 21 2 -4
BITMAP
0C1800
0C1800
0C1800
0C1800
0C1800
0C1800
0C1800
0C1800
0C1800
0C1800
0C1800
0C1800
0C1800
0C1800
EDDB80
6DFB00
3F7E00
3F7E00
1E3C00
1E1C00
0C1800
ENDCHAR
STARTCHAR 21CB
ENCODING 8651
SWIDTH 962 0
DWIDTH 26 0
BBX 22 14 2 0
BITMAP
060000
1E0000
780000
FFFFFC
FFFFFC
000000
000000
000000
000000
FFFFFC
FFFFFC
0000F0
0001C0
000180
ENDCHAR
STARTCHAR 21CC
ENCODING 8652
SWIDTH 962 0
DWIDTH 26 0
BBX 22 14 2 0
BITMAP
000180
0001C0
0000F0
FFFFFC
FFFFFC
000000
000000
000000
000000
FFFFFC
FFFFFC
780000
1E0000
060000
ENDCHAR
STARTCHAR 21CD
ENCODING 8653
SWIDTH 962 0
DWIDTH 26 0
BBX 22 13 2 0
BITMAP
006060
01E0E0
03C0C0
0FFFFC
3FFFFC
780180
F00180
780300
3FFFFC
0FFFFC
03C600
01E600
006600
ENDCHAR
STARTCHAR 21CE
ENCODING 8654
SWIDTH 1296 0
DWIDTH 35 0
BBX 31 13 2 0
BITMAP
00606C00
01E0CF00
03C0C780
0FFFFFE0
3FFFFFF8
7801801E
F003801E
7803001E
3FFFFFF8
0FFFFFE0
03C60780
01E60F00
006E0C00
ENDCHAR
STARTCHAR 21CF
ENCODING 8655
SWIDTH 962 0
DWIDTH 26 0
BBX 22 13 2 0
BITMAP
019000
019C00
030F00
FFFFC0
FFFFE0
060078
06003C
060078
FFFFE0
FFFFC0
0C0F00
181C00
181800
ENDCHAR
STARTCHAR 21D0
ENCODING 8656
SWIDTH 962 0
DWIDTH 26 0
BBX 22 13 2 0
BITMAP
006000
01E000
03C000
0FFFFC
3FFFFC
780000
F00000
780000
3FFFFC
0FFFFC
03C000
01E000
006000
ENDCHAR
STARTCHAR 21D1
ENCODING 8657
SWIDTH 666 0
DWIDTH 18 0
BBX 13 21 2 -4
BITMAP
0300
0780
0780
0FC0
1CE0
1CE0
3CF0
3CF0
6CD8
ECD8
0CC0
0CC0
0CC0
0CC0
0CC0
0CC0
0CC0
0CC0
0CC0
0CC0
0CC0
ENDCHAR
STARTCHAR 21D2
ENCODING 8658
SWIDTH 962 0
DWIDTH 26 0
BBX 22 13 2 0
BITMAP
001000
001C00
000F00
FFFFC0
FFFFE0
000078
00003C
000078
FFFFE0
FFFFC0
000F00
001C00
001800
ENDCHAR
STARTCHAR 21D3
ENCODING 8659
SWIDTH 666 0
DWIDTH 18 0
BBX 14 21 2 -4
BITMAP
0CC0
0CC0
0CC0
0CC0
0CC0
0CC0
0CC0
0CC0
0CC0
0CC0
ECDC
6CD8
7CF8
3CF0
3CE0
1CE0
0CC0
0FC0
0780
0780
0300
ENDCHAR
STARTCHAR 21D4
ENCODING 8660
SWIDTH 1074 0
DWIDTH 29 0
BBX 25 13 2 0
BITMAP
00630000
01E38000
03C1E000
0FFFF800
3FFFFE00
78000F00
F0000780
78000F00
3FFFFE00
0FFFF800
03C1E000
01E38000
00630000
ENDCHAR
STARTCHAR 21D5
ENCODING 8661
SWIDTH 666 0
DWIDTH 18 0
BBX 14 25 2 -6
BITMAP
0300
0780
0780
0FC0
0CC0
1CE0
3CE0
3CF0
7CF8
6CD8
CCDC
0CC0
0CC0
0CC0
ECD8
6CD8
3CF0
3CF0
1CE0
1CE0
0CC0
0F80
0780
0300
0300
ENDCHAR
STARTCHAR 21D6
ENCODING 8662
SWIDTH 814 0
DWIDTH 22 0
BBX 18 18 2 -3
BITMAP
600000
FE0000
7FC000
63F800
61F000
70E000
387000
3C3800
3E1C00
3F0E00
1B8700
19C380
10E1C0
0070C0
003800
001C00
000E00
000400
ENDCHAR
STARTCHAR 21D7
ENCODING 8663
SWIDTH 814 0
DWIDTH 22 0
BBX 18 18 2 -3
BITMAP
0001C0
000FC0
00FFC0
03F9C0
017180
00E180
01C380
038780
070F00
0E1F00
1C3B00
387200
70E000
E1C000
438000
070000
0E0000
0C0000
ENDCHAR
STARTCHAR 21D8
ENCODING 8664
SWIDTH 814 0
DWIDTH 22 0
BBX 17 17 3 0
BITMAP
180000
1C0000
0E0000
870000
C38000
61C400
30E600
187600
1C3E00
0E1E00
070F00
038700
01C300
07E380
03FF80
007F80
000780
ENDCHAR
STARTCHAR 21D9
ENCODING 8665
SWIDTH 814 0
DWIDTH 22 0
BBX 18 18 2 -1
BITMAP
000400
000E00
001C00
003800
0070C0
00E1C0
11C380
1B8700
1F0E00
3E1C00
3C3800
387000
70E000
61C000
63F000
7FF000
FF0000
F00000
ENDCHAR
STARTCHAR 21DA
ENCODING 8666
SWIDTH 1111 0
DWIDTH 30 0
BBX 26 18 2 -2
BITMAP
00040000
000C0000
003C0000
00FFFFC0
01FFFFC0
07800000
1E000000
78000000
FFFFFFC0
FFFFFFC0
78000000
1E000000
07800000
01FFFFC0
00FFFFC0
003C0000
000C0000
00040000
ENDCHAR
STARTCHAR 21DB
ENCODING 8667
SWIDTH 1111 0
DWIDTH 30 0
BBX 26 18 2 -2
BITMAP
00080000
000C0000
000F0000
FFFFC000
FFFFE000
00007800
00001E00
00000F80
FFFFFFC0
FFFFFFC0
00000780
00001E00
00007800
FFFFE000
FFFFC000
000F0000
000C0000
00080000
ENDCHAR
STARTCHAR 21DC
ENCODING 8668
SWIDTH 1111 0
DWIDTH 30 0
BBX 26 10 2 2
BITMAP
00002000
06007000
1E00FC00
7800CE00
FF8187C0
FFE383C0
78730000
1E3E0000
061E0000
00040000
ENDCHAR
STARTCHAR 21DD
ENCODING 8669
SWIDTH 1111 0
DWIDTH 30 0
BBX 26 10 2 2
BITMAP
01000000
07801800
0F801E00
1CC00F00
F8E0FFC0
E061FFC0
00338F00
003F1E00
001C1800
00080000
ENDCHAR
STARTCHAR 21E6
ENCODING 8678
SWIDTH 1111 0
DWIDTH 30 0
BBX 26 14 2 -1
BITMAP
00200000
00600000
01E00000
07E00000
1E7FFFC0
387FFFC0
E00000C0
C00000C0
F00000C0
3C7FFFC0
0E7FFFC0
03E00000
01E00000
00600000
ENDCHAR
STARTCHAR 21E7
ENCODING 8679
SWIDTH 703 0
DWIDTH 19 0
BBX 14 26 2 -7
BITMAP
0380
0780
06C0
0CC0
0C60
1860
1830
3018
6018
7C7C
FC7C
0C60
0C60
0C60
0C60
0C60
0C60
0C60
0C60
0C60
0C60
0C60
0C60
0C60
0FE0
0FE0
ENDCHAR
STARTCHAR 21E8
ENCODING 8680
SWIDTH 1111 0
DWIDTH 30 0
BBX 26 14 2 -1
BITMAP
00010000
00018000
0001E000
0001F800
FFFF9E00
FFFF8700
C00001C0
C00000C0
C00003C0
FFFF8F00
FFFF9C00
0001F000
0001E000
00018000
ENDCHAR
STARTCHAR 21E9
ENCODING 8681
SWIDTH 703 0
DWIDTH 19 0
BBX 14 26 2 -6
BITMAP
0FE0
0FE0
0C60
0C60
0C60
0C60
0C60
0C60
0C60
0C60
0C60
0C60
0C60
0C60
0C60
FC7C
7C7C
3018
3030
1830
1860
0C60
0CC0
06C0
0380
0300
ENDCHAR
STARTCHAR 21F3
ENCODING 8691
SWIDTH 703 0
DWIDTH 19 0
BBX 14 25 2 -6
BITMAP
0380
0780
06C0
0CC0
0C60
1860
1830
3018
6018
7C7C
FC7C
0C60
0C60
0C60
FC7C
7C7C
3018
3030
1830
1860
0C60
0CC0
06C0
0380
0300
ENDCHAR
STARTCHAR 21F5
ENCODING 8693
SWIDTH 777 0
DWIDTH 21 0
BBX 17 21 2 -4
BITMAP
0C1800
0C3C00
0C3E00
0C7E00
0C7F00
0CDB00
0DD980
0C1800
0C1800
0C1800
0C1800
0C1800
0C1800
0C1800
ED9800
6D9800
3F1800
3F1800
1E1800
1E1800
0C1800
ENDCHAR
STARTCHAR 21F6
ENCODING 8694
SWIDTH 962 0
DWIDTH 26 0
BBX 22 22 2 -4
BITMAP
000180
0001E0
0000F0
FFFFFC
FFFFFC
0000F0
0001C0
000180
0001C0
0000F0
FFFFFC
FFFFFC
0000F0
0001C0
000180
0001C0
0000F0
FFFFFC
FFFFFC
0000F0
0001E0
000180
ENDCHAR
STARTCHAR 2200
ENCODING 8704
SWIDTH 703 0
DWIDTH 19 0
BBX 15 20 2 0
BITMAP
C006
C006
6006
600C
600C
300C
3018
3FF8
1FF8
1830
1830
0C30
0C60
0C60
0660
06C0
06C0
03C0
0380
0380
ENDCHAR
STARTCHAR 2201
ENCODING 8705
SWIDTH 592 0
DWIDTH 16 0
BBX 12 20 2 0
BITMAP
0F80
3FC0
70E0
6070
C030
C030
C000
C000
C000
C000
C000
C000
C000
C000
C030
C030
6070
70E0
3FC0
0F80
ENDCHAR
STARTCHAR 2202
ENCODING 8706
SWIDTH 481 0
DWIDTH 13 0
BBX 13 21 0 0
BITMAP
7F00
7F80
00C0
0060
0030
0030
0030
0018
0018
0018
1FF8
3078
6018
6018
C010
C030
C030
6060
60C0
3F80
1F00
ENDCHAR
STARTCHAR 2203
ENCODING 8707
SWIDTH 592 0
DWIDTH 16 0
BBX 12 20 2 0
BITMAP
FFF0
FFF0
0030
0030
0030
0030
0030
0030
0030
FFF0
FFF0
0030
0030
0030
0030
0030
0030
0030
FFF0
FFF0
ENDCHAR
STARTCHAR 2204
ENCODING 8708
SWIDTH 592 0
DWIDTH 16 0
BBX 12 24 2 -2
BITMAP
0060
0060
FFF0
FFF0
00F0
01B0
01B0
01B0
0330
0330
0330
FFF0
FFF0
0630
0C30
0C30
0C30
1830
1830
1830
FFF0
FFF0
3000
6000
ENDCHAR
STARTCHAR 2205
ENCODING 8709
SWIDTH 592 0
DWIDTH 16 0
BBX 12 26 2 -3
BITMAP
0070
0060
0060
0FE0
3FC0
70E0
61F0
C1B0
C1B0
C330
C330
C330
C630
C630
C630
CC30
CC30
CC30
F830
7870
78E0
3FC0
3F80
3000
6000
6000
ENDCHAR
STARTCHAR 2206
ENCODING 8710
SWIDTH 629 0
DWIDTH 17 0
BBX 17 18 0 0
BITMAP
01C000
01C000
03E000
036000
037000
063000
063800
0E1800
0C1800
0C0C00
180C00
180E00
380600
300700
700300
600300
7FFF80
FFFF80
ENDCHAR
STARTCHAR 2207
ENCODING 8711
SWIDTH 629 0
DWIDTH 17 0
BBX 17 18 0 0
BITMAP
FFFF80
7FFF80
600300
700300
300700
380600
180E00
180C00
0C0C00
0C1800
0E1800
063800
073000
033000
036000
01E000
01E000
01C000
ENDCHAR
STARTCHAR 2208
ENCODING 8712
SWIDTH 740 0
DWIDTH 20 0
BBX 16 15 2 -1
BITMAP
07FF
1FFF
3800
7000
6000
C000
FFFF
FFFF
C000
6000
6000
7000
3C00
1FFF
07FF
ENDCHAR
STARTCHAR 2209
ENCODING 8713
SWIDTH 740 0
DWIDTH 20 0
BBX 16 21 2 -4
BITMAP
0030
0030
0030
07FF
1FFF
3860
70C0
60C0
C1C0
FFFF
FFFF
C380
6300
6300
7700
3E00
1FFF
0FFF
0C00
0C00
1C00
ENDCHAR
STARTCHAR 220A
ENCODING 8714
SWIDTH 555 0
DWIDTH 15 0
BBX 11 10 2 2
BITMAP
1FE0
3FE0
7000
E000
FFE0
FFE0
E000
7000
3FE0
1FE0
ENDCHAR
STARTCHAR 220B
ENCODING 8715
SWIDTH 740 0
DWIDTH 20 0
BBX 16 15 2 -1
BITMAP
FFE0
FFF8
001C
000E
0006
0003
FFFF
FFFF
0003
0006
0006
000C
003C
FFF8
FFE0
ENDCHAR
STARTCHAR 220C
ENCODING 8716
SWIDTH 740 0
DWIDTH 20 0
BBX 16 21 2 -4
BITMAP
0030
0030
0030
FFE0
FFF8
007C
00CE
00C6
01C3
FFFF
FFFF
0383
0306
0306
070C
063C
FFF8
FFE0
0C00
0C00
1C00
ENDCHAR
STARTCHAR 220D
ENCODING 8717
SWIDTH 555 0
DWIDTH 15 0
BBX 11 10 2 2
BITMAP
FF00
FF80
01C0
00E0
FFE0
FFE0
0060
00C0
FF80
FF00
ENDCHAR
STARTCHAR 220E
ENCODING 8718
SWIDTH 814 0
DWIDTH 22 0
BBX 18 17 2 0
BITMAP
FFFFC0
FFFFC0
FFFFC0
FFFFC0
FFFFC0
FFFFC0
FFFFC0
FFFFC0
FFFFC0
FFFFC0
FFFFC0
FFFFC0
FFFFC0
FFFFC0
FFFFC0
FFFFC0
FFFFC0
ENDCHAR
STARTCHAR 220F
ENCODING 8719
SWIDTH 1000 0
DWIDTH 27 0
BBX 23 29 2 -8
BITMAP
FFFFFE
FFFFFE
C00006
C00006
C00006
C00006
C00006
C00006
C00006
C00006
C00006
C00006
C00006
C00006
C00006
C00006
C00006
C00006
C00006
C00006
C00006
C00006
C00006
C00006
C00006
C00006
C00006
C00006
C00006
ENDCHAR
STARTCHAR 2210
ENCODING 8720
SWIDTH 1000 0
DWIDTH 27 0
BBX 23 29 2 -8
BITMAP
C00006
C00006
C00006
C00006
C00006
C00006
C00006
C00006
C00006
C00006
C00006
C00006
C00006
C00006
C00006
C00006
C00006
C00006
C00006
C00006
C00006
C00006
C00006
C00006
C00006
C00006
C00006
FFFFFE
FFFFFE
ENDCHAR
STARTCHAR 2211
ENCODING 8721
SWIDTH 777 0
DWIDTH 21 0
BBX 17 30 2 -8
BITMAP
3FFF80
3FFF80
380000
180000
0C0000
0C0000
060000
070000
030000
038000
018000
01C000
00C000
00C000
00C000
01C000
018000
030000
030000
060000
0E0000
0C0000
1C0000
180000
300000
300000
600000
E00000
FFFF80
FFFF80
ENDCHAR
STARTCHAR 2212
ENCODING 8722
SWIDTH 703 0
DWIDTH 19 0
BBX 15 2 2 6
BITMAP
FFFE
FFFE
ENDCHAR
STARTCHAR 2213
ENCODING 8723
SWIDTH 703 0
DWIDTH 19 0
BBX 15 19 2 -1
BITMAP
FFFE
FFFE
0000
0000
0180
0180
0180
0180
0180
0180
FFFE
FFFE
0180
0180
0180
0180
0180
0180
0180
ENDCHAR
STARTCHAR 2214
ENCODING 8724
SWIDTH 703 0
DWIDTH 19 0
BBX 15 21 2 -1
BITMAP
0180
0180
0180
0000
0000
0000
0180
0180
0180
0180
0180
0180
FFFE
FFFE
0180
0180
0180
0180
0180
0180
0180
ENDCHAR
STARTCHAR 2215
ENCODING 8725
SWIDTH 518 0
DWIDTH 14 0
BBX 10 22 2 -4
BITMAP
00C0
0180
0180
0180
0300
0300
0300
0600
0600
0E00
0C00
0C00
1C00
1800
1800
3800
3000
3000
6000
6000
6000
C000
ENDCHAR
STARTCHAR 2216
ENCODING 8726
SWIDTH 740 0
DWIDTH 20 0
BBX 15 20 2 -3
BITMAP
E000
6000
3000
3800
1800
0C00
0E00
0600
0300
0380
0180
00C0
00E0
0060
0070
0030
0018
001C
000C
0006
ENDCHAR
STARTCHAR 2217
ENCODING 8727
SWIDTH 518 0
DWIDTH 14 0
BBX 9 10 2 2
BITMAP
0C00
0C00
4C80
EF80
3F00
1E00
7F80
ED80
0C00
0C00
ENDCHAR
STARTCHAR 2218
ENCODING 8728
SWIDTH 555 0
DWIDTH 15 0
BBX 10 10 2 2
BITMAP
1E00
3F80
71C0
E0C0
C0C0
C0C0
E0C0
71C0
3F80
1E00
ENDCHAR
STARTCHAR 2219
ENCODING 8729
SWIDTH 518 0
DWIDTH 14 0
BBX 10 10 2 2
BITMAP
0C00
3F00
7F80
FFC0
FFC0
FFC0
FFC0
7F80
7F80
1E00
ENDCHAR
STARTCHAR 221A
ENCODING 8730
SWIDTH 629 0
DWIDTH 17 0
BBX 15 31 3 -6
BITMAP
000E
000E
000C
000C
000C
0018
0018
0018
0018
0030
0030
0030
0030
0070
0060
0060
0060
F060
F0C0
18C0
18C0
18C0
19C0
0D80
0D80
0D80
0D80
0700
0700
0700
0700
ENDCHAR
STARTCHAR 221D
ENCODING 8733
SWIDTH 814 0
DWIDTH 22 0
BBX 18 11 2 1
BITMAP
1F01C0
3F87C0
71CE00
607C00
C07800
C03000
C03800
607C00
70CE00
3F87C0
0F01C0
ENDCHAR
STARTCHAR 221E
ENCODING 8734
SWIDTH 1000 0
DWIDTH 27 0
BBX 22 11 2 1
BITMAP
1F01E0
3F87F8
71CE1C
607C0C
C0780C
C0300C
C0380C
607C0C
70CE18
3F87F8
0F01E0
ENDCHAR
STARTCHAR 221F
ENCODING 8735
SWIDTH 740 0
DWIDTH 20 0
BBX 16 16 2 0
BITMAP
C000
C000
C000
C000
C000
C000
C000
C000
C000
C000
C000
C000
C000
C000
FFFF
FFFF
ENDCHAR
STARTCHAR 2220
ENCODING 8736
SWIDTH 777 0
DWIDTH 21 0
BBX 16 16 2 1
BITMAP
0003
0007
000E
001C
0038
0070
00E0
01C0
0380
0700
0E00
1C00
3800
7000
FFFF
FFFF
ENDCHAR
STARTCHAR 2221
ENCODING 8737
SWIDTH 777 0
DWIDTH 21 0
BBX 16 18 2 -1
BITMAP
0003
0007
000E
001C
0038
0470
07E0
03C0
03C0
07C0
0E60
1C60
3860
7030
FFFF
FFFF
0030
0060
ENDCHAR
STARTCHAR 2222
ENCODING 8738
SWIDTH 703 0
DWIDTH 19 0
BBX 15 14 2 0
BITMAP
0080
00CE
00FE
01F0
07E0
3E70
F830
F030
7C30
1F60
03E0
00F8
00DE
00C4
ENDCHAR
STARTCHAR 2223
ENCODING 8739
SWIDTH 222 0
DWIDTH 6 0
BBX 2 22 2 -4
BITMAP
C0
C0
C0
C0
C0
C0
C0
C0
C0
C0
C0
C0
C0
C0
C0
C0
C0
C0
C0
C0
C0
C0
ENDCHAR
STARTCHAR 2224
ENCODING 8740
SWIDTH 370 0
DWIDTH 10 0
BBX 6 22 2 -4
BITMAP
30
30
30
30
30
30
34
3C
3C
38
38
30
70
F0
F0
F0
B0
30
30
30
30
30
ENDCHAR
STARTCHAR 2225
ENCODING 8741
SWIDTH 407 0
DWIDTH 11 0
BBX 7 22 2 -4
BITMAP
C6
C6
C6
C6
C6
C6
C6
C6
C6
C6
C6
C6
C6
C6
C6
C6
C6
C6
C6
C6
C6
C6
ENDCHAR
STARTCHAR 2226
ENCODING 8742
SWIDTH 555 0
DWIDTH 15 0
BBX 11 22 2 -4
BITMAP
3180
3180
31A0
31E0
31E0
31C0
31C0
3180
3380
3380
3780
3F80
3D80
3980
3980
3180
7180
F180
F180
B180
B180
3180
ENDCHAR
STARTCHAR 2227
ENCODING 8743
SWIDTH 703 0
DWIDTH 19 0
BBX 15 16 2 -1
BITMAP
0180
0380
03C0
07C0
06C0
0660
0C60
0C30
1830
1838
3818
3018
300C
600C
600E
C006
ENDCHAR
STARTCHAR 2228
ENCODING 8744
SWIDTH 703 0
DWIDTH 19 0
BBX 15 15 2 -1
BITMAP
E006
600E
700C
301C
3018
1818
1830
1C30
0C70
0E60
06E0
06C0
03C0
0380
0380
ENDCHAR
STARTCHAR 2229
ENCODING 8745
SWIDTH 703 0
DWIDTH 19 0
BBX 15 16 2 -1
BITMAP
07C0
1FF0
3838
701C
600E
E006
C006
C006
C006
C006
C006
C006
C006
C006
C006
C006
ENDCHAR
STARTCHAR 222A
ENCODING 8746
SWIDTH 703 0
DWIDTH 19 0
BBX 15 16 2 -1
BITMAP
C006
C006
C006
C006
C006
C006
C006
C006
C006
C006
E006
600E
700C
3838
1FF0
07C0
ENDCHAR
STARTCHAR 222B
ENCODING 8747
SWIDTH 592 0
DWIDTH 16 0
BBX 12 30 2 -8
BITMAP
0030
00F0
01C0
0180
0300
0300
0300
0300
0300
0300
0300
0700
0600
0600
0600
0600
0600
0600
0600
0600
0600
0600
0E00
0C00
0C00
0C00
0C00
1C00
F800
E000
ENDCHAR
STARTCHAR 222C
ENCODING 8748
SWIDTH 851 0
DWIDTH 23 0
BBX 19 30 2 -8
BITMAP
003060
00F1E0
01C380
018700
030600
030600
030600
030600
030600
030600
030E00
070C00
060C00
060C00
060C00
060C00
060C00
060C00
060C00
060C00
060C00
061C00
0E1800
0C1800
0C1800
0C1800
0C1800
1C3000
F9F000
E1C000
ENDCHAR
STARTCHAR 222D
ENCODING 8749
SWIDTH 1111 0
DWIDTH 30 0
BBX 26 30 2 -8
BITMAP
003061C0
00F1E3C0
01C38600
01870C00
03060C00
03060C00
03060C00
03060C00
03060C00
03061C00
030E1800
070C1800
060C1800
060C1800
060C1800
060C1800
060C1800
060C1800
060C1800
060C1800
060C3800
061C3000
0E183000
0C183000
0C183000
0C183000
0C183000
1C306000
F9F3C000
E1C38000
ENDCHAR
STARTCHAR 222E
ENCODING 8750
SWIDTH 666 0
DWIDTH 18 0
BBX 14 30 2 -8
BITMAP
0018
0078
00E0
01C0
0180
0180
0180
0180
07C0
1FE0
3BB0
6318
630C
C30C
C30C
C30C
C30C
630C
6318
3330
1FE0
0FC0
0600
0600
0600
0600
0600
0C00
7C00
7000
ENDCHAR
STARTCHAR 222F
ENCODING 8751
SWIDTH 925 0
DWIDTH 25 0
BBX 21 30 2 -8
BITMAP
001870
0078F0
00E180
01C300
018300
018300
018300
018300
01FB00
07FF80
1F87C0
330660
630630
430618
C30618
C30618
C30618
630630
330670
1F07C0
0FFF80
07FC00
060C00
060C00
060C00
060C00
060C00
0C1800
7CF000
70E000
ENDCHAR
STARTCHAR 2230
ENCODING 8752
SWIDTH 1185 0
DWIDTH 32 0
BBX 28 30 2 -8
BITMAP
001870E0
0078F1E0
00E18300
01C30600
01830600
01830600
01830600
01830600
01BFCC00
03FFFC00
0F861F00
3F060FC0
73060CE0
43060C60
C3060C30
C3060C30
63060C30
73060C60
3F061DC0
0F8E1F80
03FFFE00
073FF800
060C1800
060C1800
060C1800
060C1800
060C3800
0C187000
78F1E000
70E18000
ENDCHAR
STARTCHAR 2231
ENCODING 8753
SWIDTH 777 0
DWIDTH 21 0
BBX 17 30 2 -8
BITMAP
000C00
003C00
007000
00E000
00C000
00C000
00C000
03E000
0FF880
1CDC80
31CE80
61B780
61FF80
C18F80
C18780
018180
018000
018000
018000
018000
018000
038000
030000
030000
030000
030000
030000
060000
3E0000
380000
ENDCHAR
STARTCHAR 2232
ENCODING 8754
SWIDTH 777 0
DWIDTH 21 0
BBX 17 30 2 -8
BITMAP
000C00
003C00
007000
00E000
00C000
00C000
00C000
03E000
0FF880
1CDC80
31CF80
61BF80
619F80
C18F80
C18380
C18100
C18000
418000
618600
718E00
399C00
1FF800
07E000
030000
030000
030000
030000
060000
3E0000
380000
ENDCHAR
STARTCHAR 2233
ENCODING 8755
SWIDTH 740 0
DWIDTH 20 0
BBX 17 30 2 -8
BITMAP
000C00
003C00
007000
00E000
00C000
00C000
00C000
03E000
0FF800
1CDC00
31CE00
618600
618000
C18000
C18100
C18380
C18F80
41BF80
61B780
718F80
399D80
1FF980
07E000
030000
030000
030000
030000
060000
3E0000
380000
ENDCHAR
STARTCHAR 2234
ENCODING 8756
SWIDTH 518 0
DWIDTH 14 0
BBX 10 10 2 2
BITMAP
0C00
0C00
0C00
0000
0000
0000
0000
C0C0
C0C0
C0C0
ENDCHAR
STARTCHAR 2235
ENCODING 8757
SWIDTH 518 0
DWIDTH 14 0
BBX 10 10 2 2
BITMAP
C0C0
C0C0
C0C0
0000
0000
0000
0000
0C00
0C00
0C00
ENDCHAR
STARTCHAR 2236
ENCODING 8758
SWIDTH 222 0
DWIDTH 6 0
BBX 2 11 2 1
BITMAP
C0
C0
C0
00
00
00
00
00
C0
C0
C0
ENDCHAR
STARTCHAR 2237
ENCODING 8759
SWIDTH 518 0
DWIDTH 14 0
BBX 10 11 2 1
BITMAP
C0C0
C0C0
C0C0
0000
0000
0000
0000
0000
C0C0
C0C0
C0C0
ENDCHAR
STARTCHAR 2238
ENCODING 8760
SWIDTH 703 0
DWIDTH 19 0
BBX 15 8 2 6
BITMAP
0180
0180
0180
0000
0000
0000
FFFE
FFFE
ENDCHAR
STARTCHAR 2239
ENCODING 8761
SWIDTH 777 0
DWIDTH 21 0
BBX 17 10 2 2
BITMAP
000180
000180
000180
000000
FFF000
FFF000
000000
000180
000180
000180
ENDCHAR
STARTCHAR 223A
ENCODING 8762
SWIDTH 703 0
DWIDTH 19 0
BBX 15 14 2 0
BITMAP
C006
C006
C006
0000
0000
0000
FFFE
FFFE
0000
0000
0000
C006
C006
C006
ENDCHAR
STARTCHAR 223B
ENCODING 8763
SWIDTH 740 0
DWIDTH 20 0
BBX 16 15 2 -1
BITMAP
0180
0180
0180
0000
1C00
3F00
7382
E1C7
00FE
007C
0000
0000
0180
0180
0180
ENDCHAR
STARTCHAR 223C
ENCODING 8764
SWIDTH 740 0
DWIDTH 20 0
BBX 15 6 3 4
BITMAP
3C00
FE00
C706
838E
01FC
0078
ENDCHAR
STARTCHAR 223D
ENCODING 8765
SWIDTH 740 0
DWIDTH 20 0
BBX 15 6 3 4
BITMAP
0078
01FC
838E
C706
FE00
7C00
ENDCHAR
STARTCHAR 223E
ENCODING 8766
SWIDTH 777 0
DWIDTH 21 0
BBX 16 8 2 3
BITMAP
1C0C
3E0F
7307
E183
E1C3
E0E7
787E
181C
ENDCHAR
STARTCHAR 223F
ENCODING 8767
SWIDTH 703 0
DWIDTH 19 0
BBX 15 10 2 2
BITMAP
1C00
3E00
6300
6300
C180
0186
0186
00CC
00FC
0078
ENDCHAR
STARTCHAR 2240
ENCODING 8768
SWIDTH 333 0
DWIDTH 9 0
BBX 5 15 2 -1
BITMAP
60
70
38
18
18
18
30
70
60
C0
C0
E0
70
30
10
ENDCHAR
STARTCHAR 2241
ENCODING 8769
SWIDTH 740 0
DWIDTH 20 0
BBX 16 12 2 1
BITMAP
0030
0070
0060
1CE0
3FC0
73C2
E1C7
03FE
037C
0700
0600
0E00
ENDCHAR
STARTCHAR 2242
ENCODING 8770
SWIDTH 740 0
DWIDTH 20 0
BBX 16 10 2 1
BITMAP
7FFF
7FFF
0000
0000
3E00
7F82
E1C3
40EE
007C
0010
ENDCHAR
STARTCHAR 2243
ENCODING 8771
SWIDTH 740 0
DWIDTH 20 0
BBX 16 10 2 3
BITMAP
0800
3E00
7782
E1C3
00FE
007C
0000
0000
7FFF
7FFF
ENDCHAR
STARTCHAR 2244
ENCODING 8772
SWIDTH 740 0
DWIDTH 20 0
BBX 16 15 2 -1
BITMAP
0060
0860
3E60
77C2
E1C3
00FE
01FC
0180
0180
7FFF
7FFF
0300
0600
0600
0600
ENDCHAR
STARTCHAR 2245
ENCODING 8773
SWIDTH 740 0
DWIDTH 20 0
BBX 15 14 3 1
BITMAP
3C00
FE00
C706
838E
01FC
0070
0000
FFFE
FFFE
0000
0000
0000
FFFE
FFFE
ENDCHAR
STARTCHAR 2246
ENCODING 8774
SWIDTH 740 0
DWIDTH 20 0
BBX 16 16 2 0
BITMAP
3E00
7F00
E383
41E7
00FE
0038
0000
0060
7FFF
7FFF
00C0
0180
0180
7FFF
7FFF
0600
ENDCHAR
STARTCHAR 2247
ENCODING 8775
SWIDTH 740 0
DWIDTH 20 0
BBX 15 16 3 -1
BITMAP
3C00
FEC0
C7C6
83CE
01FC
01F8
0180
FFFE
FFFE
0300
0600
0600
FFFE
FFFE
0C00
0C00
ENDCHAR
STARTCHAR 2248
ENCODING 8776
SWIDTH 740 0
DWIDTH 20 0
BBX 16 12 2 1
BITMAP
0800
3E00
7782
E1C3
00FE
007C
1E00
7F00
6383
C1C7
00FE
003C
ENDCHAR
STARTCHAR 2249
ENCODING 8777
SWIDTH 740 0
DWIDTH 20 0
BBX 16 15 2 -1
BITMAP
0070
0860
3E60
77C2
E1C3
00FE
01FC
1D80
7F80
6383
C3C7
03FE
063C
0600
0600
ENDCHAR
STARTCHAR 224A
ENCODING 8778
SWIDTH 740 0
DWIDTH 20 0
BBX 15 14 3 1
BITMAP
3C00
FE00
C706
838E
01FC
3C78
FE00
C706
838E
01FC
0070
0000
FFFE
FFFE
ENDCHAR
STARTCHAR 224B
ENCODING 8779
SWIDTH 740 0
DWIDTH 20 0
BBX 16 16 2 -1
BITMAP
0C00
3F00
7782
E1C7
00FE
1C7C
3F00
7382
E1C7
00FE
1C7C
3F00
6382
C1C7
00FE
007C
ENDCHAR
STARTCHAR 224C
ENCODING 8780
SWIDTH 740 0
DWIDTH 20 0
BBX 16 14 2 1
BITMAP
003C
00FE
C1C7
6383
7F00
1C00
0000
7FFF
7FFF
0000
0000
0000
7FFF
7FFF
ENDCHAR
STARTCHAR 224D
ENCODING 8781
SWIDTH 703 0
DWIDTH 19 0
BBX 15 10 2 2
BITMAP
8000
F00E
7FFE
1FF0
0000
0000
0FF0
7FFE
F00E
8002
ENDCHAR
STARTCHAR 224E
ENCODING 8782
SWIDTH 703 0
DWIDTH 19 0
BBX 15 14 2 0
BITMAP
03C0
0FE0
1C70
F83E
F81E
0000
0000
0000
0000
F81E
F83E
1C30
0FE0
07C0
ENDCHAR
STARTCHAR 224F
ENCODING 8783
SWIDTH 703 0
DWIDTH 19 0
BBX 15 11 2 3
BITMAP
03C0
0FE0
1C70
F83E
F81E
0000
0000
0000
0000
FFFE
FFFE
ENDCHAR
STARTCHAR 2250
ENCODING 8784
SWIDTH 703 0
DWIDTH 19 0
BBX 15 14 2 3
BITMAP
0180
0180
0180
0000
0000
0000
FFFE
FFFE
0000
0000
0000
0000
FFFE
FFFE
ENDCHAR
STARTCHAR 2251
ENCODING 8785
SWIDTH 703 0
DWIDTH 19 0
BBX 15 20 2 -3
BITMAP
0180
0180
0180
0000
0000
0000
FFFE
FFFE
0000
0000
0000
0000
FFFE
FFFE
0000
0000
0000
0180
0180
0180
ENDCHAR
STARTCHAR 2252
ENCODING 8786
SWIDTH 703 0
DWIDTH 19 0
BBX 15 20 2 -3
BITMAP
C000
C000
C000
0000
0000
0000
FFFE
FFFE
0000
0000
0000
0000
FFFE
FFFE
0000
0000
0000
0006
0006
0006
ENDCHAR
STARTCHAR 2253
ENCODING 8787
SWIDTH 703 0
DWIDTH 19 0
BBX 15 20 2 -3
BITMAP
0006
0006
0006
0000
0000
0000
FFFE
FFFE
0000
0000
0000
0000
FFFE
FFFE
0000
0000
0000
C000
C000
C000
ENDCHAR
STARTCHAR 2254
ENCODING 8788
SWIDTH 777 0
DWIDTH 21 0
BBX 17 10 2 2
BITMAP
C00000
C7FF80
C7FF80
000000
000000
000000
000000
C7FF80
C7FF80
C00000
ENDCHAR
STARTCHAR 2255
ENCODING 8789
SWIDTH 777 0
DWIDTH 21 0
BBX 17 10 2 2
BITMAP
000180
FFF180
FFF180
000000
000000
000000
000000
FFF180
FFF180
000180
ENDCHAR
STARTCHAR 2256
ENCODING 8790
SWIDTH 703 0
DWIDTH 19 0
BBX 15 8 2 3
BITMAP
FFFE
FC7E
1838
1818
1818
1818
FC3E
FFFE
ENDCHAR
STARTCHAR 2257
ENCODING 8791
SWIDTH 703 0
DWIDTH 19 0
BBX 15 21 2 3
BITMAP
03C0
0FE0
1C70
1838
1818
1818
1818
1838
1C70
0FE0
03C0
0000
0000
FFFE
FFFE
0000
0000
0000
0000
FFFE
FFFE
ENDCHAR
STARTCHAR 2258
ENCODING 8792
SWIDTH 703 0
DWIDTH 19 0
BBX 15 14 2 0
BITMAP
1FF0
7FFE
F00E
8000
0000
0000
FFFE
FFFE
0000
0000
0000
0000
FFFE
FFFE
ENDCHAR
STARTCHAR 2259
ENCODING 8793
SWIDTH 703 0
DWIDTH 19 0
BBX 15 16 2 -1
BITMAP
0380
03C0
06C0
0E60
0C70
1C30
0000
0000
0000
FFFE
FFFE
0000
0000
0000
FFFE
FFFE
ENDCHAR
STARTCHAR 225A
ENCODING 8794
SWIDTH 703 0
DWIDTH 19 0
BBX 15 16 2 -1
BITMAP
1C30
0C70
0E60
07C0
03C0
0380
0000
0000
0000
FFFE
FFFE
0000
0000
0000
FFFE
FFFE
ENDCHAR
STARTCHAR 225B
ENCODING 8795
SWIDTH 703 0
DWIDTH 19 0
BBX 15 19 2 4
BITMAP
0100
0100
0180
0FF0
07C0
03C0
06C0
0440
0000
0000
0000
FFFE
FFFE
0000
0000
0000
0000
FFFE
FFFE
ENDCHAR
STARTCHAR 225C
ENCODING 8796
SWIDTH 703 0
DWIDTH 19 0
BBX 15 20 2 3
BITMAP
0100
0180
0380
02C0
0640
0460
0C20
0830
0FF0
0000
0000
0000
FFFE
FFFE
0000
0000
0000
0000
FFFE
FFFE
ENDCHAR
STARTCHAR 225D
ENCODING 8797
SWIDTH 962 0
DWIDTH 26 0
BBX 22 20 2 3
BITMAP
01000C
010010
3D1F3C
433190
C12090
817F90
816010
C12090
633110
3D1E10
000000
000000
1FFFE0
1FFFE0
000000
000000
000000
000000
1FFFE0
1FFFE0
ENDCHAR
STARTCHAR 225E
ENCODING 8798
SWIDTH 703 0
DWIDTH 19 0
BBX 15 18 2 3
BITMAP
2E70
3398
3108
2108
2108
2108
2108
0000
0000
0000
FFFE
FFFE
0000
0000
0000
0000
FFFE
FFFE
ENDCHAR
STARTCHAR 225F
ENCODING 8799
SWIDTH 703 0
DWIDTH 19 0
BBX 15 21 2 3
BITMAP
07C0
0460
0C20
0820
0060
00C0
0180
0180
0000
0100
0100
0000
0000
0000
FFFE
FFFE
0000
0000
0000
FFFE
FFFE
ENDCHAR
STARTCHAR 2260
ENCODING 8800
SWIDTH 703 0
DWIDTH 19 0
BBX 15 22 2 -4
BITMAP
0030
0030
0030
0060
0060
00E0
00C0
FFFE
FFFE
0180
0180
0180
0300
FFFE
FFFE
0600
0600
0E00
0C00
0C00
1C00
1800
ENDCHAR
STARTCHAR 2261
ENCODING 8801
SWIDTH 703 0
DWIDTH 19 0
BBX 15 13 2 0
BITMAP
FFFE
FFFE
0000
0000
0000
FFFE
FFFE
0000
0000
0000
0000
FFFE
FFFE
ENDCHAR
STARTCHAR 2262
ENCODING 8802
SWIDTH 703 0
DWIDTH 19 0
BBX 15 21 2 -4
BITMAP
0030
0030
0070
0060
FFFE
FFFE
00C0
00C0
0180
FFFE
FFFE
0300
0300
0300
0600
FFFE
FFFE
0C00
0C00
0C00
1800
ENDCHAR
STARTCHAR 2263
ENCODING 8803
SWIDTH 703 0
DWIDTH 19 0
BBX 15 19 2 -3
BITMAP
FFFE
FFFE
0000
0000
0000
FFFE
FFFE
0000
0000
0000
0000
FFFE
FFFE
0000
0000
0000
0000
FFFE
FFFE
ENDCHAR
STARTCHAR 2264
ENCODING 8804
SWIDTH 740 0
DWIDTH 20 0
BBX 16 22 2 -4
BITMAP
0001
0007
001E
0078
01E0
0780
1E00
7800
E000
F000
3C00
0F00
03C0
00F0
003C
000F
0003
0000
0000
0000
FFFF
FFFF
ENDCHAR
STARTCHAR 2265
ENCODING 8805
SWIDTH 740 0
DWIDTH 20 0
BBX 16 22 2 -4
BITMAP
8000
E000
F800
3E00
0F80
03E0
00F8
003E
000F
000F
003C
00F0
03C0
0F00
7C00
F000
C000
0000
0000
0000
FFFF
FFFF
ENDCHAR
STARTCHAR 2266
ENCODING 8806
SWIDTH 740 0
DWIDTH 20 0
BBX 15 25 2 -5
BITMAP
0006
001E
00F8
03E0
0F80
3E00
F800
E000
7800
1F00
07C0
01F0
007C
001E
0002
0000
0000
0000
FFFE
FFFE
0000
0000
0000
FFFE
FFFE
ENDCHAR
STARTCHAR 2267
ENCODING 8807
SWIDTH 740 0
DWIDTH 20 0
BBX 15 26 2 -6
BITMAP
8000
E000
F800
3E00
0780
01F0
007C
001E
000E
003E
00F8
03E0
0F80
3C00
F000
C000
0000
0000
0000
FFFE
FFFE
0000
0000
0000
FFFE
FFFE
ENDCHAR
STARTCHAR 2268
ENCODING 8808
SWIDTH 740 0
DWIDTH 20 0
BBX 15 27 2 -7
BITMAP
0006
001E
00F8
03E0
0F80
3E00
F800
E000
7800
1F00
07C0
01F0
007C
001E
0002
0000
0030
0070
FFFE
FFFE
01C0
0180
0300
FFFE
FFFE
0C00
1C00
ENDCHAR
STARTCHAR 2269
ENCODING 8809
SWIDTH 740 0
DWIDTH 20 0
BBX 15 28 2 -8
BITMAP
8000
E000
F800
3E00
0780
01F0
007C
001E
000E
003E
00F8
03E0
0F80
3C00
F000
C000
0000
0030
0070
FFFE
FFFE
01C0
0180
0300
FFFE
FFFE
0C00
1C00
ENDCHAR
STARTCHAR 226A
ENCODING 8810
SWIDTH 925 0
DWIDTH 25 0
BBX 20 19 2 -3
BITMAP
001010
007030
00E0F0
01C1C0
078380
0E0F00
1C1C00
783800
E0F000
E0E000
F07000
383C00
1E0E00
070700
0383C0
01E0E0
007070
003030
001000
ENDCHAR
STARTCHAR 226B
ENCODING 8811
SWIDTH 925 0
DWIDTH 25 0
BBX 20 19 2 -3
BITMAP
80C000
E0E000
707000
3C3C00
1E0E00
070780
03C1C0
00E0E0
007070
003030
00F070
01C1E0
038380
0F0700
1C1E00
783800
F0F000
C0C000
808000
ENDCHAR
STARTCHAR 226C
ENCODING 8812
SWIDTH 481 0
DWIDTH 13 0
BBX 9 23 2 -5
BITMAP
6300
F700
3E00
1C00
3C00
3600
7700
6300
6300
C300
C180
C180
C180
E300
6300
6300
3600
3E00
1C00
1C00
7F00
E300
4100
ENDCHAR
STARTCHAR 226D
ENCODING 8813
SWIDTH 703 0
DWIDTH 19 0
BBX 15 22 2 -4
BITMAP
0030
0030
0030
0060
0060
0060
80C0
F0CE
FFFE
1FF0
0180
0380
0FF0
7FFE
F70E
8602
0600
0E00
0C00
0C00
1C00
1800
ENDCHAR
STARTCHAR 226E
ENCODING 8814
SWIDTH 740 0
DWIDTH 20 0
BBX 16 22 2 -4
BITMAP
000C
000C
001B
001F
003E
0078
01F0
07B0
1E60
3C60
F060
E0C0
78C0
3CC0
0F80
03C0
03F0
033C
031E
0707
0601
0600
ENDCHAR
STARTCHAR 226F
ENCODING 8815
SWIDTH 740 0
DWIDTH 20 0
BBX 16 22 2 -4
BITMAP
0060
0060
C0C0
E0C0
78C0
1F80
0780
01E0
03F0
033C
070F
0607
061E
0E78
0DF0
0FC0
1F00
3C00
F800
F800
B000
3000
ENDCHAR
STARTCHAR 2270
ENCODING 8816
SWIDTH 740 0
DWIDTH 20 0
BBX 16 26 2 -6
BITMAP
0006
000C
000D
000F
001E
0078
01F8
07B0
1E30
7830
E060
F060
3C60
0FC0
03C0
00F0
01BC
018F
0383
0300
0300
0700
FFFF
FFFF
0E00
0C00
ENDCHAR
STARTCHAR 2271
ENCODING 8817
SWIDTH 740 0
DWIDTH 20 0
BBX 16 26 2 -6
BITMAP
0030
0060
8060
E060
F8C0
3EC0
0FC0
03E0
01F8
01BE
030F
030F
073C
06F0
07C0
1F00
7C00
FC00
DC00
1800
1800
3800
FFFF
FFFF
6000
6000
ENDCHAR
STARTCHAR 2272
ENCODING 8818
SWIDTH 740 0
DWIDTH 20 0
BBX 16 24 2 -5
BITMAP
0001
0007
001E
0078
01E0
0780
1E00
7800
E000
F800
3E00
0F80
03E0
00F8
003E
000F
0001
0000
1C00
3F00
7382
C1C7
00FE
007C
ENDCHAR
STARTCHAR 2273
ENCODING 8819
SWIDTH 740 0
DWIDTH 20 0
BBX 16 24 2 -5
BITMAP
8000
F000
7C00
1F00
07C0
01F0
007C
001F
0007
001F
007C
01F0
07C0
1F00
7C00
F000
C000
0000
1C00
3F00
7382
C1C7
00FE
007C
ENDCHAR
STARTCHAR 2274
ENCODING 8820
SWIDTH 740 0
DWIDTH 20 0
BBX 16 28 2 -7
BITMAP
000C
001C
0019
001F
003E
0078
01F0
07F0
1E60
7860
E0C0
F8C0
3EC0
0F80
03E0
01F8
033E
030F
0301
0600
1E00
3F00
7F82
CDC7
0CFE
187C
1800
1800
ENDCHAR
STARTCHAR 2275
ENCODING 8821
SWIDTH 740 0
DWIDTH 20 0
BBX 16 28 2 -7
BITMAP
000C
001C
8018
F018
7C38
1F30
07F0
01F0
007C
007F
00C7
00DF
00FC
01F0
07C0
1F80
7F00
F300
C300
0600
1E00
3F00
7F82
CDC7
0CFE
187C
1800
1800
ENDCHAR
STARTCHAR 2276
ENCODING 8822
SWIDTH 740 0
DWIDTH 20 0
BBX 16 28 2 -8
BITMAP
0002
000E
003E
00F8
03E0
0F00
7C00
F000
F000
7C00
1F00
07C0
80F0
E03E
F80E
3E02
0780
01F0
007C
001F
0007
001F
0078
03E0
0F80
3E00
F800
E000
ENDCHAR
STARTCHAR 2277
ENCODING 8823
SWIDTH 740 0
DWIDTH 20 0
BBX 16 28 2 -8
BITMAP
8000
F000
7C00
1F00
07C0
01F0
003C
000F
000F
003E
00F8
03C0
1F00
7C06
F01E
C078
01E0
0F80
3E00
F800
E000
F800
3E00
0780
01F0
007C
001E
0006
ENDCHAR
STARTCHAR 2278
ENCODING 8824
SWIDTH 740 0
DWIDTH 20 0
BBX 16 31 2 -9
BITMAP
000C
000E
001E
003E
00F8
03F0
0F30
7C30
F060
F060
7C60
1FC0
07C0
81F0
E1BE
F98E
3F82
0780
03E0
077C
061F
0607
0C1F
0C78
0FE0
1F80
3E00
F800
F000
3000
3000
ENDCHAR
STARTCHAR 2279
ENCODING 8825
SWIDTH 740 0
DWIDTH 20 0
BBX 16 31 2 -9
BITMAP
000C
800C
F018
7C18
1F18
07F0
00F0
003C
006F
006F
007E
00F8
03C0
1FC0
7D86
F19E
C3F8
03E0
0F80
3F00
FE00
E600
FE00
3E00
0F80
19F0
187C
181E
3006
3000
3000
ENDCHAR
STARTCHAR 227A
ENCODING 8826
SWIDTH 740 0
DWIDTH 20 0
BBX 16 20 2 -3
BITMAP
0002
0003
0006
000C
001C
0070
00E0
03C0
1F00
FC00
FC00
1F00
03C0
00E0
0078
001C
000C
0006
0007
0002
ENDCHAR
STARTCHAR 227B
ENCODING 8827
SWIDTH 740 0
DWIDTH 20 0
BBX 16 20 2 -3
BITMAP
4000
E000
7000
3800
1C00
0E00
0780
03E0
00FC
003F
003F
00FC
01E0
0780
0E00
1C00
3800
7000
E000
4000
ENDCHAR
STARTCHAR 227C
ENCODING 8828
SWIDTH 740 0
DWIDTH 20 0
BBX 16 27 2 -7
BITMAP
0002
0003
0006
000C
001C
0070
00E0
03C0
1F00
FC00
FC00
1F00
03C0
00E0
E070
F83C
3E0C
0706
03C7
00E2
0060
0030
0038
0018
001C
000C
000C
ENDCHAR
STARTCHAR 227D
ENCODING 8829
SWIDTH 740 0
DWIDTH 20 0
BBX 16 27 2 -7
BITMAP
4000
E000
7000
3800
1C00
0E00
0780
03E0
00FC
003F
003F
00FC
01E0
0780
0E03
1C1F
383C
70F0
E1C0
4380
0700
0E00
0C00
1800
1800
3800
1000
ENDCHAR
STARTCHAR 227E
ENCODING 8830
SWIDTH 740 0
DWIDTH 20 0
BBX 16 25 2 -6
BITMAP
0002
0006
000E
001C
0038
00F0
03C0
1F80
7E00
7E00
1F80
03C0
00F0
0038
001C
000E
0006
0002
0000
1C00
7F00
6382
C1C7
00FE
003C
ENDCHAR
STARTCHAR 227F
ENCODING 8831
SWIDTH 740 0
DWIDTH 20 0
BBX 16 25 2 -6
BITMAP
6000
6000
3000
1800
1E00
0700
03C0
00F8
003F
003F
00F8
03C0
0700
0E00
1800
3000
6000
2000
0000
1C00
7F00
6382
C1C7
00FE
003C
ENDCHAR
STARTCHAR 2280
ENCODING 8832
SWIDTH 740 0
DWIDTH 20 0
BBX 16 22 2 -4
BITMAP
0018
003A
0033
0036
006C
007C
0070
00E0
03C0
1FC0
FD80
FD80
1F80
03C0
03E0
0378
061C
060E
0606
0C07
0C02
0C00
ENDCHAR
STARTCHAR 2281
ENCODING 8833
SWIDTH 740 0
DWIDTH 20 0
BBX 16 22 2 -4
BITMAP
0018
4038
E030
7030
3860
1C60
0E60
07C0
03E0
00FC
01BF
01BF
01FC
03E0
0780
0F00
1E00
3E00
7600
EC00
4C00
0C00
ENDCHAR
STARTCHAR 2282
ENCODING 8834
SWIDTH 740 0
DWIDTH 20 0
BBX 16 15 2 -1
BITMAP
07FF
1FFF
3800
7000
6000
E000
C000
C000
C000
E000
6000
7000
3800
1FFF
07FF
ENDCHAR
STARTCHAR 2283
ENCODING 8835
SWIDTH 740 0
DWIDTH 20 0
BBX 16 15 2 -1
BITMAP
FFE0
FFF8
003C
000E
0006
0007
0003
0003
0003
0006
0006
000E
001C
FFF8
FFE0
ENDCHAR
STARTCHAR 2284
ENCODING 8836
SWIDTH 740 0
DWIDTH 20 0
BBX 16 22 2 -4
BITMAP
0018
0018
0018
07FF
1FFF
3830
7060
6060
E060
C0C0
C0C0
C0C0
C180
6180
7180
3B00
1FFF
0FFF
0600
0600
0600
0C00
ENDCHAR
STARTCHAR 2285
ENCODING 8837
SWIDTH 740 0
DWIDTH 20 0
BBX 16 22 2 -4
BITMAP
0030
0060
0060
0060
FFF0
FFF8
00DC
018E
0186
0187
0303
0303
0303
0606
0606
060E
0C1C
FFF8
FFE0
1800
1800
3800
ENDCHAR
STARTCHAR 2286
ENCODING 8838
SWIDTH 740 0
DWIDTH 20 0
BBX 16 20 2 -3
BITMAP
07FF
1FFF
3800
7000
6000
E000
C000
C000
C000
E000
6000
7000
3800
1FFF
07FF
0000
0000
0000
7FFF
7FFF
ENDCHAR
STARTCHAR 2287
ENCODING 8839
SWIDTH 740 0
DWIDTH 20 0
BBX 16 20 2 -3
BITMAP
FFE0
FFF8
003C
000E
0006
0007
0003
0003
0003
0006
0006
000E
001C
FFF8
FFE0
0000
0000
0000
FFFE
FFFE
ENDCHAR
STARTCHAR 2288
ENCODING 8840
SWIDTH 740 0
DWIDTH 20 0
BBX 16 24 2 -5
BITMAP
0030
0030
07FF
1FFF
38E0
70C0
60C0
E1C0
C180
C180
C380
E300
6300
7600
3E00
1FFF
0FFF
0C00
0C00
1800
7FFF
7FFF
3000
3000
ENDCHAR
STARTCHAR 2289
ENCODING 8841
SWIDTH 740 0
DWIDTH 20 0
BBX 16 24 2 -5
BITMAP
0030
0030
FFE0
FFF8
00FC
00CE
00C6
01C7
0183
0183
0383
0306
0306
060E
061C
FFF8
FFE0
0C00
0C00
1800
FFFE
FFFE
3000
3000
ENDCHAR
STARTCHAR 228A
ENCODING 8842
SWIDTH 740 0
DWIDTH 20 0
BBX 16 22 2 -5
BITMAP
07FF
1FFF
3800
7000
6000
E000
C000
C000
C000
E000
6000
7000
3800
1FFF
07FF
0000
0060
00C0
7FFF
7FFF
0300
0700
ENDCHAR
STARTCHAR 228B
ENCODING 8843
SWIDTH 740 0
DWIDTH 20 0
BBX 16 22 2 -5
BITMAP
FFE0
FFF8
003C
000E
0006
0007
0003
0003
0003
0006
0006
000E
001C
FFF8
FFE0
0000
00E0
01C0
FFFE
FFFE
0300
0600
ENDCHAR
STARTCHAR 228C
ENCODING 8844
SWIDTH 703 0
DWIDTH 19 0
BBX 15 15 2 -1
BITMAP
C006
C006
C006
C0C6
C1C6
C706
DFF6
DFF6
CF06
E3C6
60CE
700C
3838
1FF0
07C0
ENDCHAR
STARTCHAR 228D
ENCODING 8845
SWIDTH 703 0
DWIDTH 19 0
BBX 15 15 2 -1
BITMAP
C006
C006
C006
C006
C006
C006
C186
C186
C186
E006
6006
700C
3838
1FF0
07C0
ENDCHAR
STARTCHAR 228E
ENCODING 8846
SWIDTH 703 0
DWIDTH 19 0
BBX 15 16 2 -1
BITMAP
C006
C006
C006
C006
C186
C186
C186
DFF6
DFF6
C186
E186
618E
700C
3838
1FF0
07C0
ENDCHAR
STARTCHAR 228F
ENCODING 8847
SWIDTH 703 0
DWIDTH 19 0
BBX 15 15 2 -1
BITMAP
FFFE
FFFE
C000
C000
C000
C000
C000
C000
C000
C000
C000
C000
C000
FFFE
FFFE
ENDCHAR
STARTCHAR 2290
ENCODING 8848
SWIDTH 703 0
DWIDTH 19 0
BBX 15 15 2 -1
BITMAP
FFFE
FFFE
0006
0006
0006
0006
0006
0006
0006
0006
0006
0006
0006
FFFE
FFFE
ENDCHAR
STARTCHAR 2291
ENCODING 8849
SWIDTH 703 0
DWIDTH 19 0
BBX 15 20 2 -3
BITMAP
FFFE
FFFE
C000
C000
C000
C000
C000
C000
C000
C000
C000
C000
C000
FFFE
FFFE
0000
0000
0000
FFFE
FFFE
ENDCHAR
STARTCHAR 2292
ENCODING 8850
SWIDTH 703 0
DWIDTH 19 0
BBX 15 20 2 -3
BITMAP
FFFE
FFFE
0006
0006
0006
0006
0006
0006
0006
0006
0006
0006
0006
FFFE
FFFE
0000
0000
0000
FFFE
FFFE
ENDCHAR
STARTCHAR 2293
ENCODING 8851
SWIDTH 666 0
DWIDTH 18 0
BBX 13 15 2 0
BITMAP
FFF8
FFF8
C018
C018
C018
C018
C018
C018
C018
C018
C018
C018
C018
C018
C018
ENDCHAR
STARTCHAR 2294
ENCODING 8852
SWIDTH 666 0
DWIDTH 18 0
BBX 13 15 2 -1
BITMAP
C018
C018
C018
C018
C018
C018
C018
C018
C018
C018
C018
C018
C018
FFF8
FFF8
ENDCHAR
STARTCHAR 2295
ENCODING 8853
SWIDTH 740 0
DWIDTH 20 0
BBX 16 16 2 -1
BITMAP
03E0
0FF8
3DBC
318E
6186
6183
C183
FFFF
FFFF
C183
6183
6186
318E
3D9C
1FF8
07E0
ENDCHAR
STARTCHAR 2296
ENCODING 8854
SWIDTH 740 0
DWIDTH 20 0
BBX 16 16 2 -1
BITMAP
03E0
0FF8
3C1C
300E
6006
6003
C003
FFFF
FFFF
C003
6003
6006
300E
3C1C
0FF8
07E0
ENDCHAR
STARTCHAR 2297
ENCODING 8855
SWIDTH 740 0
DWIDTH 20 0
BBX 16 16 2 -1
BITMAP
03E0
0FF8
3C1C
381E
7C3E
6E73
C7E3
C3C3
C3C3
C7E3
6E73
7C3E
381E
3C1C
0FF8
07E0
ENDCHAR
STARTCHAR 2298
ENCODING 8856
SWIDTH 740 0
DWIDTH 20 0
BBX 16 16 2 -1
BITMAP
03E0
0FF8
3C7C
306E
60C6
60C3
C0C3
C183
C183
C183
6303
6306
330E
3E1C
0FF8
07E0
ENDCHAR
STARTCHAR 2299
ENCODING 8857
SWIDTH 740 0
DWIDTH 20 0
BBX 16 16 2 -1
BITMAP
03E0
0FF8
3C1C
300E
6006
6003
C003
C183
C183
C183
E003
6007
700E
3C1C
1FF8
07E0
ENDCHAR
STARTCHAR 229A
ENCODING 8858
SWIDTH 740 0
DWIDTH 20 0
BBX 16 16 2 -1
BITMAP
07E0
0FF0
3C38
300C
600E
63C6
C7E7
C663
C663
C663
E7E6
63C6
700E
381C
1FF8
07E0
ENDCHAR
STARTCHAR 229B
ENCODING 8859
SWIDTH 740 0
DWIDTH 20 0
BBX 16 16 2 -1
BITMAP
03E0
0FF8
3C1C
300E
6186
6593
CFF3
C7E3
C7E3
CFF3
6593
6186
300E
3C1C
0FF8
07E0
ENDCHAR
STARTCHAR 229C
ENCODING 8860
SWIDTH 740 0
DWIDTH 20 0
BBX 16 16 2 -1
BITMAP
03E0
0FF8
1C3C
300E
6006
6003
CFF3
CFF3
C003
CFF3
EFF3
6007
700E
3C1C
1FF8
07E0
ENDCHAR
STARTCHAR 229D
ENCODING 8861
SWIDTH 740 0
DWIDTH 20 0
BBX 16 16 2 -1
BITMAP
03E0
0FF8
3C1C
300E
6006
6003
C003
CFF3
CFF3
C003
6003
6006
300E
3C1C
0FF8
07E0
ENDCHAR
STARTCHAR 229E
ENCODING 8862
SWIDTH 703 0
DWIDTH 19 0
BBX 15 15 2 -1
BITMAP
FFFE
FFFE
C186
C186
C186
C186
FFFE
FFFE
C186
C186
C186
C186
C186
FFFE
FFFE
ENDCHAR
STARTCHAR 229F
ENCODING 8863
SWIDTH 703 0
DWIDTH 19 0
BBX 15 15 2 -1
BITMAP
FFFE
FFFE
C006
C006
C006
C006
FFFE
FFFE
C006
C006
C006
C006
C006
FFFE
FFFE
ENDCHAR
STARTCHAR 22A0
ENCODING 8864
SWIDTH 703 0
DWIDTH 19 0
BBX 15 15 2 -1
BITMAP
FFFE
FFFE
F01E
F83E
DC76
CEE6
C7C6
C386
C7C6
CEE6
DC76
F83E
F01E
FFFE
FFFE
ENDCHAR
STARTCHAR 22A1
ENCODING 8865
SWIDTH 703 0
DWIDTH 19 0
BBX 15 15 2 -1
BITMAP
FFFE
FFFE
C006
C006
C006
C006
C186
C186
C186
C006
C006
C006
C006
FFFE
FFFE
ENDCHAR
STARTCHAR 22A2
ENCODING 8866
SWIDTH 703 0
DWIDTH 19 0
BBX 15 18 2 0
BITMAP
C000
C000
C000
C000
C000
C000
C000
C000
FFFE
FFFE
C000
C000
C000
C000
C000
C000
C000
C000
ENDCHAR
STARTCHAR 22A3
ENCODING 8867
SWIDTH 703 0
DWIDTH 19 0
BBX 15 18 2 0
BITMAP
0006
0006
0006
0006
0006
0006
0006
0006
FFFE
FFFE
0006
0006
0006
0006
0006
0006
0006
0006
ENDCHAR
STARTCHAR 22A4
ENCODING 8868
SWIDTH 703 0
DWIDTH 19 0
BBX 15 18 2 0
BITMAP
FFFE
FFFE
0180
0180
0180
0180
0180
0180
0180
0180
0180
0180
0180
0180
0180
0180
0180
0180
ENDCHAR
STARTCHAR 22A5
ENCODING 8869
SWIDTH 703 0
DWIDTH 19 0
BBX 15 18 2 0
BITMAP
0180
0180
0180
0180
0180
0180
0180
0180
0180
0180
0180
0180
0180
0180
0180
0180
FFFE
FFFE
ENDCHAR
STARTCHAR 22A6
ENCODING 8870
SWIDTH 592 0
DWIDTH 16 0
BBX 12 22 2 -4
BITMAP
C000
C000
C000
C000
C000
C000
C000
C000
C000
C000
FFF0
FFF0
C000
C000
C000
C000
C000
C000
C000
C000
C000
C000
ENDCHAR
STARTCHAR 22A7
ENCODING 8871
SWIDTH 592 0
DWIDTH 16 0
BBX 12 22 2 -4
BITMAP
C000
C000
C000
C000
C000
C000
C000
FFF0
FFF0
C000
C000
C000
C000
FFF0
FFF0
C000
C000
C000
C000
C000
C000
C000
ENDCHAR
STARTCHAR 22A8
ENCODING 8872
SWIDTH 703 0
DWIDTH 19 0
BBX 15 22 2 -4
BITMAP
C000
C000
C000
C000
C000
C000
C000
FFFE
FFFE
C000
C000
C000
C000
FFFE
FFFE
C000
C000
C000
C000
C000
C000
C000
ENDCHAR
STARTCHAR 22A9
ENCODING 8873
SWIDTH 777 0
DWIDTH 21 0
BBX 17 22 2 -4
BITMAP
C60000
C60000
C60000
C60000
C60000
C60000
C60000
C60000
C60000
C60000
C7FF80
C7FF80
C60000
C60000
C60000
C60000
C60000
C60000
C60000
C60000
C60000
C60000
ENDCHAR
STARTCHAR 22AA
ENCODING 8874
SWIDTH 962 0
DWIDTH 26 0
BBX 22 22 2 -4
BITMAP
C63000
C63000
C63000
C63000
C63000
C63000
C63000
C63000
C63000
C63000
C63FFC
C63FFC
C63000
C63000
C63000
C63000
C63000
C63000
C63000
C63000
C63000
C63000
ENDCHAR
STARTCHAR 22AB
ENCODING 8875
SWIDTH 777 0
DWIDTH 21 0
BBX 17 22 2 -4
BITMAP
C60000
C60000
C60000
C60000
C60000
C60000
C60000
C7FF80
C7FF80
C60000
C60000
C60000
C60000
C7FF80
C7FF80
C60000
C60000
C60000
C60000
C60000
C60000
C60000
ENDCHAR
STARTCHAR 22AC
ENCODING 8876
SWIDTH 777 0
DWIDTH 21 0
BBX 17 22 2 -4
BITMAP
060300
060700
060600
060C00
061C00
061800
063000
067000
066000
06E000
07FF80
07FF80
078000
070000
060000
0E0000
0E0000
1E0000
3E0000
360000
660000
E60000
ENDCHAR
STARTCHAR 22AD
ENCODING 8877
SWIDTH 851 0
DWIDTH 23 0
BBX 19 22 2 -4
BITMAP
0C0300
0C0700
0C0600
0C0C00
0C1C00
0C1800
0C3000
0FFFE0
0FFFE0
0CC000
0DC000
0D8000
0F8000
0FFFE0
0FFFE0
0E0000
0C0000
1C0000
3C0000
3C0000
7C0000
EC0000
ENDCHAR
STARTCHAR 22AE
ENCODING 8878
SWIDTH 925 0
DWIDTH 25 0
BBX 21 22 2 -4
BITMAP
0C6300
0C6700
0C6600
0C6C00
0C7C00
0C7800
0C7000
0C7000
0C6000
0CE000
0DFFF8
0DFFF8
0FE000
0F6000
0E6000
0E6000
0C6000
1C6000
3C6000
3C6000
6C6000
EC6000
ENDCHAR
STARTCHAR 22AF
ENCODING 8879
SWIDTH 925 0
DWIDTH 25 0
BBX 21 22 2 -4
BITMAP
0C6300
0C6700
0C6600
0C6C00
0C7C00
0C7800
0C7000
0C7FF8
0C7FF8
0CE000
0DE000
0DE000
0FE000
0F7FF8
0E7FF8
0E6000
0C6000
1C6000
3C6000
3C6000
7C6000
EC6000
ENDCHAR
STARTCHAR 22B2
ENCODING 8882
SWIDTH 777 0
DWIDTH 21 0
BBX 17 18 2 -2
BITMAP
000380
000F80
001F80
007980
01E180
078180
0F0180
3C0180
F00180
E00180
780180
1E0180
0F8180
03C180
00F180
003D80
000F80
000780
ENDCHAR
STARTCHAR 22B3
ENCODING 8883
SWIDTH 777 0
DWIDTH 21 0
BBX 17 18 2 -2
BITMAP
E00000
F00000
FC0000
CF0000
C3C000
C1F000
C07800
C01E00
C00780
C00380
C00F00
C03C00
C0F800
C1E000
C78000
DE0000
F80000
F00000
ENDCHAR
STARTCHAR 22B4
ENCODING 8884
SWIDTH 777 0
DWIDTH 21 0
BBX 17 21 2 -4
BITMAP
000380
000F80
003D80
00F180
03C180
0F0180
3C0180
F00180
E00180
780180
1E0180
078180
01E180
007D80
001F80
000780
000000
000000
000000
FFFF80
FFFF80
ENDCHAR
STARTCHAR 22B5
ENCODING 8885
SWIDTH 777 0
DWIDTH 21 0
BBX 17 21 2 -4
BITMAP
E00000
F80000
FE0000
CF8000
C3E000
C0F800
C03E00
C00F80
C00780
C01F00
C07C00
C1F000
C7C000
DF0000
FC0000
F00000
000000
000000
000000
FFFF80
FFFF80
ENDCHAR
STARTCHAR 22B6
ENCODING 8886
SWIDTH 1111 0
DWIDTH 30 0
BBX 26 10 2 2
BITMAP
1F003E00
3F807F00
71C0FF80
E0C0FF80
C0FFFFC0
C0FFFFC0
E0C1FF80
71C0FF80
3F807F00
1E003E00
ENDCHAR
STARTCHAR 22B7
ENCODING 8887
SWIDTH 1111 0
DWIDTH 30 0
BBX 26 10 2 2
BITMAP
1F003E00
3F807F00
7FC0E380
FFC0C180
FFFF81C0
FFFF80C0
FFC0C180
7FC0E380
7F807F00
1F003E00
ENDCHAR
STARTCHAR 22B8
ENCODING 8888
SWIDTH 925 0
DWIDTH 25 0
BBX 20 10 2 2
BITMAP
000780
000FE0
001C70
003830
FFF030
FFF030
003830
001C70
000FE0
000780
ENDCHAR
STARTCHAR 22B9
ENCODING 8889
SWIDTH 703 0
DWIDTH 19 0
BBX 15 16 2 -1
BITMAP
0180
0180
0180
0180
0180
0180
0000
FC3E
FC3E
0000
0180
0180
0180
0180
0180
0180
ENDCHAR
STARTCHAR 22BA
ENCODING 8890
SWIDTH 703 0
DWIDTH 19 0
BBX 15 18 2 0
BITMAP
FFFE
FFFE
0180
0180
0180
0180
0180
0180
0180
0180
0180
0180
0180
0180
0180
0180
0180
0180
ENDCHAR
STARTCHAR 22BB
ENCODING 8891
SWIDTH 703 0
DWIDTH 19 0
BBX 15 17 2 -2
BITMAP
E006
600C
300C
3018
1818
1830
0C30
0C60
06E0
06C0
03C0
0380
0000
0000
0000
FFFE
FFFE
ENDCHAR
STARTCHAR 22BC
ENCODING 8892
SWIDTH 703 0
DWIDTH 19 0
BBX 15 17 2 -2
BITMAP
FFFE
FFFE
0000
0000
0000
0380
03C0
06C0
06E0
0C60
0C70
1830
1818
3018
300C
600C
E006
ENDCHAR
STARTCHAR 22BD
ENCODING 8893
SWIDTH 703 0
DWIDTH 19 0
BBX 15 17 2 -2
BITMAP
FFFE
FFFE
0000
0000
0000
E006
600C
700C
3018
1818
1830
0C30
0C60
06E0
06C0
03C0
0380
ENDCHAR
STARTCHAR 22BE
ENCODING 8894
SWIDTH 851 0
DWIDTH 23 0
BBX 19 18 2 -2
BITMAP
180000
180000
180000
180000
FE0000
FF8000
19E000
187000
183800
181800
181C00
180C00
180C00
180600
1FFFE0
1FFFE0
000600
000C00
ENDCHAR
STARTCHAR 22BF
ENCODING 8895
SWIDTH 777 0
DWIDTH 21 0
BBX 17 16 2 0
BITMAP
000380
000780
000F80
001D80
003980
007180
00E180
01C180
038180
070180
0E0180
1C0180
380180
700180
FFFF80
FFFF80
ENDCHAR
STARTCHAR 22C0
ENCODING 8896
SWIDTH 962 0
DWIDTH 26 0
BBX 21 26 2 -6
BITMAP
003000
007800
007800
007800
00FC00
00CC00
00CC00
01CE00
018600
038600
030700
030300
070380
060180
060180
0E01C0
0C00C0
1C00C0
1800E0
180060
380070
300030
300030
700038
600018
E00018
ENDCHAR
STARTCHAR 22C1
ENCODING 8897
SWIDTH 962 0
DWIDTH 26 0
BBX 22 27 2 -7
BITMAP
E0001C
600018
600018
700038
300030
300070
380060
180060
1C00E0
0C00C0
0C00C0
0E01C0
060180
060380
070300
030300
038700
018600
018600
01CE00
00CC00
00CC00
00FC00
007800
007800
007000
003000
ENDCHAR
STARTCHAR 22C2
ENCODING 8898
SWIDTH 962 0
DWIDTH 26 0
BBX 22 26 2 -6
BITMAP
00FC00
03FF80
0F87C0
1C01E0
380070
300030
700038
600018
E0001C
C0001C
C0000C
C0000C
C0000C
C0000C
C0000C
C0000C
C0000C
C0000C
C0000C
C0000C
C0000C
C0000C
C0000C
C0000C
C0000C
C0000C
ENDCHAR
STARTCHAR 22C3
ENCODING 8899
SWIDTH 962 0
DWIDTH 26 0
BBX 22 26 2 -7
BITMAP
C0000C
C0000C
C0000C
C0000C
C0000C
C0000C
C0000C
C0000C
C0000C
C0000C
C0000C
C0000C
C0000C
C0000C
C0000C
C0000C
E0001C
E0001C
600018
700038
300030
380070
1E00E0
0F87C0
07FF00
00FC00
ENDCHAR
STARTCHAR 22C4
ENCODING 8900
SWIDTH 666 0
DWIDTH 18 0
BBX 14 14 2 0
BITMAP
0300
0780
0FC0
1CE0
3870
7038
E01C
C00C
6018
3030
1860
0CC0
0780
0300
ENDCHAR
STARTCHAR 22C5
ENCODING 8901
SWIDTH 222 0
DWIDTH 6 0
BBX 2 3 2 5
BITMAP
C0
C0
C0
ENDCHAR
STARTCHAR 22C6
ENCODING 8902
SWIDTH 555 0
DWIDTH 15 0
BBX 11 10 2 3
BITMAP
0400
0400
0600
FFE0
3FC0
1F00
1F00
1F00
1180
2080
ENDCHAR
STARTCHAR 22C7
ENCODING 8903
SWIDTH 740 0
DWIDTH 20 0
BBX 15 17 2 -2
BITMAP
4180
E186
718E
381C
1C38
0E70
07E0
FFFE
FFFE
07E0
0E70
1C38
381C
700E
E186
4182
0180
ENDCHAR
STARTCHAR 22C8
ENCODING 8904
SWIDTH 629 0
DWIDTH 17 0
BBX 13 12 2 1
BITMAP
C018
E038
F078
F8F8
DDD8
CF98
C718
CF98
DDD8
F8F8
F078
E038
ENDCHAR
STARTCHAR 22C9
ENCODING 8905
SWIDTH 629 0
DWIDTH 17 0
BBX 12 12 2 1
BITMAP
C000
E030
F070
F8E0
DDC0
CF80
C700
CF80
DDC0
F8E0
F070
E030
ENDCHAR
STARTCHAR 22CA
ENCODING 8906
SWIDTH 629 0
DWIDTH 17 0
BBX 13 12 2 1
BITMAP
4018
E038
7078
38D8
1D98
0F18
0718
0F98
19D8
30F8
6078
4038
ENDCHAR
STARTCHAR 22CB
ENCODING 8907
SWIDTH 592 0
DWIDTH 16 0
BBX 12 12 2 1
BITMAP
4000
E000
7000
3800
1C00
0E00
0700
0F80
19C0
30E0
6070
4030
ENDCHAR
STARTCHAR 22CC
ENCODING 8908
SWIDTH 592 0
DWIDTH 16 0
BBX 11 11 3 2
BITMAP
0060
00C0
0180
0300
0600
0E00
1F00
3380
61C0
C0E0
8060
ENDCHAR
STARTCHAR 22CD
ENCODING 8909
SWIDTH 740 0
DWIDTH 20 0
BBX 16 10 2 3
BITMAP
0010
007E
40EE
E1C3
7F02
3E00
0000
0000
7FFF
7FFF
ENDCHAR
STARTCHAR 22CE
ENCODING 8910
SWIDTH 740 0
DWIDTH 20 0
BBX 15 15 3 -1
BITMAP
E01E
7038
3830
1870
1CE0
0CC0
0EC0
07C0
0780
0780
0380
0300
0300
0300
0300
ENDCHAR
STARTCHAR 22CF
ENCODING 8911
SWIDTH 740 0
DWIDTH 20 0
BBX 16 15 2 -1
BITMAP
0180
0180
0180
0180
01C0
03C0
03C0
03E0
0760
0670
0E30
1C38
381C
300E
E007
ENDCHAR
STARTCHAR 22D0
ENCODING 8912
SWIDTH 740 0
DWIDTH 20 0
BBX 16 15 2 -1
BITMAP
07FF
1FFF
3800
73FF
67FF
CE00
CC00
CC00
CE00
67FF
63FF
7000
3C00
1FFF
07FF
ENDCHAR
STARTCHAR 22D1
ENCODING 8913
SWIDTH 740 0
DWIDTH 20 0
BBX 16 15 2 -1
BITMAP
FFE0
FFF8
001C
FFCE
FFE6
0073
0033
0033
0073
FFE6
FFC6
000C
003C
FFF8
FFE0
ENDCHAR
STARTCHAR 22D2
ENCODING 8914
SWIDTH 703 0
DWIDTH 19 0
BBX 15 16 2 -1
BITMAP
07C0
1FF0
3838
701C
63CE
67E6
CC66
CC66
CC66
CC66
CC66
CC66
CC66
CC66
CC66
CC66
ENDCHAR
STARTCHAR 22D3
ENCODING 8915
SWIDTH 703 0
DWIDTH 19 0
BBX 15 15 2 -1
BITMAP
CC66
CC66
CC66
CC66
CC66
CC66
CC66
CC66
CC66
CE66
67E6
73CC
383C
1FF8
07E0
ENDCHAR
STARTCHAR 22D5
ENCODING 8917
SWIDTH 703 0
DWIDTH 19 0
BBX 15 22 2 -4
BITMAP
0C60
0C60
0C60
0C60
0C60
0C60
0C60
FFFE
FFFE
0C60
0C60
0C60
0C60
FFFE
FFFE
0C60
0C60
0C60
0C60
0C60
0C60
0C60
ENDCHAR
STARTCHAR 22D6
ENCODING 8918
SWIDTH 740 0
DWIDTH 20 0
BBX 16 19 2 -3
BITMAP
0003
000F
001E
0078
01E0
0780
1E00
3C00
F030
E030
F830
3C00
0F00
03C0
00F0
007C
001E
0007
0001
ENDCHAR
STARTCHAR 22D7
ENCODING 8919
SWIDTH 740 0
DWIDTH 20 0
BBX 16 19 2 -3
BITMAP
C000
E000
7800
1E00
0780
03E0
00F0
003C
180F
1807
181E
0078
00F0
03C0
0F00
3C00
F000
E000
8000
ENDCHAR
STARTCHAR 22D8
ENCODING 8920
SWIDTH 1222 0
DWIDTH 33 0
BBX 29 19 2 -3
BITMAP
00101018
00703038
00E0F070
01C1C1E0
07838380
0E0F0700
1C1C1E00
78383800
E0F07000
E0E06000
F0707800
383C3C00
1E0E0E00
07070780
0383C1C0
01E0E0E0
00707078
00303018
00100008
ENDCHAR
STARTCHAR 22D9
ENCODING 8921
SWIDTH 1222 0
DWIDTH 33 0
BBX 29 19 2 -3
BITMAP
80C04000
E0E06000
70707800
3C3C1C00
1E0E0F00
07078380
03C1C1C0
00E0E0F0
00707038
00303038
00F07070
01C1E0E0
038383C0
0F070700
1C1E0E00
78383C00
F0F07000
C0C06000
80800000
ENDCHAR
STARTCHAR 22DA
ENCODING 8922
SWIDTH 740 0
DWIDTH 20 0
BBX 15 35 2 -10
BITMAP
000E
003E
00F8
03E0
0F00
3C00
F000
F000
7C00
1F00
07C0
01F0
003C
000E
0002
0000
FFFE
FFFE
0000
C000
F000
7C00
1F00
03C0
00F0
003E
000E
000E
007C
01F0
07C0
1F00
7800
E000
8000
ENDCHAR
STARTCHAR 22DB
ENCODING 8923
SWIDTH 740 0
DWIDTH 20 0
BBX 15 35 2 -11
BITMAP
8000
E000
7800
1F00
07C0
01F0
007C
000E
000E
003E
00F0
03C0
1F00
7C00
F000
C000
0000
FFFE
FFFE
0000
0002
000E
003C
00F0
07C0
1F00
7C00
F000
F000
7C00
0F00
03E0
00F8
003E
000E
ENDCHAR
STARTCHAR 22DC
ENCODING 8924
SWIDTH 740 0
DWIDTH 20 0
BBX 16 22 2 -4
BITMAP
FFFF
FFFF
0000
0000
0000
0003
000F
003C
00F0
03C0
0F00
3C00
F000
E000
7800
1E00
0780
01E0
0078
001E
0007
0001
ENDCHAR
STARTCHAR 22DD
ENCODING 8925
SWIDTH 740 0
DWIDTH 20 0
BBX 16 22 2 -4
BITMAP
FFFF
FFFF
0000
0000
0000
C000
F000
7C00
1F00
07C0
00F0
003C
000F
000F
003E
00F8
03E0
0F80
3E00
F800
E000
8000
ENDCHAR
STARTCHAR 22DE
ENCODING 8926
SWIDTH 740 0
DWIDTH 20 0
BBX 16 27 2 -7
BITMAP
000C
000C
001C
0018
0038
0030
0060
00C2
0387
0706
3E0C
F818
C070
00E0
03C0
1F00
FC00
FC00
1F00
03C0
00E0
0078
001C
000C
0006
0007
0002
ENDCHAR
STARTCHAR 22DF
ENCODING 8927
SWIDTH 740 0
DWIDTH 20 0
BBX 16 27 2 -7
BITMAP
3000
3800
1800
1C00
0C00
0E00
0700
4380
E1C0
70F0
383C
1C1F
0E03
0780
01E0
00FC
003F
003F
00FC
01E0
0780
0E00
1C00
3800
7000
E000
4000
ENDCHAR
STARTCHAR 22E0
ENCODING 8928
SWIDTH 740 0
DWIDTH 20 0
BBX 16 29 2 -8
BITMAP
0030
0032
0033
0066
006C
007C
00F0
00E0
03C0
1F80
FD80
FD80
1F00
03C0
03E0
E670
FE3C
3E0C
0F06
0FC7
1CE2
1860
1830
3838
3018
301C
600C
600C
6000
ENDCHAR
STARTCHAR 22E1
ENCODING 8929
SWIDTH 740 0
DWIDTH 20 0
BBX 16 29 2 -8
BITMAP
0030
4030
E030
7060
3860
1C60
0EC0
07C0
03E0
01FC
01BF
01BF
03FC
03E0
0780
0E03
1E1F
3E3C
7CF0
EDC0
5F80
1F00
1E00
3C00
3800
3800
7800
7000
6000
ENDCHAR
STARTCHAR 22E2
ENCODING 8930
SWIDTH 703 0
DWIDTH 19 0
BBX 15 24 2 -5
BITMAP
0018
0030
FFFE
FFFE
C060
C060
C060
C0C0
C0C0
C1C0
C180
C180
C380
C300
C300
FFFE
FFFE
0600
0E00
0C00
FFFE
FFFE
1800
1800
ENDCHAR
STARTCHAR 22E3
ENCODING 8931
SWIDTH 703 0
DWIDTH 19 0
BBX 15 24 2 -5
BITMAP
0018
0030
FFFE
FFFE
0066
0066
0066
00C6
00C6
01C6
0186
0186
0386
0306
0306
FFFE
FFFE
0600
0E00
0C00
FFFE
FFFE
1800
1800
ENDCHAR
STARTCHAR 22E4
ENCODING 8932
SWIDTH 703 0
DWIDTH 19 0
BBX 15 22 2 -5
BITMAP
FFFE
FFFE
C000
C000
C000
C000
C000
C000
C000
C000
C000
C000
C000
FFFE
FFFE
0000
00E0
01C0
FFFE
FFFE
0300
0600
ENDCHAR
STARTCHAR 22E5
ENCODING 8933
SWIDTH 703 0
DWIDTH 19 0
BBX 15 22 2 -5
BITMAP
FFFE
FFFE
0006
0006
0006
0006
0006
0006
0006
0006
0006
0006
0006
FFFE
FFFE
0000
00E0
01C0
FFFE
FFFE
0300
0600
ENDCHAR
STARTCHAR 22E6
ENCODING 8934
SWIDTH 740 0
DWIDTH 20 0
BBX 16 26 2 -7
BITMAP
0001
0007
001E
0078
01E0
0780
1E00
7800
E000
F800
3E00
0F80
03E0
00F8
003E
000F
0001
0070
1C60
3FC0
73C2
C1C7
03FE
077C
0600
0E00
ENDCHAR
STARTCHAR 22E7
ENCODING 8935
SWIDTH 740 0
DWIDTH 20 0
BBX 16 26 2 -7
BITMAP
8000
F000
7C00
1F00
07C0
01F0
007C
001F
0007
001F
007C
01F0
07C0
1F00
7C00
F000
C000
0070
1C60
3FC0
73C2
C1C7
03FE
077C
0600
0E00
ENDCHAR
STARTCHAR 22E8
ENCODING 8936
SWIDTH 740 0
DWIDTH 20 0
BBX 16 27 2 -8
BITMAP
0002
0006
000E
001C
0038
00F0
03C0
1F80
7E00
7E00
1F80
03C0
00F0
0038
001C
000E
0006
0002
0070
1C60
7FC0
63C2
C1C7
03FE
073C
0600
0C00
ENDCHAR
STARTCHAR 22E9
ENCODING 8937
SWIDTH 740 0
DWIDTH 20 0
BBX 16 27 2 -8
BITMAP
6000
6000
3000
1800
1E00
0700
03C0
00F8
003F
003F
00F8
03C0
0700
0E00
1800
3000
6000
2000
0070
1C60
7FC0
63C2
C1C7
03FE
073C
0600
0C00
ENDCHAR
STARTCHAR 22EA
ENCODING 8938
SWIDTH 777 0
DWIDTH 21 0
BBX 17 22 2 -4
BITMAP
000600
000E00
000F80
000F80
001F80
007980
01F980
07B180
0F3180
3C3180
F06180
E06180
786180
1EC180
0FC180
03C180
01F180
01BD80
018F80
030780
030000
030000
ENDCHAR
STARTCHAR 22EB
ENCODING 8939
SWIDTH 777 0
DWIDTH 21 0
BBX 17 22 2 -4
BITMAP
007000
006000
E06000
F0E000
FCC000
CFC000
C3C000
C1F000
C1F800
C31E00
C30780
C30380
C60F00
C63C00
C6F800
CDE000
CF8000
DE0000
F80000
F80000
180000
300000
ENDCHAR
STARTCHAR 22EC
ENCODING 8940
SWIDTH 777 0
DWIDTH 21 0
BBX 17 25 2 -6
BITMAP
000C00
001800
001B80
003F80
003D80
00F180
03F180
0F6180
3C6180
F0E180
E0C180
78C180
1FC180
078180
01E180
037D80
031F80
030780
060000
060000
060000
FFFF80
FFFF80
0C0000
180000
ENDCHAR
STARTCHAR 22ED
ENCODING 8941
SWIDTH 777 0
DWIDTH 21 0
BBX 17 25 2 -6
BITMAP
000C00
001800
E01800
F83800
FE3000
CFB000
C3F000
C0F800
C07E00
C0EF80
C0C780
C0DF00
C1FC00
C1F000
C7C000
DF0000
FF0000
F30000
060000
060000
060000
FFFF80
FFFF80
0C0000
180000
ENDCHAR
STARTCHAR 22EE
ENCODING 8942
SWIDTH 222 0
DWIDTH 6 0
BBX 2 19 2 -3
BITMAP
C0
C0
C0
00
00
00
00
00
C0
C0
C0
00
00
00
00
00
C0
C0
C0
ENDCHAR
STARTCHAR 22EF
ENCODING 8943
SWIDTH 814 0
DWIDTH 22 0
BBX 18 3 2 5
BITMAP
C0C0C0
C0C0C0
C0C0C0
ENDCHAR
STARTCHAR 22F0
ENCODING 8944
SWIDTH 629 0
DWIDTH 17 0
BBX 13 14 2 0
BITMAP
0018
0018
0018
0000
0000
0000
0300
0300
0300
0000
0000
C000
C000
C000
ENDCHAR
STARTCHAR 22F1
ENCODING 8945
SWIDTH 629 0
DWIDTH 17 0
BBX 13 14 2 0
BITMAP
C000
C000
C000
0000
0000
0000
0300
0300
0300
0000
0000
0018
0018
0018
ENDCHAR
STARTCHAR 2300
ENCODING 8960
SWIDTH 777 0
DWIDTH 21 0
BBX 15 17 3 -2
BITMAP
0004
07C6
1FFE
387C
603C
E07C
C0EE
C1C6
C386
C706
CE0E
FC0C
781C
7838
FFF0
C7C0
8000
ENDCHAR
STARTCHAR 2305
ENCODING 8965
SWIDTH 703 0
DWIDTH 19 0
BBX 15 11 2 1
BITMAP
FFFE
FFFE
0000
0000
0000
0380
03C0
06C0
0E60
0C70
1838
ENDCHAR
STARTCHAR 2306
ENCODING 8966
SWIDTH 703 0
DWIDTH 19 0
BBX 15 17 2 -2
BITMAP
FFFE
FFFE
0000
0000
0000
0000
FFFE
FFFE
0000
0000
0000
0380
03C0
06C0
0E60
0C70
1838
ENDCHAR
STARTCHAR 2308
ENCODING 8968
SWIDTH 333 0
DWIDTH 9 0
BBX 6 25 2 -5
BITMAP
FC
FC
C0
C0
C0
C0
C0
C0
C0
C0
C0
C0
C0
C0
C0
C0
C0
C0
C0
C0
C0
C0
C0
C0
C0
ENDCHAR
STARTCHAR 2309
ENCODING 8969
SWIDTH 333 0
DWIDTH 9 0
BBX 6 25 1 -5
BITMAP
FC
FC
0C
0C
0C
0C
0C
0C
0C
0C
0C
0C
0C
0C
0C
0C
0C
0C
0C
0C
0C
0C
0C
0C
0C
ENDCHAR
STARTCHAR 230A
ENCODING 8970
SWIDTH 333 0
DWIDTH 9 0
BBX 6 25 2 -6
BITMAP
C0
C0
C0
C0
C0
C0
C0
C0
C0
C0
C0
C0
C0
C0
C0
C0
C0
C0
C0
C0
C0
C0
C0
FC
FC
ENDCHAR
STARTCHAR 230B
ENCODING 8971
SWIDTH 333 0
DWIDTH 9 0
BBX 6 25 1 -6
BITMAP
0C
0C
0C
0C
0C
0C
0C
0C
0C
0C
0C
0C
0C
0C
0C
0C
0C
0C
0C
0C
0C
0C
0C
FC
FC
ENDCHAR
STARTCHAR 2310
ENCODING 8976
SWIDTH 740 0
DWIDTH 20 0
BBX 16 8 2 0
BITMAP
FFFF
FFFF
C000
C000
C000
C000
C000
C000
ENDCHAR
STARTCHAR 2319
ENCODING 8985
SWIDTH 740 0
DWIDTH 20 0
BBX 16 8 2 6
BITMAP
C000
C000
C000
C000
C000
C000
FFFF
FFFF
ENDCHAR
STARTCHAR 231C
ENCODING 8988
SWIDTH 407 0
DWIDTH 11 0
BBX 7 6 2 13
BITMAP
FE
FE
C0
C0
C0
C0
ENDCHAR
STARTCHAR 231D
ENCODING 8989
SWIDTH 407 0
DWIDTH 11 0
BBX 7 6 2 13
BITMAP
FE
FE
06
06
06
06
ENDCHAR
STARTCHAR 231E
ENCODING 8990
SWIDTH 407 0
DWIDTH 11 0
BBX 7 6 2 -5
BITMAP
C0
C0
C0
C0
FE
FE
ENDCHAR
STARTCHAR 231F
ENCODING 8991
SWIDTH 407 0
DWIDTH 11 0
BBX 7 6 2 -5
BITMAP
06
06
06
06
FE
FE
ENDCHAR
STARTCHAR 2320
ENCODING 8992
SWIDTH 814 0
DWIDTH 22 0
BBX 10 33 10 0
BITMAP
03C0
0FC0
1F00
1C00
3800
3800
3800
3000
3000
3000
3000
3000
7000
7000
7000
7000
7000
7000
6000
6000
6000
6000
6000
E000
E000
E000
E000
E000
E000
C000
C000
C000
C000
ENDCHAR
STARTCHAR 2321
ENCODING 8993
SWIDTH 814 0
DWIDTH 22 0
BBX 10 33 2 0
BITMAP
00C0
01C0
01C0
01C0
01C0
01C0
01C0
0180
0180
0180
0180
0180
0380
0380
0380
0380
0380
0380
0300
0300
0300
0300
0300
0700
0700
0700
0700
0700
0600
0E00
3C00
F800
E000
ENDCHAR
STARTCHAR 2322
ENCODING 8994
SWIDTH 1037 0
DWIDTH 28 0
BBX 24 8 2 3
BITMAP
007E00
03FF80
0781E0
0E0070
380038
30001C
60000E
E00007
ENDCHAR
STARTCHAR 2323
ENCODING 8995
SWIDTH 1037 0
DWIDTH 28 0
BBX 23 8 2 3
BITMAP
E00006
60000E
70000C
380038
1E0070
0781E0
03FF80
007E00
ENDCHAR
STARTCHAR 2329
ENCODING 9001
SWIDTH 481 0
DWIDTH 13 0
BBX 8 24 2 -4
BITMAP
03
07
06
0E
0C
1C
18
38
30
70
60
E0
E0
60
70
30
38
18
1C
0C
0E
06
07
03
ENDCHAR
STARTCHAR 232A
ENCODING 9002
SWIDTH 481 0
DWIDTH 13 0
BBX 8 24 2 -4
BITMAP
E0
60
70
30
38
18
1C
0C
0E
06
07
03
03
07
06
0E
0C
1C
18
38
30
70
60
E0
ENDCHAR
STARTCHAR 23B2
ENCODING 9138
SWIDTH 1111 0
DWIDTH 30 0
BBX 24 24 4 0
BITMAP
FFFFFF
FFFFFF
E00000
600000
700000
300000
380000
180000
1C0000
0C0000
0E0000
060000
070000
030000
038000
018000
01C000
00C000
00E000
006000
007000
003000
003800
001800
ENDCHAR
STARTCHAR 23B3
ENCODING 9139
SWIDTH 1111 0
DWIDTH 30 0
BBX 26 28 2 0
BITMAP
00060000
000E0000
000C0000
001C0000
00180000
00380000
00300000
00700000
00600000
00E00000
00C00000
01C00000
01800000
03800000
03000000
07000000
06000000
0E000000
0C000000
1C000000
18000000
38000000
30000000
70000000
60000000
E0000000
FFFFFFC0
FFFFFFC0
ENDCHAR
STARTCHAR 23B4
ENCODING 9140
SWIDTH 740 0
DWIDTH 20 0
BBX 20 3 0 19
BITMAP
FFFFF0
FFFFF0
C00030
ENDCHAR
STARTCHAR 23B5
ENCODING 9141
SWIDTH 740 0
DWIDTH 20 0
BBX 20 3 0 -7
BITMAP
C00030
C00030
FFFFF0
ENDCHAR
STARTCHAR 23D0
ENCODING 9168
SWIDTH 222 0
DWIDTH 6 0
BBX 2 13 2 0
BITMAP
C0
C0
C0
C0
C0
C0
C0
C0
C0
C0
C0
C0
C0
ENDCHAR
STARTCHAR 23DC
ENCODING 9180
SWIDTH 1037 0
DWIDTH 28 0
BBX 28 4 0 18
BITMAP
03FFFE00
3FFFFFC0
F00000F0
40000000
ENDCHAR
STARTCHAR 23DD
ENCODING 9181
SWIDTH 1037 0
DWIDTH 28 0
BBX 28 4 0 -7
BITMAP
40000000
F00000F0
3FFFFFC0
07FFFE00
ENDCHAR
STARTCHAR 23DE
ENCODING 9182
SWIDTH 1074 0
DWIDTH 29 0
BBX 29 4 0 18
BITMAP
00070000
3FFFFFE0
7FF0FFF0
C0000018
ENDCHAR
STARTCHAR 23DF
ENCODING 9183
SWIDTH 1074 0
DWIDTH 29 0
BBX 29 4 0 -7
BITMAP
C0000018
7FF07FF0
3FFFFFE0
00070000
ENDCHAR
STARTCHAR 23E0
ENCODING 9184
SWIDTH 1074 0
DWIDTH 29 0
BBX 29 4 0 17
BITMAP
0FFFFFC0
1FFFFFE0
30000070
E0000038
ENDCHAR
STARTCHAR 23E1
ENCODING 9185
SWIDTH 1074 0
DWIDTH 29 0
BBX 29 4 0 -6
BITMAP
E0000038
30000070
1FFFFFE0
0FFFFFC0
ENDCHAR
STARTCHAR 2422
ENCODING 9250
SWIDTH 666 0
DWIDTH 18 0
BBX 16 20 1 0
BITMAP
6000
6100
6F00
7C00
F000
E3E0
6FF8
7C1C
7006
6007
6003
6003
6003
6003
6003
7007
7006
7C1C
6FF8
63E0
ENDCHAR
STARTCHAR 2423
ENCODING 9251
SWIDTH 666 0
DWIDTH 18 0
BBX 16 6 1 -3
BITMAP
C003
C003
C003
C003
FFFF
FFFF
ENDCHAR
STARTCHAR 2500
ENCODING 9472
SWIDTH 555 0
DWIDTH 15 0
BBX 15 2 0 6
BITMAP
FFFE
FFFE
ENDCHAR
STARTCHAR 2502
ENCODING 9474
SWIDTH 555 0
DWIDTH 15 0
BBX 2 22 7 -4
BITMAP
C0
C0
C0
C0
C0
C0
C0
C0
C0
C0
C0
C0
C0
C0
C0
C0
C0
C0
C0
C0
C0
C0
ENDCHAR
STARTCHAR 250C
ENCODING 9484
SWIDTH 555 0
DWIDTH 15 0
BBX 8 12 7 -4
BITMAP
FF
FF
C0
C0
C0
C0
C0
C0
C0
C0
C0
C0
ENDCHAR
STARTCHAR 2510
ENCODING 9488
SWIDTH 555 0
DWIDTH 15 0
BBX 9 12 0 -4
BITMAP
FF80
FF80
0180
0180
0180
0180
0180
0180
0180
0180
0180
0180
ENDCHAR
STARTCHAR 2514
ENCODING 9492
SWIDTH 555 0
DWIDTH 15 0
BBX 8 12 7 6
BITMAP
C0
C0
C0
C0
C0
C0
C0
C0
C0
C0
FF
FF
ENDCHAR
STARTCHAR 2518
ENCODING 9496
SWIDTH 555 0
DWIDTH 15 0
BBX 9 12 0 6
BITMAP
0180
0180
0180
0180
0180
0180
0180
0180
0180
0180
FF80
FF80
ENDCHAR
STARTCHAR 251C
ENCODING 9500
SWIDTH 555 0
DWIDTH 15 0
BBX 8 22 7 -4
BITMAP
C0
C0
C0
C0
C0
C0
C0
C0
C0
C0
FF
FF
C0
C0
C0
C0
C0
C0
C0
C0
C0
C0
ENDCHAR
STARTCHAR 2524
ENCODING 9508
SWIDTH 555 0
DWIDTH 15 0
BBX 9 22 0 -4
BITMAP
0180
0180
0180
0180
0180
0180
0180
0180
0180
0180
FF80
FF80
0180
0180
0180
0180
0180
0180
0180
0180
0180
0180
ENDCHAR
STARTCHAR 252C
ENCODING 9516
SWIDTH 555 0
DWIDTH 15 0
BBX 15 12 0 -4
BITMAP
FFFE
FFFE
0180
0180
0180
0180
0180
0180
0180
0180
0180
0180
ENDCHAR
STARTCHAR 2534
ENCODING 9524
SWIDTH 555 0
DWIDTH 15 0
BBX 15 12 0 6
BITMAP
0180
0180
0180
0180
0180
0180
0180
0180
0180
0180
FFFE
FFFE
ENDCHAR
STARTCHAR 253C
ENCODING 9532
SWIDTH 555 0
DWIDTH 15 0
BBX 15 22 0 -4
BITMAP
0180
0180
0180
0180
0180
0180
0180
0180
0180
0180
FFFE
FFFE
0180
0180
0180
0180
0180
0180
0180
0180
0180
0180
ENDCHAR
STARTCHAR 2581
ENCODING 9601
SWIDTH 814 0
DWIDTH 22 0
BBX 22 3 0 0
BITMAP
FFFFFC
FFFFFC
FFFFFC
ENDCHAR
STARTCHAR 2588
ENCODING 9608
SWIDTH 814 0
DWIDTH 22 0
BBX 22 22 0 0
BITMAP
FFFFFC
FFFFFC
FFFFFC
FFFFFC
FFFFFC
FFFFFC
FFFFFC
FFFFFC
FFFFFC
FFFFFC
FFFFFC
FFFFFC
FFFFFC
FFFFFC
FFFFFC
FFFFFC
FFFFFC
FFFFFC
FFFFFC
FFFFFC
FFFFFC
FFFFFC
ENDCHAR
STARTCHAR 2591
ENCODING 9617
SWIDTH 814 0
DWIDTH 22 0
BBX 22 22 0 0
BITMAP
888C44
000000
623310
000000
888C44
000000
000000
623310
000000
888C44
000000
623310
000000
888C44
000000
623310
000000
888C44
000000
623310
000000
888C44
ENDCHAR
STARTCHAR 2592
ENCODING 9618
SWIDTH 814 0
DWIDTH 22 0
BBX 22 22 0 0
BITMAP
98CCC4
000000
673330
673330
98CCC4
98CCC4
673330
673330
98CCC4
98CCC4
673330
673330
98CCC4
98CCC4
673330
673330
673330
98CCC4
98CCC4
673330
673330
98CCC4
ENDCHAR
STARTCHAR 2593
ENCODING 9619
SWIDTH 814 0
DWIDTH 22 0
BBX 22 21 0 0
BITMAP
FFFFFC
777338
FFFFFC
9DCCEC
FFFFFC
777338
777338
9DCCEC
9DCCEC
FFFFFC
777338
FFFFFC
9DCCEC
FFFFFC
777338
FFFFFC
9DCCEC
FFFFFC
777338
777338
9DCCEC
ENDCHAR
STARTCHAR 25A0
ENCODING 9632
SWIDTH 703 0
DWIDTH 19 0
BBX 15 15 2 -1
BITMAP
FFFE
FFFE
FFFE
FFFE
FFFE
FFFE
FFFE
FFFE
FFFE
FFFE
FFFE
FFFE
FFFE
FFFE
FFFE
ENDCHAR
STARTCHAR 25A1
ENCODING 9633
SWIDTH 703 0
DWIDTH 19 0
BBX 15 15 2 -1
BITMAP
FFFE
FFFE
C006
C006
C006
C006
C006
C006
C006
C006
C006
C006
C006
FFFE
FFFE
ENDCHAR
STARTCHAR 25AA
ENCODING 9642
SWIDTH 555 0
DWIDTH 15 0
BBX 10 10 2 2
BITMAP
FFC0
FFC0
FFC0
FFC0
FFC0
FFC0
FFC0
FFC0
FFC0
FFC0
ENDCHAR
STARTCHAR 25AB
ENCODING 9643
SWIDTH 555 0
DWIDTH 15 0
BBX 10 10 2 2
BITMAP
FFC0
FFC0
C0C0
C0C0
C0C0
C0C0
C0C0
C0C0
FFC0
FFC0
ENDCHAR
STARTCHAR 25AC
ENCODING 9644
SWIDTH 703 0
DWIDTH 19 0
BBX 15 10 2 2
BITMAP
FFFE
FFFE
FFFE
FFFE
FFFE
FFFE
FFFE
FFFE
FFFE
FFFE
ENDCHAR
STARTCHAR 25AD
ENCODING 9645
SWIDTH 703 0
DWIDTH 19 0
BBX 15 10 2 2
BITMAP
FFFE
FFFE
C006
C006
C006
C006
C006
C006
FFFE
FFFE
ENDCHAR
STARTCHAR 25B2
ENCODING 9650
SWIDTH 888 0
DWIDTH 24 0
BBX 20 18 2 0
BITMAP
006000
00F000
00F000
01F800
01F800
03FC00
07FE00
07FE00
0FFF00
0FFF00
1FFF80
1FFFC0
3FFFC0
7FFFE0
7FFFE0
FFFFF0
FFFFF0
FFFFF0
ENDCHAR
STARTCHAR 25B3
ENCODING 9651
SWIDTH 888 0
DWIDTH 24 0
BBX 20 18 2 0
BITMAP
006000
006000
00F000
01F800
019800
039C00
030C00
060600
060700
0C0300
1C0380
180180
3800C0
3000C0
600060
E00070
FFFFF0
FFFFF0
ENDCHAR
STARTCHAR 25B6
ENCODING 9654
SWIDTH 814 0
DWIDTH 22 0
BBX 18 20 2 -3
BITMAP
C00000
F00000
FC0000
FE0000
FF8000
FFE000
FFF800
FFFC00
FFFF00
FFFFC0
FFFFC0
FFFF80
FFFE00
FFFC00
FFF000
FFC000
FF0000
FE0000
F80000
E00000
ENDCHAR
STARTCHAR 25B7
ENCODING 9655
SWIDTH 814 0
DWIDTH 22 0
BBX 18 20 2 -3
BITMAP
C00000
F00000
FC0000
DE0000
C78000
C1E000
C07800
C03C00
C00F00
C003C0
C001C0
C00780
C01E00
C03C00
C0F000
C3C000
CF0000
DE0000
F80000
E00000
ENDCHAR
STARTCHAR 25BC
ENCODING 9660
SWIDTH 888 0
DWIDTH 24 0
BBX 20 17 2 -4
BITMAP
FFFFF0
FFFFF0
7FFFF0
7FFFE0
3FFFC0
3FFFC0
1FFF80
1FFF80
0FFF00
07FE00
07FE00
03FC00
03FC00
01F800
01F800
00F000
006000
ENDCHAR
STARTCHAR 25BD
ENCODING 9661
SWIDTH 888 0
DWIDTH 24 0
BBX 20 18 2 -5
BITMAP
FFFFF0
FFFFF0
E00070
600060
3000C0
3800C0
180180
1C0380
0C0300
060700
060600
030C00
038C00
019800
01F800
00F000
006000
006000
ENDCHAR
STARTCHAR 25C0
ENCODING 9664
SWIDTH 814 0
DWIDTH 22 0
BBX 18 20 2 -3
BITMAP
0000C0
0003C0
000FC0
003FC0
007FC0
01FFC0
07FFC0
1FFFC0
3FFFC0
FFFFC0
FFFFC0
7FFFC0
1FFFC0
0FFFC0
03FFC0
00FFC0
007FC0
001FC0
0007C0
0001C0
ENDCHAR
STARTCHAR 25C1
ENCODING 9665
SWIDTH 814 0
DWIDTH 22 0
BBX 18 20 2 -3
BITMAP
0000C0
0003C0
000FC0
003CC0
0078C0
01E0C0
0780C0
1E00C0
3C00C0
F000C0
E000C0
7800C0
1E00C0
0F00C0
03C0C0
00F0C0
0078C0
001EC0
0007C0
0001C0
ENDCHAR
ENDFONT
